<svg width="129" height="250" viewBox="0 0 129 250" fill="none" xmlns="http://www.w3.org/2000/svg">
<g id="Type=01" clip-path="url(#clip0_319_750)">
<path id="Vector" d="M128.4 158.042C128.4 183.25 109.2 197.833 72.4 197.833H0V52H68.4C103.4 52 121.4 67.2083 121.4 89.9167C121.4 104.5 114.2 115.75 102.8 122C118.4 127.208 128.4 139.708 128.4 158.042V158.042ZM32.2 77.4167V111.792H64.4C80.2 111.792 88.8 105.958 88.8 94.5C88.8 83.0417 80.2 77.4167 64.4 77.4167H32.2V77.4167ZM95.8 154.5C95.8 142.208 86.8 136.375 70 136.375H32.2V172.417H70C86.8 172.417 95.8 167 95.8 154.5V154.5Z" fill="white"/>
</g>
<defs>
<clipPath id="clip0_319_750">
<rect width="128.4" height="250" fill="white"/>
</clipPath>
</defs>
</svg>
