<svg width="139" height="250" viewBox="0 0 139 250" fill="none" xmlns="http://www.w3.org/2000/svg">
<g id="Type=02" clip-path="url(#clip0_319_748)">
<path id="Vector" d="M69.04 41.84C77.69 41.28 84.53 41 89.55 41C108.38 41 121.22 44.28 128.06 50.84C134.89 57.4 138.31 65.98 138.31 76.58C138.31 87.18 135.14 95.49 128.79 101.9C122.44 108.32 112.92 113.06 100.22 116.13C107.75 115.99 114.34 117.32 120 120.11C125.65 122.9 129.97 126.7 132.97 131.52C135.97 136.33 137.47 141.53 137.47 147.11C137.47 165.81 131.3 179.34 118.95 187.71C106.6 196.08 87.94 200.27 62.97 200.27C60.6 200.27 57.6 200.13 53.97 199.85C50.34 199.57 47.76 199.36 46.23 199.22C39.67 198.52 34.37 198.17 30.33 198.17H0.399994L1.23999 187.5L15.47 184.57L32.63 56.28L17.77 53.98L19.03 42.68H53.14C56.77 42.68 62.07 42.4 69.05 41.84H69.04ZM58.37 186.76C62 187.25 64.99 187.49 67.37 187.49C89.55 187.49 100.64 176.12 100.64 153.38C100.64 143.48 98.3 136.22 93.63 131.62C88.95 127.02 81.18 124.71 70.3 124.71C64.86 124.71 60.46 124.85 57.12 125.13L48.96 184.98C51.61 185.68 54.75 186.27 58.38 186.76H58.37ZM63.71 110.79C65.03 110.72 66.19 110.69 67.16 110.69H72.18C81.67 110.69 89.51 108.11 95.72 102.95C101.93 97.79 105.03 89.84 105.03 79.09C105.03 70.86 103.04 64.62 99.07 60.36C95.09 56.11 89.27 53.98 81.6 53.98C75.18 53.98 70.16 54.4 66.53 55.24L59 110.7C60.81 110.84 62.38 110.88 63.71 110.8V110.79Z" fill="white"/>
</g>
<defs>
<clipPath id="clip0_319_748">
<rect width="138" height="250" fill="white" transform="translate(0.399994)"/>
</clipPath>
</defs>
</svg>
