<svg width="122" height="250" viewBox="0 0 122 250" fill="none" xmlns="http://www.w3.org/2000/svg">
<g id="Type=03" clip-path="url(#clip0_319_747)">
<path id="Vector" d="M86.24 116.15V119.33C96.84 121.45 105.36 125.89 111.8 132.66C118.24 139.43 121.46 147.54 121.46 156.99C121.46 169.22 116.4 179.04 106.3 186.46C96.19 193.88 82.49 197.59 65.21 197.59H0.400024V37.65H65.21C82.49 37.65 95.78 41.4 105.08 48.9C114.37 56.4 119.02 66.51 119.02 79.23C119.02 88.85 116.16 96.96 110.46 103.56C104.75 110.16 96.68 114.36 86.25 116.16L86.24 116.15ZM29.99 103.68H62.52C80.29 103.68 89.18 97.16 89.18 84.11C89.18 77.59 87.1 72.82 82.94 69.8C78.78 66.78 71.97 65.28 62.52 65.28H29.99V103.68V103.68ZM29.99 169.71H62.52C82.09 169.71 91.87 163.43 91.87 150.88C91.87 138.33 82.09 131.56 62.52 131.56H29.99V169.71V169.71Z" fill="white"/>
</g>
<defs>
<clipPath id="clip0_319_747">
<rect width="121" height="250" fill="white" transform="translate(0.400024)"/>
</clipPath>
</defs>
</svg>
