<svg width="140" height="250" viewBox="0 0 140 250" fill="none" xmlns="http://www.w3.org/2000/svg">
<g id="Type=04" clip-path="url(#clip0_319_746)">
<path id="Vector" d="M0.400024 179.13C5.94002 176.12 12.11 174.7 18.91 174.7H21.13V72.9699C15.59 67.4299 12.27 64.4299 6.73002 64.4299C16.22 59.8399 24.45 51.2999 30.94 43.0699C38.06 51.6099 46.76 60.4699 54.83 68.0699C62.27 61.1099 70.49 53.1999 77.3 47.0299C81.26 43.3899 85.05 39.9099 88.69 36.4299C105.14 43.3899 115.75 55.5699 124.45 70.9199C128.88 79.1499 131.25 85.9499 136.79 93.3899C135.52 92.9199 134.1 92.7599 132.52 92.7599C122.55 92.7599 110.21 102.73 99.14 108.74C120.18 111.9 139.33 123.3 139.33 147.35C139.33 161.27 126.83 175.99 115.91 182.32C105.15 188.65 71.93 203.68 66.86 210.8C60.06 205.58 51.35 198.14 40.28 191.81C27.46 184.85 14.97 180.42 0.410024 179.15L0.400024 179.13ZM54.83 139.73L66.54 130.4V62.5299L54.83 73.7599V139.74V139.73ZM54.83 143.37V178.65L66.54 181.5V134.51L54.83 143.37V143.37ZM70.49 127.71L91.37 111.73C96.43 106.67 101.02 99.5499 101.02 92.2699C101.02 79.7699 79.19 59.5199 70.48 59.0399V127.71H70.49ZM70.49 131.82V182.29C76.03 183.56 80.93 184.19 85.2 184.19C99.6 184.19 106.08 169.63 106.08 158.08C106.08 140.2 94.06 127.7 75.7 127.7L70.48 131.81L70.49 131.82Z" fill="white"/>
</g>
<defs>
<clipPath id="clip0_319_746">
<rect width="139" height="250" fill="white" transform="translate(0.400024)"/>
</clipPath>
</defs>
</svg>
