<svg width="122" height="250" viewBox="0 0 122 250" fill="none" xmlns="http://www.w3.org/2000/svg">
<g id="Type=05" clip-path="url(#clip0_319_745)">
<path id="Vector" d="M-1 52H65.5642C71.1087 52 76.2754 52.4915 81.0642 53.4642C85.8429 54.4369 90.0089 56.1776 93.5418 58.6759C97.0748 61.1743 99.8827 64.5122 101.966 68.6898C104.049 72.8571 105.09 78.1508 105.09 84.54C105.09 89.8234 104.079 94.5846 102.078 98.8236C100.067 103.063 97.3607 106.79 93.9707 109.984C90.5705 113.189 86.5883 115.892 82.0138 118.114C77.4394 120.336 72.5178 122.077 67.249 123.326C74.6008 123.326 81.636 124.299 88.365 126.244C95.0837 128.189 101.016 131.005 106.152 134.691C111.278 138.377 115.373 142.791 118.426 147.941C121.479 153.091 123 158.927 123 165.46C123 171.993 121.958 177.143 119.875 181.31C117.792 185.478 114.985 188.815 111.452 191.324C107.919 193.822 103.753 195.563 98.974 196.536C94.1851 197.509 89.0184 198 83.474 198H-1V52ZM44.7546 123.121C53.0764 123.121 59.5603 121.944 64.2062 119.578C68.8521 117.213 71.9051 114.571 73.3551 111.653C74.8152 108.735 74.8458 105.919 73.4572 103.206C72.0685 100.493 69.4341 98.7212 65.554 97.8919C62.358 97.1956 58.8251 96.8475 54.945 96.8475C51.7592 96.8475 48.359 97.0522 44.7546 97.4721V123.131V123.121ZM44.7546 148.985C55.4351 151.77 64.8597 153.153 73.0385 153.153C76.7859 153.153 80.2474 152.804 83.4433 152.108C87.0478 151.279 89.6107 149.466 91.1423 146.681C92.6637 143.907 92.9088 140.978 91.8673 137.917C90.8258 134.855 88.365 132.08 84.4849 129.572C80.6047 127.073 75.0501 125.753 67.8412 125.609H44.7546V148.975V148.985Z" fill="white"/>
</g>
<defs>
<clipPath id="clip0_319_745">
<rect width="121" height="250" fill="white" transform="translate(0.400024)"/>
</clipPath>
</defs>
</svg>
