<svg width="146" height="250" viewBox="0 0 146 250" fill="none" xmlns="http://www.w3.org/2000/svg">
<g id="Type=06" clip-path="url(#clip0_319_743)">
<path id="Vector" d="M77.97 197.98H2.63002C1.92002 197.98 1.37002 197.72 0.980024 197.2C0.600024 196.68 0.400024 196.09 0.400024 195.43C0.400024 194.83 0.590024 194.26 0.980024 193.74C1.36002 193.22 1.91002 192.96 2.63002 192.96C5.54002 192.96 7.00002 191.01 7.00002 187.11V84.23C7.00002 72.52 9.24002 62.56 13.72 54.35C18.2 46.14 24.39 39.86 32.31 35.51C40.21 31.17 49.36 29 59.75 29C66.29 29 73.23 30.13 80.56 32.38C87.9 34.63 94.38 38.19 100.01 43.05C105.64 47.91 109.42 54.19 111.34 61.89C111.89 64.42 112.16 66.81 112.16 69.06C112.16 77.8 108.45 85.63 101.03 92.55C95.04 98.1 87.54 102.74 78.53 106.48C73.58 108.46 68.09 110.96 62.04 113.98C53.52 118.27 47.97 122.77 45.39 127.5C44.68 128.93 44.32 130.36 44.32 131.79C44.32 133.38 44.9 134.69 46.05 135.71C47.2 136.73 48.55 137.23 50.09 137.23C52.23 137.23 54.55 136.52 57.05 135.09C59.55 133.66 61.94 132 64.22 130.1C66.5 128.2 68.47 126.51 70.11 125.03L71.76 123.55C77.8 118.06 83.89 113.29 90.02 109.25C96.15 105.21 102.73 103.08 109.76 102.86C116.9 102.86 123.17 104.8 128.55 108.67C133.93 112.54 138.13 117.66 141.12 124C144.11 130.35 145.61 137.2 145.61 144.57C145.39 154.35 143.27 162.65 139.26 169.46C135.25 176.28 129.97 181.78 123.43 185.99C116.89 190.19 109.65 193.24 101.71 195.14C93.77 197.04 85.84 197.98 77.93 197.98H77.97ZM61.15 193.12L68.9 193.04C75.82 193.04 82.05 191.94 87.57 189.74C93.09 187.54 97.9 184.59 101.99 180.88C106.08 177.17 109.49 173 112.21 168.35C114.93 163.71 116.96 158.9 118.31 153.92C119.66 148.95 120.33 144.18 120.33 139.62C120.33 135.06 119.64 130.62 118.27 126.8C116.9 122.98 114.84 119.93 112.09 117.65C109.34 115.37 105.93 114.23 101.87 114.23C93.74 114.23 83.93 119.26 72.44 129.31C70.41 131.07 68.12 132.97 65.6 135C59.44 139.84 54.2 142.25 49.85 142.25C47.32 142.25 45.03 141.3 42.97 139.41C40.91 137.51 39.88 135.11 39.88 132.2C39.88 127.53 42.65 121.62 48.21 114.48C51.67 110.08 56.34 104.84 62.22 98.74C65.19 95.66 68.21 92.41 71.29 88.97C74.37 85.54 77.22 81.95 79.86 78.21C85.68 69.75 88.6 61.64 88.6 53.89C88.54 40.65 78.93 34.02 59.75 34.02C52.93 34.08 47.69 35.68 44 38.84C40.32 42 37.79 46.53 36.42 52.44C35.05 58.35 34.36 65.45 34.36 73.75V170.61C34.36 175.83 35.1 179.95 36.59 182.98C38.07 186 40.08 188.24 42.61 189.7C45.14 191.16 48.01 192.09 51.22 192.5C54.43 192.91 57.75 193.12 61.15 193.12V193.12Z" fill="white"/>
</g>
<defs>
<clipPath id="clip0_319_743">
<rect width="145" height="250" fill="white" transform="translate(0.400024)"/>
</clipPath>
</defs>
</svg>
