<svg width="107" height="250" viewBox="0 0 107 250" fill="none" xmlns="http://www.w3.org/2000/svg">
<g id="Type=07" clip-path="url(#clip0_319_742)">
<path id="Vector" d="M59.7275 99.9224C60.3075 100.172 61.2875 100.432 62.4375 100.692C68.0175 101.932 73.7875 102.202 79.4775 101.622C81.2775 101.432 82.9675 101.292 84.6475 101.202C87.2375 101.032 89.8475 101.162 92.4075 101.602C96.8275 102.442 99.9675 105.252 102.177 109.102C105.027 114.032 106.387 119.682 106.097 125.372C105.787 132.302 105.067 139.232 104.077 146.092C101.967 160.732 97.6375 174.972 91.2275 188.302C90.1975 190.572 88.9975 192.772 87.6375 194.862C85.3675 198.182 82.6575 198.712 79.1875 196.652C75.4775 194.452 72.7875 191.142 70.1875 187.782C68.1275 185.122 66.1975 182.352 64.0375 179.772C61.0475 176.202 52.6675 175.002 49.2775 178.262C47.1475 180.422 45.1975 182.762 43.4475 185.242C41.4375 187.942 39.7875 190.902 37.7075 193.552C32.0875 200.722 24.5975 204.482 15.5375 204.812C9.89749 205.022 6.93749 201.942 6.68749 196.272C6.48749 191.942 7.57749 187.852 9.25749 183.932C11.0975 179.642 13.1475 175.452 15.1075 171.212C17.6775 165.662 18.9475 159.772 17.9275 153.772C16.5575 145.742 14.4975 137.852 10.1275 130.792C8.75749 128.582 7.25749 126.422 6.11749 124.092C2.85749 117.482 1.62749 110.662 5.13749 103.762C6.29749 101.442 7.81749 99.3224 9.64749 97.4824C12.4275 94.7424 13.3975 91.8624 13.0775 87.8724C12.4075 79.3624 9.34749 71.8624 4.89749 64.7924C3.02749 61.8324 1.45749 58.7524 0.697486 55.3124C-0.222514 51.1524 1.01749 47.6224 4.05749 45.4624C6.49749 43.7324 9.24749 43.8424 11.8975 44.4324C16.3275 45.4224 20.7775 46.3824 24.7875 48.7924C26.9575 50.0324 29.2275 51.0824 31.5775 51.9224C33.3975 52.6124 35.2875 53.1224 37.2075 53.4424C42.4275 54.3324 46.7775 53.0424 50.0175 48.4624C51.8075 46.0024 53.8375 43.7224 56.0775 41.6624C57.8075 40.0124 59.7575 38.6224 61.8775 37.5224C66.6375 35.1124 71.3175 36.2824 74.7175 40.4124C77.6775 44.0024 78.7275 48.3524 79.2475 52.7924C80.1775 60.7724 81.1375 68.7424 83.1475 76.5524C83.3775 77.6124 83.5475 78.6924 83.6475 79.7724C84.5675 86.8824 80.2475 92.2424 73.0675 92.4824C70.0675 92.5824 67.0375 91.9624 64.0375 91.5224C61.7275 91.1824 59.7175 91.3624 58.2575 93.4524C56.4175 96.0724 56.7975 98.6724 59.7275 99.9124V99.9224ZM41.4775 71.4824C39.1375 71.2124 37.7375 71.7424 36.8575 73.1424C35.4175 75.4224 34.0275 77.7424 32.7475 80.1224C30.6075 84.1324 28.5875 88.2024 26.4875 92.2324C25.3375 94.4424 24.0575 96.5824 22.9575 98.8224C22.3575 99.9724 21.9475 101.212 21.7475 102.502C21.6475 103.422 21.9275 104.342 22.5275 105.042C22.9275 105.422 29.6275 103.492 32.3175 102.492C49.0075 95.8924 47.0675 79.5924 47.0675 77.0624C46.7975 73.7724 46.3175 72.8324 43.9675 72.0324C43.1475 71.7824 42.3175 71.6024 41.4675 71.4924L41.4775 71.4824ZM33.2775 117.532C34.0775 119.832 34.5275 121.822 35.4175 123.602C39.5175 131.742 43.6675 139.852 47.9575 147.902C49.0175 149.892 50.5875 151.612 52.0175 153.382C54.7275 156.752 64.4475 159.102 68.6175 159.272C74.5875 159.512 80.3475 154.262 78.3575 147.492C77.2975 143.832 68.8175 138.302 67.3675 136.002C62.9075 128.912 67.3675 121.002 48.8075 119.612C43.3975 119.202 37.9675 118.292 35.7475 117.702C34.9275 117.582 34.1075 117.522 33.2875 117.522L33.2775 117.532Z" fill="white"/>
</g>
<defs>
<clipPath id="clip0_319_742">
<rect width="106" height="250" fill="white" transform="translate(0.400024)"/>
</clipPath>
</defs>
</svg>
