<svg width="129" height="250" viewBox="0 0 129 250" fill="none" xmlns="http://www.w3.org/2000/svg">
<g id="Type=08">
<path id="Vector" d="M128 152.671C128 162.727 125.609 171.446 120.901 178.599C117.044 184.457 111.722 189.124 105.101 192.487C98.2718 195.88 90.7982 197.749 83.179 197.969H39.3766V198H19.8765V197.969H1.00012V178.379H19.8765V123.173H1.00012V103.583H19.8765V71.6518H1.00012V52.0627H19.8765V52H39.3766V52.0627H69.2608C75.9341 52.2193 82.5242 53.6394 88.6777 56.2499C102.492 62.2645 110.101 73.8655 110.101 88.9229C110.101 96.7753 107.793 103.615 103.417 109.086C103.771 109.264 104.134 109.452 104.488 109.64C111.161 113.138 116.784 118.348 120.786 124.749C125.578 132.445 128 141.832 128 152.661V152.671ZM39.3766 103.594H70.6017C70.8823 103.594 76.7344 103.458 82.1812 101.109C88.0852 98.5609 90.6007 94.9166 90.6007 88.9333C90.6007 81.8223 87.7422 77.3427 81.3392 74.419C75.6326 71.8085 69.5103 71.6727 69.2192 71.6623H39.3766V103.594V103.594ZM108.51 152.671C108.51 140.35 104.363 132.017 95.8499 127.214C89.0727 123.392 81.8797 123.183 81.5159 123.173H39.3766V178.379H83.1375C83.5013 178.379 90.372 178.171 96.8166 174.735C104.685 170.548 108.51 163.333 108.51 152.661V152.671Z" fill="white"/>
</g>
</svg>
