<svg width="134" height="250" viewBox="0 0 134 250" fill="none" xmlns="http://www.w3.org/2000/svg">
<g id="Type=09" clip-path="url(#clip0_319_744)">
<path id="Vector" d="M37.3484 69.1031C32.3684 69.1031 34.2184 69.0531 30.2584 69.1131C23.3384 69.2331 16.4284 69.4231 9.50837 69.5731C8.58837 69.5931 7.65837 69.5731 6.73837 69.5931C4.87837 69.6431 3.10837 68.9831 2.68837 67.3031C2.43837 66.3131 3.34837 64.7931 4.14837 63.8531C7.47837 59.9531 11.3184 56.4031 14.3284 52.2931C18.3484 46.8231 23.2484 44.7731 30.2584 44.8731C45.1484 45.0831 54.2484 44.4531 69.1484 44.0031C71.8584 43.9231 73.3584 45.3831 75.0584 46.8831C78.8084 50.1831 82.3784 53.7231 86.4184 56.6531C94.4784 62.5131 103.578 66.5031 113.078 69.6631C113.668 69.8131 114.258 69.9931 114.828 70.2131C118.088 71.6931 118.578 73.3931 116.238 76.0531C111.048 81.9531 95.2784 96.7531 92.2884 100.003C93.0484 100.683 93.8584 101.293 94.7184 101.843C100.898 105.173 107.238 108.243 113.268 111.803C118.018 114.523 122.518 117.643 126.718 121.153C133.018 126.563 134.518 133.563 131.358 141.113C129.878 144.723 127.868 148.093 125.398 151.123C113.368 165.503 66.1984 205.423 58.2384 214.583C53.2784 220.283 52.9784 220.173 47.5384 215.093C44.9884 212.713 42.4184 210.363 39.7484 208.113C30.4684 200.313 19.5684 197.003 7.39837 197.363C6.78837 197.363 6.16837 197.413 5.55837 197.483C3.60837 197.743 1.76837 197.533 0.738366 195.703C-0.341634 193.773 1.41837 192.673 2.45837 191.503C10.4784 182.453 18.3584 173.283 26.6784 164.503C30.7784 160.173 31.6684 155.753 29.3584 150.623C27.8284 147.223 25.9684 143.953 24.1184 140.703C22.1184 137.183 19.7084 133.853 17.9084 130.243C9.76837 113.893 12.2184 98.6831 23.6484 84.6431C26.8884 80.6731 30.4884 76.9731 33.9084 73.1431C34.8984 72.0331 35.8284 70.8931 37.3384 69.1031H37.3484ZM28.4984 172.623C30.7884 172.993 32.1284 173.243 33.4784 173.413C39.6484 174.213 45.6184 175.833 50.8184 179.113C55.8084 182.273 60.3684 186.083 65.0884 189.643C66.3584 190.603 67.5184 191.693 68.9284 192.903C78.0284 185.353 105.078 162.863 108.058 158.453C111.438 153.453 110.218 146.993 105.598 143.183C102.318 140.473 98.7984 138.053 95.0984 135.953C87.9384 131.893 80.5884 128.143 73.2984 124.283C72.1184 123.653 70.8784 123.123 69.6484 122.533C64.7484 126.743 59.9884 130.733 55.3884 134.893C53.4484 136.643 53.2484 140.203 52.4284 142.513C50.3284 148.453 45.7384 153.173 41.6584 157.913C37.5384 162.703 33.2284 167.343 28.4884 172.623H28.4984ZM86.5784 90.8131C83.2684 89.2431 80.3184 87.9731 77.4984 86.4731C74.5384 84.9031 71.6284 83.2031 68.8284 81.3731C66.1484 79.6331 63.5584 77.7631 61.0784 75.7631C58.5584 73.7231 54.8584 70.3831 52.5584 68.3231C51.9584 67.7931 46.6884 73.1431 46.1684 73.6331C42.7084 76.9231 38.0284 80.9531 36.7884 85.7431C35.6384 90.1931 35.9384 95.0731 36.7584 99.5531C38.6384 109.823 45.0584 117.833 50.5184 126.313L86.5784 90.8131Z" fill="white"/>
</g>
<defs>
<clipPath id="clip0_319_744">
<rect width="133" height="250" fill="white" transform="translate(0.400024)"/>
</clipPath>
</defs>
</svg>
