<svg width="159" height="250" viewBox="0 0 159 250" fill="none" xmlns="http://www.w3.org/2000/svg">
<g id="Type=10" clip-path="url(#clip0_319_749)">
<path id="Vector" d="M0.400024 198V152.583C17.1309 152.583 17.3636 151.886 17.3636 138.913V110.879C17.3636 97.906 17.1309 97.2097 0.400024 97.2097V52H90.558C140.052 52 155.852 60.8074 155.852 89.0741C155.852 117.341 141.216 120.126 114.956 120.59V129.166C143.065 129.63 158.4 132.647 158.4 159.753C158.4 188.716 141.902 197.988 92.4075 197.988H0.400024V198ZM64.9963 97.1975V119.906H90.7907C102.181 119.906 106.823 118.978 106.823 109.242C106.823 99.5062 101.251 97.1852 88.929 97.1852H64.9963V97.1975ZM64.9963 129.642V152.583H90.0926C102.867 152.583 108.685 150.726 108.685 140.526C108.685 131.486 103.112 129.63 90.7907 129.63H64.9963V129.642Z" fill="white"/>
</g>
<defs>
<clipPath id="clip0_319_749">
<rect width="158" height="250" fill="white" transform="translate(0.400024)"/>
</clipPath>
</defs>
</svg>
