<svg width="35" height="250" viewBox="0 0 35 250" fill="none" xmlns="http://www.w3.org/2000/svg">
<g id="Type=06" clip-path="url(#clip0_319_766)">
<path id="Vector" d="M34.2674 183.812C33.2774 188.282 31.0874 192.402 27.9274 195.732C24.9374 198.922 21.1874 200.372 16.7674 200.602C14.5774 200.042 12.2974 199.692 10.2274 198.852C8.81743 198.282 7.61743 197.312 6.76743 196.052C4.59743 192.562 2.67743 188.912 0.797426 185.252C-0.262574 183.332 -0.562566 181.072 -0.0225658 178.942C0.757434 175.992 2.40743 173.812 5.39743 172.982C8.51743 172.042 11.4574 170.612 14.1274 168.752C19.9774 164.872 24.7674 164.952 30.8774 171.212C34.3274 174.742 35.3674 178.992 34.2674 183.822V183.812Z" fill="white"/>
</g>
<defs>
<clipPath id="clip0_319_766">
<rect width="35" height="250" fill="white"/>
</clipPath>
</defs>
</svg>
