<svg width="181" height="250" viewBox="0 0 181 250" fill="none" xmlns="http://www.w3.org/2000/svg">
<g id="Type=01" clip-path="url(#clip0_319_820)">
<path id="Vector" d="M181.4 135.6V197.2H150.2V140.4C150.2 123 142.4 115 129.8 115C115.8 115 106 124 106 143.2V197.2H74.8001V140.4C74.8001 123 67.4001 115 54.4001 115C40.6001 115 30.8001 124 30.8001 143.2V197.2H-0.399902V89.6H29.4001V102C37.4001 92.8 49.4001 88 63.2001 88C78.2001 88 91.0001 93.8 98.6001 105.6C107.2 94.6 121.2 88 137.4 88C163 88 181.4 102.8 181.4 135.6Z" fill="white"/>
</g>
<defs>
<clipPath id="clip0_319_820">
<rect width="181" height="250" fill="white"/>
</clipPath>
</defs>
</svg>
