<svg width="184" height="250" viewBox="0 0 184 250" fill="none" xmlns="http://www.w3.org/2000/svg">
<g id="Type=02" clip-path="url(#clip0_319_823)">
<path id="Vector" d="M61.3798 85.59C67.7298 81.2 74.6698 79 82.1998 79C98.9398 79 108.15 87.44 109.82 104.32C114.42 96.23 120.18 89.98 127.08 85.59C133.98 81.2 141.76 79 150.41 79C159.06 79 165.37 81.44 170.19 86.32C175 91.21 177.41 99.09 177.41 109.97C177.41 114.02 175.74 126.08 172.39 146.17C172.11 147.84 171.83 149.24 171.55 150.35C169.18 163.74 167.99 172.6 167.99 176.93C167.99 179.16 168.34 180.66 169.04 181.43C169.74 182.2 170.71 182.58 171.97 182.58C173.09 182.58 174.3 182.27 175.63 181.64C176.95 181.01 178.8 179.79 181.18 177.98L184.11 185.1C181.74 188.31 178.01 191.59 172.91 194.94C167.82 198.29 161.36 199.96 153.55 199.96C145.74 199.96 140.05 198.35 137.33 195.15C134.61 191.95 133.25 187.83 133.25 182.8C133.25 178.48 134.85 168.43 138.06 152.67C141.13 135.23 142.66 122.61 142.66 114.79C142.66 108.65 142.03 104.5 140.78 102.34C139.52 100.18 137.36 99.1 134.29 99.1C130.24 99.1 125.95 101.09 121.42 105.06C116.88 109.04 113.01 114.16 109.81 120.44C109.39 127.97 108.55 136.55 107.3 146.18L101.23 197.87H67.5398L73.3998 152.67C75.4898 137.46 76.5398 125.19 76.5398 115.84C76.5398 109.01 75.8398 104.51 74.4498 102.34C73.0498 100.18 70.5398 99.1 66.9198 99.1C63.2998 99.1 59.0998 101.33 54.3598 105.8C49.6098 110.27 45.6398 115.71 42.4298 122.12L31.9698 197.88H-0.470215L12.9198 99.31L2.03979 93.45L3.70984 84.45L41.1698 79.01L46.6098 81.52L44.9398 103.28C49.5398 95.89 55.0198 89.99 61.3698 85.6L61.3798 85.59Z" fill="white"/>
</g>
<defs>
<clipPath id="clip0_319_823">
<rect width="184" height="250" fill="white"/>
</clipPath>
</defs>
</svg>
