<svg width="172" height="250" viewBox="0 0 172 250" fill="none" xmlns="http://www.w3.org/2000/svg">
<g id="Type=03" clip-path="url(#clip0_319_821)">
<path id="Vector" d="M-0.290039 85.0899H29.2999L21.96 114.19L29.2999 116.88V197.59H-0.290039V85.0899ZM71.1199 129.11C71.1199 121.77 69.3699 115.99 65.8599 111.74C62.3499 107.5 57.4199 105.38 51.0599 105.38C44.3699 105.38 39.0799 107.58 35.1599 111.98C31.2499 116.38 29.2899 122.25 29.2899 129.59H24.89C24.89 114.59 28.2299 102.57 34.9199 93.5199C41.5999 84.4699 50.5699 79.9499 61.8199 79.9499C69.9699 79.9499 77.23 83.4599 83.59 90.4699C89.95 97.4799 93.1299 105.63 93.1299 114.93V116.15L100.96 118.35V197.59H71.1199V129.12V129.11ZM142.54 129.11C142.54 121.77 140.74 115.99 137.16 111.74C133.57 107.5 128.27 105.38 121.26 105.38C114.9 105.38 109.93 107.58 106.34 111.98C102.75 116.38 100.96 122.25 100.96 129.59H96.3099C96.3099 114.43 99.81 102.36 106.83 93.3899C113.84 84.4299 123.46 79.9399 135.69 79.9399C146.61 79.9399 155.46 84.3399 162.23 93.1499C168.99 101.95 172.38 113.04 172.38 126.41V197.58H142.54V129.12V129.11Z" fill="white"/>
</g>
<defs>
<clipPath id="clip0_319_821">
<rect width="172" height="250" fill="white"/>
</clipPath>
</defs>
</svg>
