<svg width="185" height="250" viewBox="0 0 185 250" fill="none" xmlns="http://www.w3.org/2000/svg">
<g id="Type=04" clip-path="url(#clip0_319_822)">
<path id="Vector" d="M0.0200195 101.71C9.51002 97.1201 17.74 88.5801 24.23 80.3501C31.35 87.4701 39.74 93.8001 47.96 99.6501L79.29 80.3501C86.88 87.1501 98.12 95.0601 107.14 99.1801L137.68 80.3501C144.8 88.4201 160.15 100.13 171.54 100.13C175.18 100.13 178.5 99.5001 181.03 98.7101L185.3 97.2901C182.61 106.78 174.7 115.01 165.52 118.02V174.98C165.52 185.9 169.63 194.12 177.7 194.12C179.12 194.12 180.39 193.96 181.66 193.49C176.6 200.93 150.33 199.03 147.8 213.27C138.94 191.59 133.24 194.92 133.24 174.98V108.04C127.07 105.19 121.53 99.0201 119.79 96.4901L107.13 104.08V174.96C107.13 185.88 111.09 194.1 119.15 194.1C120.57 194.1 121.84 193.94 123.11 193.47C118.05 200.59 91.94 199.17 89.41 213.25C80.55 191.57 74.85 194.9 74.85 174.96V108.04C68.84 105.03 63.46 99.5001 61.72 96.8101L47.32 104.88V174.18C47.79 184.78 52.54 193.8 59.34 193.8C60.45 193.8 61.71 193.48 63.45 192.69C58.39 199.97 31.33 198.39 28.8 212.47C19.94 190.95 15.35 194.91 15.35 174.97V110.25C11.08 105.98 6.33 101.71 0 101.71H0.0200195Z" fill="white"/>
</g>
<defs>
<clipPath id="clip0_319_822">
<rect width="185" height="250" fill="white"/>
</clipPath>
</defs>
</svg>
