<svg width="185" height="250" viewBox="0 0 185 250" fill="none" xmlns="http://www.w3.org/2000/svg">
<g id="Type=05" clip-path="url(#clip0_319_818)">
<path id="Vector" d="M-0.0100098 95.7399H44.8V129.55C46.43 124.39 48.6 119.6 51.32 115.19C54.03 110.78 57.13 106.98 60.59 103.78C64.05 100.59 67.82 98.1099 71.9 96.3399C75.97 94.5799 80.18 93.6899 84.53 93.6899C90.23 93.6899 94.99 94.6099 98.79 96.4399C102.59 98.2699 105.68 100.82 108.06 104.08C110.43 107.34 112.13 111.14 113.15 115.49C114.17 119.84 114.74 124.52 114.88 129.55C116.51 124.25 118.65 119.43 121.3 115.09C123.95 110.75 127 106.98 130.47 103.78C133.93 100.59 137.73 98.1099 141.88 96.3399C146.02 94.5799 150.26 93.6899 154.61 93.6899C160.58 93.6899 165.51 94.7099 169.38 96.7499C173.25 98.7899 176.34 101.54 178.65 105C180.96 108.46 182.59 112.54 183.54 117.22C184.49 121.91 184.97 126.97 184.97 132.4V197.59H126.1C129.36 191.89 132.07 185.91 134.25 179.66C136.42 173.41 138.05 167.34 139.14 161.43C140.22 155.52 140.87 150.02 141.08 144.93C141.28 139.84 140.98 135.66 140.16 132.4C139.48 129.28 138.12 126.87 136.09 125.17C134.05 123.47 131.81 122.62 129.37 122.62C126.38 122.62 123.49 124.08 120.71 127C117.92 129.92 115.99 134.64 114.9 141.16V197.59H56.03C59.29 191.89 62 185.91 64.18 179.66C66.35 173.41 67.98 167.34 69.07 161.43C70.15 155.52 70.8 150.02 71.01 144.93C71.21 139.84 70.91 135.66 70.09 132.4C69.41 129.28 68.05 126.87 66.02 125.17C63.98 123.47 61.74 122.62 59.3 122.62C56.31 122.62 53.42 124.08 50.64 127C47.85 129.92 45.92 134.64 44.83 141.16V197.59H0.0200195V95.7399H-0.0100098Z" fill="white"/>
</g>
<defs>
<clipPath id="clip0_319_818">
<rect width="185" height="250" fill="white"/>
</clipPath>
</defs>
</svg>
