<svg width="165" height="250" viewBox="0 0 165 250" fill="none" xmlns="http://www.w3.org/2000/svg">
<g id="Type=06" clip-path="url(#clip0_319_815)">
<path id="Vector" d="M40.5301 143.93V196.83H0.300049V92.24H40.5301V110.34L57.8301 92.24C80.5601 92.24 94.0401 98.07 99.2701 110.75L117.98 92.24H120.39C150.76 92.24 165.24 103.3 165.24 126.23V132.47H134.26L165.24 145.75V196.84H125.01V151.58C125.01 138.71 121.39 132.47 113.95 132.47C106.11 132.47 101.88 139.31 101.88 151.58V196.84H61.6501V143.94C61.6501 137.3 57.4301 132.48 51.5901 132.48C45.7501 132.48 40.5301 137.71 40.5301 143.94V143.93Z" fill="white"/>
</g>
<defs>
<clipPath id="clip0_319_815">
<rect width="165" height="250" fill="white"/>
</clipPath>
</defs>
</svg>
