<svg width="157" height="250" viewBox="0 0 157 250" fill="none" xmlns="http://www.w3.org/2000/svg">
<g id="Type=07">
<path id="Vector" d="M32.8936 197.935C26.6214 197.457 21.5884 195.504 17.7947 192.075C14.001 188.646 11.2834 183.937 9.64197 177.947C8.00055 171.958 7.17438 164.937 7.17438 156.886V101.882C7.17438 99.9178 6.78304 98.3444 6.01125 97.1834C5.23946 96.0223 4.04374 95.4363 2.42406 95.4363C1.65227 95.4363 1.05444 95.1542 0.630497 94.59C0.217425 94.0257 0 93.4181 0 92.7562C0 92.0942 0.206555 91.4866 0.630497 90.9223C1.04357 90.3581 1.6414 90.076 2.42406 90.076H41.492C42.329 90.076 42.9377 90.3581 43.3291 90.9223C43.7204 91.4866 43.916 92.1051 43.916 92.7562C43.916 93.4072 43.7204 94.0257 43.3291 94.59C42.9377 95.1542 42.329 95.4363 41.492 95.4363C39.8832 95.4363 38.6875 96.0223 37.9048 97.1834C37.133 98.3444 36.7417 99.907 36.7417 101.882V174.334C36.7417 178.75 37.22 181.941 38.1766 183.905C39.1331 185.869 40.2419 186.856 41.492 186.856C42.9269 186.856 44.3618 185.749 45.7967 183.546C47.949 180.085 49.0251 174.779 49.0251 167.628C49.0251 163.57 48.5794 158.123 47.6772 151.265C46.7858 144.049 46.3293 138.146 46.3293 133.556C46.3293 127.241 47.0576 120.925 48.5251 114.643C49.9926 108.349 52.6014 102.989 56.3626 98.5397C60.1237 94.1017 65.3523 91.3347 72.0484 90.2713C73.1789 90.0868 74.2551 90 75.277 90C79.2229 90 82.6579 90.9549 85.582 92.8647C88.5061 94.7744 90.9846 97.3027 93.0173 100.471C95.0501 103.629 96.6915 107.155 97.9415 111.029C100.029 104.649 103.29 99.5706 107.714 95.7836C112.138 91.9966 117.475 90.1085 123.748 90.1085C128.705 90.1085 132.857 91.5517 136.205 94.4489C139.553 97.3461 142.238 101.057 144.271 105.582C146.304 110.118 147.749 114.99 148.619 120.209C149.489 125.429 149.913 130.366 149.913 135.01C149.913 137.158 149.858 139.448 149.739 141.9C149.554 145.177 149.467 149.051 149.467 153.533C149.467 157.526 149.663 161.497 150.054 165.425C150.445 169.364 151.174 172.847 152.25 175.886C153.326 178.924 154.902 181.159 157 182.592C155.511 187.843 153.206 191.696 150.097 194.17C146.988 196.644 143.738 197.881 140.336 197.881C136.933 197.881 133.911 196.73 131.107 194.441C128.302 192.14 126.444 188.853 125.552 184.556C125.248 183.004 125.106 181.42 125.106 179.814C125.106 175.159 125.998 170.449 127.791 165.686C129.585 160.911 131.64 156.072 133.977 151.156C136.303 146.241 138.379 141.293 140.205 136.312C142.032 131.331 142.934 126.394 142.934 121.511C142.934 118.289 142.39 115.098 141.325 111.941C140.195 109.076 138.477 106.906 136.173 105.408C133.868 103.922 131.259 103.173 128.335 103.173C124.628 103.173 120.824 104.454 116.91 107.014C112.997 109.575 109.605 113.525 106.736 118.864C103.866 124.202 102.072 131.017 101.355 139.307L101.268 142.258C101.083 145.601 100.996 149.322 100.996 153.435C100.996 157.309 101.181 161.237 101.54 165.197C101.898 169.169 102.627 172.685 103.735 175.755C104.844 178.826 106.442 181.105 108.529 182.602C107.04 187.854 104.736 191.706 101.627 194.18C98.5177 196.654 95.2675 197.892 91.8542 197.892C88.4409 197.892 85.4298 196.741 82.6253 194.452C79.8208 192.151 77.9619 188.863 77.0705 184.566C76.7662 183.015 76.6249 181.431 76.6249 179.825C76.6249 175.169 77.5162 170.46 79.3098 165.697C81.1034 160.922 83.1579 156.083 85.495 151.167C87.8213 146.252 89.8975 141.304 91.7238 136.323C93.55 131.342 94.4522 126.405 94.4522 121.522C94.4522 118.299 93.9195 115.109 92.8434 111.952C91.7128 109.087 89.9953 106.917 87.6908 105.419C85.3863 103.933 82.7774 103.184 79.8533 103.184C76.9292 103.184 73.7877 104.019 70.6244 105.691C67.4612 107.362 64.5153 109.912 61.7977 113.34C59.0802 116.769 56.8844 121.142 55.2103 126.449C53.5363 131.755 52.6993 138.048 52.6993 145.318C52.7536 149.431 52.9819 153.337 53.3732 157.037C53.7646 160.738 53.9603 164.46 53.9603 168.214C53.9603 170.959 53.7537 173.759 53.3298 176.624C52.3732 182.711 50.0904 187.789 46.4706 191.869C42.8508 195.949 38.3288 198 32.8936 198V197.935Z" fill="white"/>
</g>
</svg>
