<svg width="142" height="250" viewBox="0 0 142 250" fill="none" xmlns="http://www.w3.org/2000/svg">
<g id="Type=08" clip-path="url(#clip0_319_817)">
<path id="Vector" d="M19.4075 114.892C18.0975 115.862 16.8975 116.802 15.6575 117.662C14.5175 118.492 13.3275 119.252 12.0875 119.922C6.98749 122.512 2.90748 120.932 0.887482 115.572C-0.492518 111.912 0.0274816 108.312 1.38748 104.762C4.08748 97.7324 8.40746 91.9624 15.0575 88.3124C21.1375 84.9724 27.4275 82.0124 33.6675 78.9824C35.0775 78.4024 36.5275 77.9624 38.0175 77.6624C40.8475 76.9124 43.6775 76.2024 46.5175 75.4924C47.6575 75.1524 48.8275 74.9024 50.0075 74.7224C53.3775 74.3724 55.1875 76.0624 55.0575 79.4224C54.9675 80.6124 54.7875 81.7924 54.5175 82.9524C54.0575 85.2924 53.4775 87.6124 53.0675 89.9624C52.6175 92.2324 53.0275 94.5824 54.2075 96.5624C55.5975 98.8624 57.4975 99.3224 59.6675 97.5924C61.2575 96.2824 62.6675 94.7724 63.8775 93.1024C66.0075 90.2224 67.8575 87.1424 69.9475 84.2324C74.9275 77.3124 81.3675 72.4424 89.7175 70.1924C95.6075 68.6024 101.448 68.6724 106.918 71.2824C123.658 79.2724 135.377 91.6524 139.887 110.082C141.477 116.572 141.057 123.012 139.247 129.392C138.007 133.772 136.577 138.062 134.147 141.992C132.417 144.882 130.857 147.862 129.457 150.922C126.827 156.522 127.957 161.772 131.567 166.492C133.877 169.502 136.568 172.212 139.038 175.112C140.908 177.302 142.207 179.782 142.367 182.732C142.417 183.492 142.417 184.252 142.367 185.012C141.987 189.982 139.397 191.802 134.717 190.332C132.958 189.782 131.227 189.142 129.527 188.412C126.497 187.122 123.718 187.582 121.358 189.732C119.198 191.692 117.237 193.882 115.267 196.042C114.397 197.002 113.767 198.172 112.947 199.182C109.787 203.062 105.148 203.802 101.108 200.852C99.0275 199.282 97.1075 197.512 95.3875 195.562C93.4975 193.492 92.7675 190.872 92.6475 188.062C92.4275 182.992 93.5175 178.102 94.9975 173.342C97.2475 166.092 99.8375 158.942 102.217 151.732C104.327 145.342 106.357 138.922 106.527 132.092C106.667 126.482 105.897 121.022 103.658 115.862C100.857 109.402 96.5675 104.402 89.3675 102.712C85.2075 101.652 80.7875 102.292 77.0875 104.472C72.8075 106.962 72.3075 110.752 76.0475 113.992C78.1475 115.812 80.7075 117.142 83.1375 118.542C85.3875 119.842 87.8475 120.802 90.0475 122.182C94.2175 124.802 95.0675 127.872 92.6475 132.142C90.9875 134.942 89.1375 137.622 87.0975 140.162C84.9675 142.902 82.7175 145.562 80.3375 148.102C73.7675 155.112 74.1575 162.962 77.4775 171.132C78.4575 173.532 80.0575 175.682 81.0275 178.082C81.8975 180.262 82.6875 182.612 82.7875 184.922C83.0475 190.412 77.7875 195.862 72.2975 196.322C69.5375 196.552 67.2575 195.602 65.8375 193.362C64.2875 191.012 63.0275 188.492 62.0775 185.842C58.3775 174.972 57.9975 163.252 60.9675 152.162C62.2675 147.112 63.2875 141.982 63.0975 136.722C62.9275 128.822 59.8975 121.242 54.5675 115.402C52.6575 113.332 50.3675 111.652 47.8275 110.442C44.0075 108.602 39.9275 111.392 39.8875 115.662C39.9475 118.372 40.1475 121.082 40.4875 123.772C41.4275 134.042 40.0975 144.132 38.3075 154.212C37.7675 157.642 37.4175 161.092 37.2475 164.552C36.9675 168.632 38.6575 171.922 41.6275 174.642C44.0275 176.842 46.4875 178.992 48.7375 181.342C50.2675 182.882 51.5775 184.622 52.6575 186.512C55.5075 191.772 53.4675 196.462 47.7475 198.282C43.8375 199.532 39.8175 199.512 35.8075 199.292C32.3475 199.102 28.8975 198.662 25.4475 198.232C18.9075 197.402 14.2875 194.292 11.7475 187.832C9.97747 183.332 8.0675 179.022 8.6575 174.062C8.7875 172.222 9.07749 170.392 9.51749 168.602C11.5875 161.632 13.6875 154.692 16.7775 148.062C18.9475 143.212 20.8675 138.252 22.5375 133.212C24.0175 128.942 24.0675 124.462 23.5975 120.002C23.2875 117.022 22.8175 116.472 19.4475 114.862L19.4075 114.892Z" fill="white"/>
</g>
<defs>
<clipPath id="clip0_319_817">
<rect width="142" height="250" fill="white"/>
</clipPath>
</defs>
</svg>
