<svg width="145" height="250" viewBox="0 0 145 250" fill="none" xmlns="http://www.w3.org/2000/svg">
<g id="Type=09" clip-path="url(#clip0_319_813)">
<path id="Vector" d="M143.94 163.11C140.82 180.37 133.15 196.23 122.33 207.75L108.65 194.92C127.49 174.84 130.57 142.6 122.63 124.24C118.1 113.77 110.65 108.46 100.51 108.46C94.76 108.46 89.58 109.58 84.98 111.81C85.96 113.16 86.9201 114.57 87.84 116.04C96.3801 129.66 101.49 147.4 101.49 163.48C101.49 173.45 99.49 182.12 95.71 188.58C90.8 196.95 82.98 201.56 73.69 201.56C63.92 201.56 55.54 196.03 50.08 186C45.84 178.2 43.51 167.72 43.51 156.51C43.51 140.41 48.24 124.39 56.5 112.58C56.77 112.2 57.03 111.82 57.3 111.45C53.68 109.5 49.64 108.47 45.52 108.46C34.44 108.46 26.63 114.29 22.32 125.79C15.01 145.27 20.14 177.43 39.42 194.28L27.08 208.4C15.52 198.3 6.93003 183.26 2.88003 166.03C-0.959974 149.68 -0.279969 132.6 4.76003 119.19C11.8 100.44 26.65 89.6899 45.52 89.6899C54.75 89.6899 63.48 92.5699 71.25 98.0299C79.65 92.5299 89.52 89.6899 100.51 89.6899C109.75 89.6899 117.99 92.2999 124.99 97.4599C131.31 102.11 136.3 108.61 139.84 116.78C145.52 129.89 146.97 146.34 143.94 163.11ZM79.52 179.09C81.59 175.56 82.72 170.02 82.72 163.48C82.72 150.99 78.54 135.82 71.02 124.57C65.44 133.19 62.26 144.73 62.26 156.5C62.26 171 67.38 182.8 73.68 182.8C75.58 182.8 77.61 182.35 79.52 179.09Z" fill="white"/>
</g>
<defs>
<clipPath id="clip0_319_813">
<rect width="145" height="250" fill="white"/>
</clipPath>
</defs>
</svg>
