<svg width="145" height="250" viewBox="0 0 145 250" fill="none" xmlns="http://www.w3.org/2000/svg">
<g id="Type=10">
<path id="Vector" d="M144.933 184.68C144.983 187.73 144.283 190.08 142.213 192.31C138.743 196.05 135.553 200.08 132.223 203.96C131.453 204.86 130.723 206.1 129.283 205.57C127.853 205.05 127.403 203.79 127.413 202.31C127.413 201.45 127.383 200.58 127.373 199.72C127.003 170.74 126.553 141.76 126.403 112.78C126.383 109.47 125.433 107.29 123.393 105.04C119.313 100.53 110.583 90.04 109.603 88.74C106.603 91.59 104.403 92.93 102.693 95.39C101.963 96.45 102.003 98.2 101.983 99.64C101.833 119.49 101.673 139.35 101.523 159.2C101.463 167.34 101.303 177.39 101.303 185.53C101.303 187.88 100.733 189.76 99.1432 191.53C95.5632 195.51 92.1831 199.69 88.6931 203.75C87.8631 204.72 87.1431 206.17 85.4931 205.49C83.9031 204.83 83.7032 203.38 83.7132 201.8C83.8432 187.74 83.9531 171.77 84.0732 157.71C84.1932 143.28 84.2632 128.85 84.4732 114.43C84.5032 112.12 83.8931 110.56 82.1231 109.07C76.3731 104.23 70.7732 99.2 65.1032 94.25C64.3032 93.55 63.4332 92.92 62.3432 92.06L40.0932 118.75C41.6332 120.91 42.9132 122.98 44.4532 124.83C47.1032 128.01 49.9332 131.03 52.6632 134.15C57.4132 139.59 61.6831 145.39 64.5631 152.11C65.8731 155.16 66.9331 158.3 67.7431 161.52C69.5931 168.9 68.4132 175.88 63.7032 181.77C57.9132 188.99 39.9031 203.28 36.8231 205.81C33.6431 202.32 13.6032 187 5.77316 181.28C4.74316 180.52 3.39313 180.21 2.18313 179.72C-0.166867 178.76 -0.666826 177.48 0.913174 175.57C4.86317 170.77 8.95315 166.09 12.9532 161.34C14.1432 159.93 15.5732 159.64 17.1632 160.3C18.4132 160.75 19.5832 161.38 20.6432 162.18C25.8632 166.51 31.1131 170.8 36.2431 175.23C40.1331 178.64 43.7031 182.41 46.8831 186.49C46.8831 186.49 52.1732 182.22 48.2032 170.51C46.2532 165.65 43.6132 161.11 40.3632 157.01C37.5832 153.46 34.4932 150.18 31.6132 146.71C29.2032 143.81 26.7432 140.93 24.5532 137.85C19.5432 130.81 18.6031 122.98 20.7431 114.65C22.5931 107.47 26.1031 101.23 30.7631 95.63C32.1331 93.98 33.5032 92.32 35.3032 90.13C33.5632 90.03 32.5432 89.9 31.5232 89.92C24.4532 90.04 17.3831 90.19 10.3131 90.33C9.48314 90.41 8.63314 90.39 7.81314 90.26C5.83314 89.77 5.07319 87.95 6.36319 86.38C10.5532 81.3 14.8132 76.29 19.1532 71.35C19.7032 70.73 20.8532 70.41 21.7232 70.4C32.3832 70.26 43.0532 70.18 53.7232 70.13C55.0432 70.13 56.3632 70.24 57.6632 70.46C59.1632 70.72 59.6732 71.79 58.9532 73.12C58.5032 73.84 57.9731 74.52 57.3831 75.14C49.1831 84.83 39.3532 92.8 37.3632 106.13C37.0732 108.09 37.5332 110.16 37.6532 112.19L38.4331 112.44L74.1532 70.05C82.5332 77.34 90.1432 83.9 98.8332 91.46C99.5432 90.37 118.863 72.36 122.563 70C123.043 70.42 124.663 72.11 125.583 73.16C131.183 79.59 136.693 83.89 142.303 90.3C143.763 91.97 143.903 99.62 143.923 101.47C144.233 129.22 144.513 156.96 144.923 184.71L144.933 184.68Z" fill="white"/>
</g>
</svg>
