<svg width="190" height="250" viewBox="0 0 190 250" fill="none" xmlns="http://www.w3.org/2000/svg">
<g id="Type=11">
<path id="Vector" d="M59.1705 196.537H0.0593262V159.375C8.47589 159.375 10.0377 155.853 10.0377 147.638V141.775C10.0377 130.429 8.28066 126.917 0.0593262 126.917V89.9507H41.9469V126.722H47.6194C50.1682 95.8246 59.9514 88 81.0905 88C101.058 88 108.683 99.5419 109.073 126.722H114.355C116.709 95.8246 126.687 88 150.755 88C174.822 88 182.068 98.9566 181.872 124.761V147.638C181.872 155.853 183.239 159.375 189.898 159.375V196.537H133.336V159.375C140.581 159.375 142.338 155.853 142.338 147.638V141.58C142.338 130.038 138.813 127.307 129.616 127.307C121.785 127.307 115.332 130.244 115.332 140.215V147.649C115.332 155.864 116.503 159.386 123.162 159.386V196.548H66.6V159.386C74.0405 159.386 75.6023 155.864 75.6023 147.649V141.591C75.6023 130.049 72.2726 127.318 62.8798 127.318C55.049 127.318 48.5956 130.255 48.5956 140.226V147.66C48.5956 155.875 51.7301 159.397 59.1596 159.397V196.559L59.1705 196.537Z" fill="white"/>
</g>
</svg>
