<svg width="112" height="250" viewBox="0 0 112 250" fill="none" xmlns="http://www.w3.org/2000/svg">
<g id="Type=02" clip-path="url(#clip0_319_808)">
<path id="Vector" d="M100.58 90.65C108.46 99.09 112.4 111.47 112.4 127.8C112.4 141.06 109.68 153.19 104.24 164.21C98.8 175.23 91.12 183.95 81.22 190.37C71.31 196.79 59.8 200 46.69 200C31.34 200 19.76 195.71 11.95 187.13C4.14001 178.55 0.22998 166.1 0.22998 149.78C0.22998 136.53 2.95001 124.43 8.39001 113.47C13.83 102.52 21.5 93.87 31.41 87.52C41.32 81.17 52.76 78 65.73 78C81.07 78 92.69 82.22 100.57 90.66L100.58 90.65ZM47.11 101.53C43.2 107.74 40.38 115.52 38.64 124.86C36.89 134.21 36.16 143.63 36.44 153.11C36.86 165.25 38.22 173.9 40.52 179.06C42.82 184.22 46.48 186.8 51.51 186.8C59.74 186.8 65.84 181.08 69.82 169.64C73.8 158.2 75.78 144.81 75.78 129.46C75.78 115.65 74.7 105.99 72.54 100.48C70.37 94.97 66.85 92.21 61.97 92.21C55.97 92.21 51.02 95.32 47.11 101.52V101.53Z" fill="white"/>
</g>
<defs>
<clipPath id="clip0_319_808">
<rect width="112" height="250" fill="white"/>
</clipPath>
</defs>
</svg>
