<svg width="111" height="250" viewBox="0 0 111 250" fill="none" xmlns="http://www.w3.org/2000/svg">
<g id="Type=03" clip-path="url(#clip0_319_809)">
<path id="Vector" d="M-0.23999 140.86C-0.23999 121.46 4.76999 106.38 14.8 95.61C24.83 84.84 38.4 79.47 55.52 79.47C71.5 79.47 84.78 84.93 95.39 95.86C105.99 106.79 111.29 121.78 111.29 140.86C111.29 159.94 106.23 175.63 96.13 186.47C86.02 197.31 72.45 202.73 55.41 202.73C38.37 202.73 24.84 197.31 14.81 186.47C4.78 175.63 -0.22998 160.42 -0.22998 140.86H-0.23999ZM29.6 140.86C29.6 152.44 31.88 161.32 36.45 167.52C41.01 173.72 47.37 176.81 55.53 176.81C63.69 176.81 70.04 173.72 74.61 167.52C79.17 161.33 81.46 152.44 81.46 140.86C81.46 129.28 79.17 120.64 74.61 114.45C70.04 108.26 63.68 105.16 55.53 105.16C47.38 105.16 41.02 108.26 36.45 114.45C31.88 120.65 29.6 129.45 29.6 140.86Z" fill="white"/>
</g>
<defs>
<clipPath id="clip0_319_809">
<rect width="111" height="250" fill="white"/>
</clipPath>
</defs>
</svg>
