<svg width="102" height="250" viewBox="0 0 102 250" fill="none" xmlns="http://www.w3.org/2000/svg">
<g id="Type=04" clip-path="url(#clip0_319_806)">
<path id="Vector" d="M-0.280029 180.34C0.189971 179.55 0.669988 178.6 1.29999 177.49C2.40999 175.75 3.83001 173.69 6.20001 171.95V106.77C23.76 99.0201 41.32 89.8401 59.2 79.5601C69.33 88.4201 88.95 102.03 102.24 102.03C100.5 105.51 98.44 108.2 95.44 110.57V175.91C79.78 183.98 65.38 193.16 52.09 204.07C39.59 196 13.64 180.34 -0.280029 180.34ZM27.88 167.37C43.07 167.37 57.15 177.65 63.48 183.98V118.8C70.44 118.8 74.87 118.64 81.52 115.48C80.41 115.64 79.15 115.64 78.04 115.64C63.33 115.64 47.98 104.56 38.17 94.4401V165.01C31.68 165.01 26.46 165.01 20.29 168.33C22.82 167.7 25.35 167.38 27.88 167.38V167.37Z" fill="white"/>
</g>
<defs>
<clipPath id="clip0_319_806">
<rect width="102" height="250" fill="white"/>
</clipPath>
</defs>
</svg>
