<svg width="123" height="250" viewBox="0 0 123 250" fill="none" xmlns="http://www.w3.org/2000/svg">
<g id="Type=05" clip-path="url(#clip0_319_810)">
<path id="Vector" d="M0.179993 146.67C0.179993 138.66 1.64 131.43 4.56 124.98C7.48 118.53 11.65 112.96 17.09 108.28C22.52 103.59 29.01 100 36.54 97.48C44.08 94.97 52.46 93.71 61.7 93.71C70.94 93.71 79.35 94.97 86.96 97.48C94.56 99.99 101.08 103.59 106.52 108.28C111.95 112.97 116.13 118.53 119.05 124.98C121.97 131.43 123.43 138.66 123.43 146.67C123.43 154.68 121.97 161.74 119.05 168.26C116.13 174.78 111.95 180.38 106.52 185.07C101.09 189.75 94.57 193.35 86.96 195.87C79.35 198.38 70.93 199.64 61.7 199.64C52.47 199.64 44.08 198.38 36.54 195.87C29 193.36 22.52 189.76 17.09 185.07C11.66 180.38 7.48 174.78 4.56 168.26C1.64 161.74 0.179993 154.54 0.179993 146.67ZM44.99 146.67C44.99 152.51 45.3 158.18 45.91 163.68C46.52 169.18 47.47 174.04 48.76 178.25C50.05 182.46 51.78 185.82 53.95 188.33C56.12 190.84 58.77 192.1 61.9 192.1C65.03 192.1 67.64 190.85 69.74 188.33C71.84 185.82 73.58 182.46 74.94 178.25C76.3 174.04 77.25 169.18 77.79 163.68C78.33 158.18 78.6 152.51 78.6 146.67C78.6 139.88 78.19 133.7 77.38 128.13C76.56 122.56 75.44 117.81 74.02 113.87C72.59 109.93 70.83 106.88 68.72 104.7C66.61 102.53 64.34 101.44 61.9 101.44C59.32 101.44 57.01 102.53 54.97 104.7C52.93 106.87 51.17 109.93 49.67 113.87C48.17 117.81 47.02 122.56 46.21 128.13C45.4 133.7 44.99 139.88 44.99 146.67Z" fill="white"/>
</g>
<defs>
<clipPath id="clip0_319_810">
<rect width="123" height="250" fill="white"/>
</clipPath>
</defs>
</svg>
