<svg width="107" height="250" viewBox="0 0 107 250" fill="none" xmlns="http://www.w3.org/2000/svg">
<g id="Type=06" clip-path="url(#clip0_319_803)">
<path id="Vector" d="M-0.140015 145.74C-0.140015 105.91 13.74 92.24 54.17 92.24H107.47L103.45 132.47H76.5L107.48 145.75C107.48 186.18 94.81 198.85 54.18 198.85C13.55 198.85 -0.130005 185.17 -0.130005 145.75L-0.140015 145.74ZM40.09 145.94C40.09 157.2 40.09 145.14 40.09 171.08C40.09 178.92 44.31 188.78 53.16 188.78C63.02 188.78 67.24 179.53 67.24 171.08V145.94C67.24 137.69 61.61 132.46 53.16 132.46C44.71 132.46 40.09 137.49 40.09 145.94Z" fill="white"/>
</g>
<defs>
<clipPath id="clip0_319_803">
<rect width="107" height="250" fill="white"/>
</clipPath>
</defs>
</svg>
