<svg width="109" height="250" viewBox="0 0 109 250" fill="none" xmlns="http://www.w3.org/2000/svg">
<g id="Type=07">
<path id="Vector" d="M54.5 198C44.4837 198 35.3622 195.567 27.1136 190.7C18.8649 185.833 12.2856 179.316 7.37572 171.136C2.4549 162.956 0 153.918 0 144C0 134.082 2.4549 124.957 7.37572 116.777C12.2856 108.597 18.8759 102.091 27.1136 97.2565C35.3622 92.4225 44.4837 90 54.5 90C64.5162 90 73.6378 92.4225 81.8864 97.2565C90.1241 102.091 96.7143 108.597 101.624 116.777C106.545 124.957 109 134.028 109 144C109 153.972 106.545 162.956 101.624 171.136C96.7034 179.316 90.1241 185.833 81.8864 190.7C73.6378 195.567 64.5162 198 54.5 198ZM54.5 192.536C59.0607 192.536 63.2069 190.363 66.9603 185.996C70.7027 181.64 73.7032 175.774 75.9509 168.398C78.1985 161.022 79.3223 152.897 79.3223 144C79.3223 135.103 78.1985 126.902 75.9509 119.558C73.7032 112.215 70.7027 106.349 66.9603 101.96C63.2069 97.5715 59.0607 95.3772 54.5 95.3772C49.9392 95.3772 45.7931 97.5715 42.0397 101.96C38.2973 106.349 35.3077 112.215 33.0928 119.558C30.8778 126.902 29.7649 135.049 29.7649 144C29.7649 152.951 30.8778 161.033 33.0928 168.398C35.3077 175.774 38.2973 181.64 42.0397 185.996C45.7822 190.352 49.9392 192.536 54.5 192.536Z" fill="white"/>
</g>
</svg>
