<svg width="92" height="250" viewBox="0 0 92 250" fill="none" xmlns="http://www.w3.org/2000/svg">
<g id="Type=08">
<path id="Vector" d="M1.58748 178.482C1.71748 168.872 3.43745 159.342 6.68745 150.302C9.05745 143.492 10.6575 136.552 10.7875 129.302C10.9375 120.972 9.31748 113.162 4.40748 106.182C0.747483 100.972 -0.562503 95.1525 1.0475 88.8525C2.5675 82.9125 6.62748 80.1925 12.7175 81.2925C14.9475 81.7325 17.1374 82.3825 19.2474 83.2325C21.9974 84.2525 24.6674 85.4725 27.2474 86.8625C30.4374 88.6525 45.5075 88.4325 48.5775 86.9125C51.8875 85.2825 55.0275 83.3125 58.3575 81.7325C61.4675 80.2025 64.6775 78.9025 67.9775 77.8425C72.1475 76.5625 75.5875 77.9125 78.2175 81.5125C81.0775 85.2925 82.1575 90.1225 81.1875 94.7625C80.6875 97.0925 80.0075 99.3825 79.1575 101.612C76.4675 109.202 74.2675 116.932 73.5075 124.962C73.1675 129.072 73.1375 133.202 73.4375 137.322C73.7075 140.802 74.8275 144.172 76.7175 147.112C78.5375 150.062 80.1574 153.152 81.9874 156.102C82.8074 157.372 83.7574 158.552 84.8074 159.632C87.2075 162.182 89.3574 164.892 90.6174 168.202C92.6374 173.502 91.6774 178.202 87.7374 182.302C85.5274 184.572 82.7474 186.202 79.6774 187.002C77.6974 187.552 75.6775 187.992 73.6475 188.362C68.9175 189.192 60.6475 188.892 56.9775 191.992C56.4775 192.412 47.7974 195.172 47.3074 195.602C36.4774 204.942 24.4374 204.102 12.1174 199.512C7.96744 197.962 5.33745 194.552 3.68745 190.462C2.16745 186.652 1.46749 182.572 1.60749 178.482H1.58748ZM34.2675 136.832C34.2675 139.272 34.2675 141.992 34.2675 144.702C34.2675 148.062 36.1275 151.932 34.3575 154.772C29.2375 162.932 33.5775 172.932 53.4075 164.552C58.5075 162.402 62.5375 163.862 62.0075 158.362C61.8075 156.252 61.0174 154.152 60.2474 152.142C58.9174 148.712 57.3275 145.372 55.9475 141.952C53.5975 136.192 52.8875 129.902 53.8875 123.762C54.3875 120.332 54.6675 116.872 54.7075 113.402C54.7275 112.392 54.0174 110.802 53.2374 110.492C52.4474 110.182 50.8175 110.822 50.1475 111.572C47.6875 114.312 35.9675 105.992 33.5975 121.282C32.8175 126.322 34.0475 131.462 34.2675 136.822V136.832Z" fill="white"/>
</g>
</svg>
