<svg width="111" height="250" viewBox="0 0 111 250" fill="none" xmlns="http://www.w3.org/2000/svg">
<g id="Type=09" clip-path="url(#clip0_319_800)">
<path id="Vector" d="M111.33 143.44C111.33 174.03 86.45 198.91 55.86 198.91C25.27 198.91 0.390015 174.03 0.390015 143.44C0.390015 112.85 25.27 87.97 55.86 87.97C86.45 87.97 111.33 112.85 111.33 143.44ZM92.57 143.44C92.57 128.59 83.63 115.2 69.91 109.52C56.19 103.84 40.4 106.98 29.9 117.48C19.4 127.98 16.26 143.77 21.94 157.49C27.62 171.21 41.01 180.15 55.86 180.15C76.13 180.13 92.55 163.7 92.57 143.44Z" fill="white"/>
</g>
<defs>
<clipPath id="clip0_319_800">
<rect width="111" height="250" fill="white"/>
</clipPath>
</defs>
</svg>
