<svg width="91" height="250" viewBox="0 0 91 250" fill="none" xmlns="http://www.w3.org/2000/svg">
<g id="Type=10">
<path id="Vector" d="M51.7438 82.9123C56.2038 79.0423 60.0137 75.7123 63.8337 72.4023C67.0937 69.5723 67.4037 69.5723 70.7137 72.5323C76.1237 77.3723 80.0638 83.3223 83.0338 89.9523C89.1438 103.592 91.2237 117.982 90.4637 132.852C89.9637 142.552 88.1938 152.012 84.7238 161.082C81.1338 170.472 75.8638 178.632 68.1638 185.082C63.9938 188.572 60.0138 192.292 55.8038 195.712C53.4838 197.622 50.9837 199.312 48.3337 200.742C40.7437 204.772 33.1137 204.432 25.6337 200.322C20.2337 197.362 16.0738 193.002 12.6138 187.922C6.83377 179.442 3.51379 169.932 1.69379 159.852C-1.21621 144.162 -0.36624 128.012 4.16376 112.722C8.43376 98.2023 16.8638 86.7923 28.9938 78.2723C34.7038 74.2623 40.7137 70.6923 46.7037 67.1123C50.2037 65.0223 51.2237 65.8023 51.2637 70.0923C51.2937 73.2723 51.3638 76.4523 51.4438 79.6223C51.4638 80.4423 51.5937 81.2523 51.7637 82.9123H51.7438ZM36.3837 175.872L35.3237 175.572C35.0237 160.392 34.7838 145.202 34.4938 130.022C34.2038 114.792 33.9137 99.5723 33.6337 84.3623C31.4537 83.8923 30.8337 85.2223 30.2637 86.3623C28.5837 89.7323 26.7738 93.0623 25.4438 96.5823C19.8638 111.412 18.7837 126.772 20.8237 142.422C21.8537 150.802 24.2837 158.942 28.0237 166.512C30.6637 171.792 33.9538 176.572 38.5638 180.292C43.5938 184.352 49.2238 186.202 55.6838 185.222C57.9838 184.872 59.7737 184.052 60.7737 181.782C62.3437 178.222 64.2938 174.802 65.5538 171.142C72.2938 151.592 72.5237 131.852 66.5137 112.072C64.2937 104.772 60.9537 98.0123 55.8837 92.2723C54.8037 91.0523 53.5737 89.9823 52.4038 88.8323L51.6238 89.1423C51.6438 90.4323 51.6638 91.7323 51.6838 93.0223C52.0638 112.952 52.4437 132.872 52.8237 152.802C52.8537 154.512 52.9038 156.112 51.6638 157.612C47.4838 162.652 43.4637 167.822 39.3337 172.892C38.4037 173.932 37.4137 174.932 36.3837 175.872Z" fill="white"/>
</g>
</svg>
