<svg width="109" height="250" viewBox="0 0 109 250" fill="none" xmlns="http://www.w3.org/2000/svg">
<g id="Type=12">
<path id="Vector" d="M54.5 198C44.4837 198 35.3623 195.567 27.1136 190.7C18.8649 185.833 12.2856 179.316 7.37572 171.136C2.4549 162.956 0 153.918 0 144C0 134.082 2.4549 124.957 7.37572 116.777C12.2856 108.597 18.8759 102.091 27.1136 97.2565C35.3623 92.4225 44.4837 90 54.5 90C64.5162 90 73.6378 92.4225 81.8864 97.2565C90.1241 102.091 96.7143 108.597 101.624 116.777C106.545 124.957 109 134.028 109 144C109 153.972 106.545 162.956 101.624 171.136C96.7034 179.316 90.1241 185.833 81.8864 190.7C73.6378 195.567 64.5162 198 54.5 198Z" fill="white"/>
</g>
</svg>
