<svg width="82" height="250" viewBox="0 0 82 250" fill="none" xmlns="http://www.w3.org/2000/svg">
<g id="Type=02" clip-path="url(#clip0_319_761)">
<path id="Vector" d="M54.2 88.8C60.2 82.94 67.1 80.01 74.92 80.01C77.99 80.01 80.36 80.71 82.04 82.1L75.13 117.89C74.57 117.19 73.25 116.43 71.15 115.59C69.06 114.75 66.55 114.33 63.62 114.33C59.29 114.33 55.28 114.78 51.59 115.69C47.89 116.6 45.07 117.89 43.11 119.56L32.23 198.87H0L13.18 100.3L2.29999 94.44L3.97 85.44L37.45 80L42.89 83.56L41.84 102.81L41.42 110.34C43.93 101.83 48.18 94.64 54.19 88.78L54.2 88.8Z" fill="white"/>
</g>
<defs>
<clipPath id="clip0_319_761">
<rect width="82" height="250" fill="white"/>
</clipPath>
</defs>
</svg>
