<svg width="108" height="250" viewBox="0 0 108 250" fill="none" xmlns="http://www.w3.org/2000/svg">
<g id="Type=04" clip-path="url(#clip0_319_758)">
<path id="Vector" d="M0.109985 97.97C9.28999 93.54 17.99 84.52 24.32 76.45C31.12 83.73 38.09 90.8499 45.68 97.3299C55.01 91.7899 62.61 85.62 65.77 80.08C68.62 91 76.37 102.86 88.87 102.86C97.57 102.86 104.38 97.32 108.33 89.89C105.8 107.61 95.83 125.49 75.58 125.49H75.42C64.5 125.49 52.95 117.1 47.42 105.71V172.95C47.89 183.55 52.8 192.57 59.6 192.57C60.71 192.57 62.13 192.25 63.56 191.62C58.5 198.74 31.44 197.16 28.91 211.24C20.05 189.72 15.46 193.68 15.46 173.74V106.35C11.19 102.08 6.43999 97.96 0.109985 97.96V97.97Z" fill="white"/>
</g>
<defs>
<clipPath id="clip0_319_758">
<rect width="108" height="250" fill="white"/>
</clipPath>
</defs>
</svg>
