<svg width="91" height="250" viewBox="0 0 91 250" fill="none" xmlns="http://www.w3.org/2000/svg">
<g id="Type=05" clip-path="url(#clip0_319_763)">
<path id="Vector" d="M-0.0899658 95.74H44.72V130.98C46.48 125.55 48.93 120.56 52.05 116.01C55.17 111.46 58.77 107.52 62.85 104.2C66.92 100.87 71.34 98.29 76.09 96.46C80.84 94.63 85.66 93.71 90.55 93.71L84.44 142.6C82.13 136.49 79.14 132.04 75.48 129.26C71.81 126.48 68.01 125.08 64.07 125.08C59.72 125.08 55.68 126.71 51.95 129.97C48.21 133.23 45.8 137.91 44.72 144.03V197.6H-0.0899658V95.74Z" fill="white"/>
</g>
<defs>
<clipPath id="clip0_319_763">
<rect width="91" height="250" fill="white"/>
</clipPath>
</defs>
</svg>
