<svg width="98" height="250" viewBox="0 0 98 250" fill="none" xmlns="http://www.w3.org/2000/svg">
<g id="Type=06">
<path id="Vector" d="M41.2148 197.989H2.40787C1.64123 197.989 1.0474 197.707 0.626285 197.143C0.215973 196.578 0 195.938 0 195.221C0 194.57 0.205175 193.951 0.626285 193.387C1.0366 192.823 1.63043 192.54 2.40787 192.54C5.55 192.54 7.12646 190.424 7.12646 186.191V101.809C7.12646 97.5763 5.55 95.4597 2.40787 95.4597C1.64123 95.4597 1.0474 95.1775 0.626285 94.6131C0.215973 94.0486 0 93.4408 0 92.7787C0 92.1166 0.205175 91.5087 0.626285 90.9443C1.0366 90.3799 1.63043 90.0977 2.40787 90.0977H41.2148C42.0463 90.0977 42.6726 90.3799 43.0829 90.9443C43.4932 91.5087 43.7091 92.1274 43.7091 92.7787C43.7091 93.43 43.504 94.0486 43.0829 94.6131C42.6726 95.1775 42.0463 95.4597 41.2148 95.4597C38.1267 95.4597 36.5826 97.5763 36.5826 101.809V112.457C41.0313 97.4894 48.8704 90 60.0785 90C66.136 90 72.539 91.5522 79.3092 94.6565C82.4513 96.0892 85.4531 97.8802 88.3037 100.029C94.7715 104.979 98 110.645 98 117.027L97.9136 119.089C97.3197 123.03 95.4949 126.145 92.4392 128.435C89.3834 130.736 86.2197 131.876 82.9588 131.876C81.0044 131.876 79.1904 131.409 77.5275 130.486C75.8647 129.564 74.5906 128.12 73.7052 126.145C72.3986 122.747 71.5672 118.775 71.2109 114.248C70.9086 111.025 70.4118 107.953 69.6992 105.033C68.749 101.636 67.3453 99.161 65.4665 97.6088C63.5985 96.0567 61.5362 95.286 59.2794 95.286C56.4288 95.286 53.5782 96.3606 50.7384 98.5098C47.8986 100.659 45.5771 103.546 43.7955 107.193C39.4008 116.853 37.0037 130.215 36.5826 147.278V186.201C36.5826 190.435 38.1267 192.551 41.2148 192.551C42.0463 192.551 42.6726 192.833 43.0829 193.398C43.4932 193.962 43.7091 194.581 43.7091 195.232C43.7091 195.949 43.504 196.589 43.0829 197.153C42.6726 197.718 42.0463 198 41.2148 198V197.989Z" fill="white"/>
</g>
</svg>
