<svg width="91" height="250" viewBox="0 0 91 250" fill="none" xmlns="http://www.w3.org/2000/svg">
<g id="Type=07">
<path id="Vector" d="M36.6374 106.182C37.7374 105.062 38.7674 104.152 39.6374 103.102C41.5774 100.762 43.2874 98.2125 45.3774 96.0125C51.2374 89.8325 58.0074 85.0025 66.5974 83.4925C72.6474 82.4325 78.2774 83.8925 83.2574 87.4625C88.1974 91.0025 90.4774 95.9925 90.6374 102.002C90.7974 106.802 89.6874 111.572 87.4074 115.802C85.2474 119.812 83.0174 123.812 80.5074 127.602C75.6874 134.752 72.7574 143.002 72.0074 151.582C71.7974 153.742 71.4074 155.882 70.8174 157.972C70.0574 160.862 68.0074 163.242 65.2474 164.412C61.0574 166.302 57.4774 164.982 55.5374 160.812C54.2674 157.912 53.8174 154.712 54.2574 151.562C54.8374 146.162 55.6674 140.792 56.1374 135.392C56.4674 131.612 56.4274 127.802 56.4674 124.002C56.4274 123.022 56.2574 122.062 55.9574 121.122C54.9974 117.452 53.2574 116.502 49.7074 117.882C48.2974 118.442 46.9674 119.202 45.7774 120.132C42.7974 122.442 42.1374 124.592 43.3974 128.142C44.1674 130.282 45.0874 132.372 46.1574 134.382C48.9074 139.612 49.2274 144.952 47.0374 150.412C45.4274 154.442 43.6774 158.412 41.9774 162.412C41.0874 164.512 40.1474 166.582 39.2574 168.682C37.4374 172.962 38.1074 176.982 40.6574 180.732C41.7574 182.342 43.0674 183.812 44.1974 185.402C46.4074 188.302 47.1674 192.052 46.2574 195.582C45.7874 198.002 43.8674 199.892 41.4374 200.312C36.0274 201.462 30.6074 202.542 25.1674 203.552C23.7674 203.762 22.3574 203.842 20.9474 203.782C14.3874 203.682 10.4774 200.202 9.5174 193.652C8.8874 189.342 9.75739 185.232 11.1974 181.192C13.7174 174.142 16.3274 167.122 18.6974 160.022C21.7174 150.982 21.9474 141.702 20.3574 132.362C19.8074 129.242 18.5374 126.302 16.6374 123.762C15.1574 121.752 13.6974 119.722 12.1374 117.772C11.5074 117.042 10.7574 116.412 9.91742 115.922C8.88742 115.322 7.82737 114.772 6.73737 114.282C-0.0226312 110.962 -1.69262 103.442 3.12738 97.4825C5.64738 94.4725 8.76742 92.0225 12.2874 90.2825C13.8174 89.4925 15.2174 88.4725 16.6774 87.5525C19.6174 85.7125 22.4874 83.7625 25.5174 82.0825C26.9574 81.3325 28.5274 80.8325 30.1374 80.6325C36.2774 79.7325 40.5174 84.2625 39.2274 90.3625C38.8274 92.2525 37.8974 94.0225 37.2474 95.8525C36.5974 97.6825 35.8774 99.5025 35.3774 101.382C34.9874 102.862 35.0274 104.392 36.6174 106.172L36.6374 106.182Z" fill="white"/>
</g>
</svg>
