<svg width="109" height="250" viewBox="0 0 109 250" fill="none" xmlns="http://www.w3.org/2000/svg">
<g id="Type=09">
<path id="Vector" d="M51.6338 154.028H34.1338V177.174H44.2335C47.1165 177.174 47.8418 180.975 45.3169 182.236L16.6338 196.703C14.8342 197.605 12.8418 196.344 12.8418 194.356V89.8352H2.74216C-0.140844 89.8352 -1.04982 85.8594 1.4751 84.7734L30.1582 70.2967C32.1414 69.3948 34.1246 70.6556 34.1246 72.6435V78.9753H86.9827C87.3408 78.9753 87.5244 78.9753 88.2497 78.6164L105.208 70.2967C106.833 69.3948 109 70.6556 109 72.6435V152.399C109 153.485 108.275 154.203 107.559 154.746L91.5 162.881C89.7004 163.783 87.708 162.338 87.708 160.535V154.028H73.8164C79.0499 168.679 90.4166 174.827 106.466 175.545C107.907 175.545 108.991 176.631 108.991 178.26V194.172C108.991 195.617 107.907 196.887 106.282 196.887C77.4155 196.887 57.2162 180.248 51.6154 154.028H51.6338ZM50.1923 132.686V100.318H34.1338V132.686H50.1923ZM87.7172 132.686V100.318H71.4843V132.686H87.7172Z" fill="white"/>
</g>
</svg>
