<svg width="116" height="250" viewBox="0 0 116 250" fill="none" xmlns="http://www.w3.org/2000/svg">
<g id="Type=01" clip-path="url(#clip0_319_776)">
<path id="Vector" d="M0 181.6L11 157.2C22.8 165.8 40.4 171.8 57.2 171.8C76.4 171.8 84.2 165.4 84.2 156.8C84.2 130.6 2.79999 148.6 2.79999 96.6C2.79999 72.8 22 53 61.8 53C79.4 53 97.4 57.2 110.4 65.4L100.4 90C87.4 82.6 74 79 61.6 79C42.4 79 35 86.2 35 95C35 120.8 116.4 103 116.4 154.4C116.4 177.8 97 197.8 57 197.8C34.8 197.8 12.4 191.2 0 181.6Z" fill="white"/>
</g>
<defs>
<clipPath id="clip0_319_776">
<rect width="116" height="250" fill="white"/>
</clipPath>
</defs>
</svg>
