<svg width="113" height="250" viewBox="0 0 113 250" fill="none" xmlns="http://www.w3.org/2000/svg">
<g id="Type=02" clip-path="url(#clip0_319_784)">
<path id="Vector" d="M78.92 58.93C76.55 58.16 73.62 57.78 70.13 57.78C62.87 57.78 57.16 59.45 52.97 62.8C48.78 66.15 46.69 70.62 46.69 76.19C46.69 83.17 48.85 89.16 53.18 94.19C57.5 99.21 65.04 105.07 75.78 111.77C85.54 118.05 93.29 124.82 99.01 132.07C104.73 139.33 107.59 147.7 107.59 157.18C107.73 165.83 105.57 173.75 101.1 180.93C96.63 188.12 89.9 193.87 80.9 198.19C71.9 202.51 60.91 204.68 47.94 204.68C37.48 204.68 27.46 203.56 17.91 201.33C8.34997 199.1 2.24998 196.87 -0.400024 194.63L5.45996 162.4H26.39L27.44 185.21C32.46 189.54 39.02 191.7 47.11 191.7C56.74 191.7 63.75 189.78 68.14 185.95C72.54 182.11 74.73 176.99 74.73 170.57C74.73 164.15 72.74 158.75 68.77 153.93C64.79 149.12 57.92 143.64 48.16 137.5C37.83 130.94 29.74 123.9 23.88 116.36C18.02 108.83 15.09 100.04 15.09 89.99C15.09 75.76 20.43 64.7 31.1 56.82C41.77 48.94 55.62 45 72.64 45C91.19 45 104.8 47.51 113.45 52.53L108.01 83.29H88.76L85.83 62.78C83.6 60.97 81.29 59.68 78.92 58.91V58.93Z" fill="white"/>
</g>
<defs>
<clipPath id="clip0_319_784">
<rect width="113" height="250" fill="white"/>
</clipPath>
</defs>
</svg>
