<svg width="117" height="250" viewBox="0 0 117 250" fill="none" xmlns="http://www.w3.org/2000/svg">
<g id="Type=03" clip-path="url(#clip0_319_781)">
<path id="Vector" d="M116.73 154.55C116.73 169.55 111.75 181.45 101.81 190.26C91.8601 199.06 78.8201 203.47 62.6801 203.47C46.5401 203.47 33.4901 199.15 22.5701 190.51C11.6401 181.87 3.98008 168.91 -0.419922 151.62L27.7101 145.75C33.9001 164.99 45.4001 174.61 62.1901 174.61C69.5301 174.61 75.4801 172.78 80.0401 169.11C84.6001 165.44 86.8901 160.67 86.8901 154.8C86.8901 152.03 86.2401 149.54 84.9301 147.34C83.6201 145.14 82.1601 143.35 80.5301 141.96C78.9001 140.58 76.3301 139.19 72.8301 137.8C69.3201 136.42 66.3901 135.44 64.0301 134.87C61.6601 134.3 58.0401 133.44 53.1501 132.3C52.1701 131.97 51.4401 131.73 50.9501 131.57C45.4101 130.27 40.4701 128.88 36.1501 127.41C31.8301 125.94 27.3801 123.86 22.8201 121.17C18.2501 118.48 14.4601 115.42 11.4501 112C8.4301 108.58 5.95008 104.3 3.99008 99.16C2.03008 94.02 1.06009 88.28 1.06009 81.92C1.06009 66.92 5.91008 55.02 15.6101 46.21C25.3101 37.41 38.4801 33 55.1101 33C70.4301 33 83.3601 37 93.8701 44.98C104.39 52.97 111.6 65.04 115.51 81.18L87.6301 87.05C85.6701 78.73 81.9601 72.42 76.5001 68.1C71.0401 63.78 64.2301 61.62 56.0801 61.62C47.9301 61.62 42.0601 63.5 37.4901 67.25C32.9201 71 30.6401 75.81 30.6401 81.68C30.6401 84.61 31.2901 87.22 32.6001 89.51C33.9001 91.8 35.3701 93.63 37.0001 95.01C38.6301 96.4 41.2401 97.82 44.8301 99.29C48.4101 100.76 51.4701 101.86 54.0001 102.59C56.5301 103.32 60.4001 104.26 65.6201 105.4C71.3301 106.87 76.1701 108.3 80.1701 109.68C84.1601 111.07 88.6501 113.07 93.6201 115.67C98.5901 118.28 102.63 121.21 105.73 124.47C108.83 127.73 111.44 131.93 113.56 137.07C115.68 142.21 116.74 148.04 116.74 154.56L116.73 154.55Z" fill="white"/>
</g>
<defs>
<clipPath id="clip0_319_781">
<rect width="117" height="250" fill="white"/>
</clipPath>
</defs>
</svg>
