<svg width="146" height="250" viewBox="0 0 146 250" fill="none" xmlns="http://www.w3.org/2000/svg">
<g id="Type=04" clip-path="url(#clip0_319_783)">
<path id="Vector" d="M8.45001 186.16C16.52 174.77 30.28 166.22 49.74 166.22C76.95 166.22 94.99 177.45 103.85 182.52C105.43 180.62 106.86 178.88 108.28 177.3C110.65 174.61 113.34 171.76 115.08 170.66C115.08 150.88 92.77 141.55 70.78 131.42C69.36 131.42 68.09 130.95 65.56 130.95C59.23 130.95 49.26 132.85 42.46 144.4C42.46 135.86 46.73 127.94 53.38 122.72C38.03 114.65 26.8 104.21 26.8 87.28C50.37 74.62 64.61 47.25 73.95 27C81.7 42.82 103.06 58.49 121.1 58.49C130.75 58.49 140.72 54.53 146.41 46.31C144.35 83.33 120.62 88.4 112.87 88.4L110.34 88.56H109.39C95.47 88.56 74.58 79.54 62.56 62.93C61.45 64.99 60.19 67.99 60.19 73.69C60.19 115.46 143.89 90.3 143.89 159.29C120.63 167.68 102.28 187.93 91.36 209.45C89.78 207.39 69.05 185.24 40.57 185.24C23.96 185.24 13.36 191.25 7.98001 199.32C4.02001 205.17 3.39001 207.71 3.39001 214.51C3.39001 228.12 12.72 239.51 26.65 239.51C42.79 239.51 47.69 231.44 47.69 227.17C47.69 226.22 48.01 223.21 44.21 221.32L45.48 221C46.27 220.84 47.38 220.52 48.64 220.52C51.65 220.52 55.13 221.79 55.13 227.32C55.13 237.6 43.58 243.3 28.23 243.3C9.88001 243.3 -0.25 230.01 -0.25 212.92C-0.25 202.64 2.44001 194.57 8.45001 186.18V186.16Z" fill="white"/>
</g>
<defs>
<clipPath id="clip0_319_783">
<rect width="146" height="250" fill="white"/>
</clipPath>
</defs>
</svg>
