<svg width="107" height="250" viewBox="0 0 107 250" fill="none" xmlns="http://www.w3.org/2000/svg">
<g id="Type=05" clip-path="url(#clip0_319_780)">
<path id="Vector" d="M2.13873 138.144C6.70418 140.786 11.5142 143.08 16.5688 145.025C21.6234 146.971 26.5659 148.569 31.4065 149.828C36.2471 151.078 40.9858 152.02 45.6226 152.644C50.2594 153.269 54.4477 153.587 58.1775 153.587C61.9073 153.587 65.3722 153.238 68.5619 152.542C72.1592 151.702 74.6865 150.176 76.1336 147.954C77.5909 145.732 77.7234 143.264 76.5514 140.55C75.3693 137.837 72.8828 135.164 69.0816 132.522C65.2703 129.88 59.91 127.791 52.9904 126.265C45.5206 124.595 38.4891 122.65 31.916 120.428C25.343 118.205 19.6362 115.492 14.7854 112.297C9.94483 109.101 6.10293 105.241 3.25972 100.714C0.416504 96.1984 -1 90.7401 -1 84.3398C-1 77.9394 0.0394516 72.6553 2.11836 68.4873C4.19727 64.3194 6.99972 61.0117 10.5257 58.5745C14.0517 56.1474 18.2095 54.4373 22.9788 53.4644C27.7582 52.4915 32.9045 52 38.4483 52H104.871V111.856C100.306 109.214 95.496 106.92 90.4414 104.975C85.3868 103.029 80.4443 101.431 75.6037 100.172C70.7529 98.9224 66.0142 97.9802 61.3876 97.3555C56.7508 96.7309 52.5625 96.4134 48.8326 96.4134C45.1028 96.4134 41.638 96.7616 38.4585 97.458C34.8612 98.2874 32.2319 99.8235 30.5709 102.046C28.9098 104.268 28.5633 106.705 29.5314 109.347C30.4995 111.989 32.9249 114.631 36.7974 117.273C40.6699 119.916 46.2748 122.076 53.6121 123.735C60.6743 125.271 67.4511 127.104 73.9528 129.265C80.4545 131.426 86.2326 134.129 91.2872 137.396C96.3418 140.663 100.388 144.595 103.435 149.183C106.482 153.771 108 159.27 108 165.66C108 172.05 106.961 177.345 104.882 181.513C102.803 185.681 100 188.988 96.4743 191.426C92.9483 193.863 88.7905 195.563 84.0212 196.536C79.2418 197.508 74.0853 198 68.5517 198H2.11836V138.134L2.13873 138.144Z" fill="white"/>
</g>
<defs>
<clipPath id="clip0_319_780">
<rect width="107" height="250" fill="white"/>
</clipPath>
</defs>
</svg>
