<svg width="145" height="250" viewBox="0 0 145 250" fill="none" xmlns="http://www.w3.org/2000/svg">
<g id="Type=07" clip-path="url(#clip0_319_785)">
<path id="Vector" d="M3.08997 198.98C1.16997 196.67 0.209961 193.21 0.209961 188.59C0.209961 185.84 0.579977 182.99 1.31998 180.02C2.05998 177.05 3.25996 174.29 4.89996 171.74C6.54996 169.18 8.64996 167.1 11.21 165.48C13.76 163.86 16.86 163.05 20.48 163.05C25.76 163.43 30.82 165.04 35.69 167.87C40.56 170.7 45.35 173.93 50.07 177.56C53.42 180.09 56.83 182.49 60.29 184.77C63.75 187.05 67.32 188.93 71.01 190.42C74.69 191.9 78.51 192.65 82.47 192.65C89.89 192.32 95.8 190.73 100.19 187.87C104.58 185.01 107.73 181.34 109.63 176.87C111.53 172.39 112.47 167.62 112.47 162.57C112.47 154.49 110.83 147.51 107.57 141.63C104.3 135.75 99.97 130.65 94.59 126.34C89.2 122.03 83.21 118.19 76.62 114.84C70.03 111.49 63.35 108.36 56.59 105.44C50.82 102.91 45.32 100.36 40.1 97.77C34.88 95.19 30.21 92.39 26.09 89.36C21.97 86.34 18.7 82.93 16.28 79.14C13.86 75.35 12.65 70.95 12.65 65.95C12.98 58.48 15.8 52.38 21.1 47.65C26.4 42.92 32.94 39.28 40.72 36.73C48.5 34.17 56.31 32.42 64.17 31.45C72.03 30.49 78.46 30.01 83.46 30.01C110.94 30.01 127.07 35.89 131.85 47.65C133.28 51.11 133.99 54.79 133.99 58.7C133.99 60.9 133.73 63.43 133.21 66.28C132.69 69.14 132.07 72.13 131.36 75.26C130.65 78.39 130.01 81.48 129.46 84.53C128.91 87.58 128.63 90.31 128.63 92.73C128.63 94.87 128.93 96.69 129.54 98.17C126.02 101.14 122.12 102.62 117.83 102.62C113.1 102.62 108.89 100.94 105.18 97.59C101.47 94.24 99.62 90.25 99.62 85.64C99.62 81.74 101.1 78 104.07 74.43C112.48 64.48 116.68 56.35 116.68 50.03C116.68 39.97 105.72 34.95 83.79 34.95C75.27 35.06 67.74 36.92 61.2 40.51C54.66 44.11 49.51 48.77 45.74 54.48C41.98 60.2 40.09 66.16 40.09 72.37C40.09 76.66 41.12 80.79 43.18 84.78C45.24 88.77 48.5 92.34 52.95 95.5C57.4 98.66 63.2 101.17 70.34 103.04L79.57 105.27C84.79 106.37 90.37 107.72 96.3 109.31C102.23 110.9 108.09 112.85 113.86 115.16C119.63 117.47 124.89 120.33 129.65 123.73C134.4 127.14 138.22 131.23 141.11 136.01C144 140.79 145.44 146.48 145.44 153.07C145.44 154.28 145.38 155.52 145.27 156.78C144.39 164.8 141.52 171.48 136.66 176.81C131.8 182.14 125.85 186.33 118.81 189.38C111.77 192.43 104.51 194.59 97.01 195.85C89.51 197.12 82.84 197.75 77.02 197.75C73.5 197.75 69.74 197.42 65.73 196.76C61.72 196.1 57.57 195.33 53.28 194.45C48.66 193.46 44.03 192.6 39.39 191.85C34.75 191.11 30.25 190.74 25.91 190.74C15.91 190.74 8.29996 193.49 3.07996 198.98H3.08997Z" fill="white"/>
</g>
<defs>
<clipPath id="clip0_319_785">
<rect width="145" height="250" fill="white"/>
</clipPath>
</defs>
</svg>
