<svg width="110" height="250" viewBox="0 0 110 250" fill="none" xmlns="http://www.w3.org/2000/svg">
<g id="Type=08">
<path id="Vector" d="M73.1475 121.262C75.9675 121.262 78.7975 121.262 81.6175 121.262C85.5675 121.212 89.4175 122.552 92.4775 125.062C94.0675 126.382 95.5775 127.792 96.9975 129.282C102.808 135.222 104.157 142.192 101.797 150.042C100.737 153.582 98.9275 156.622 95.9975 158.882C93.5975 160.742 91.1375 162.542 88.6075 164.232C83.4075 167.682 79.3175 172.552 76.8075 178.262C74.7175 182.922 72.5075 187.522 70.3675 192.152C65.0575 203.612 55.4675 209.732 43.7775 212.822C38.2475 214.282 32.5275 213.642 27.0975 211.612C22.5275 209.902 20.5475 207.242 20.9375 202.432C21.2275 198.792 22.2075 195.182 23.0575 191.612C23.8175 188.452 24.9975 185.382 25.7075 182.212C27.3275 174.922 24.9775 169.182 18.7375 165.042C16.2975 163.422 13.6175 162.162 11.1975 160.512C8.69748 158.812 6.12749 157.082 4.04749 154.912C0.377489 151.072 -0.522496 146.342 1.1875 141.292C2.8875 136.272 7.26748 134.362 12.1275 136.412C13.3375 136.902 14.4775 137.552 15.5275 138.332C22.7475 143.872 30.7575 145.322 39.5475 143.252C41.5675 142.832 43.6375 142.662 45.6975 142.742C50.3375 142.802 52.9075 145.182 53.4175 149.852C53.7475 152.872 53.6875 155.942 54.1675 158.942C54.4475 160.972 55.1375 162.932 56.1875 164.692C58.6275 168.532 62.6975 168.782 65.7075 165.422C68.9075 161.982 71.3075 157.882 72.7475 153.412C74.7975 146.652 73.3775 140.232 69.6875 134.402C67.3775 130.742 63.5175 129.442 59.4275 130.222C54.8675 131.092 50.4275 132.582 45.9775 133.962C41.6275 135.312 37.4175 137.202 33.0075 138.212C26.6775 139.672 21.7875 137.272 18.3775 131.702C16.1875 128.132 15.0875 124.162 14.3475 120.072C13.2075 113.782 13.6675 107.522 14.5675 101.252C14.7875 99.7423 14.9675 98.2323 15.2575 96.7423C15.9475 93.0823 15.4475 89.2923 13.8375 85.9323C12.6275 83.2623 11.3175 80.6423 10.1375 77.9523C7.28749 71.4423 5.3275 64.6823 4.9375 57.5423C4.8275 55.5923 4.92748 53.6323 5.22748 51.7023C5.98748 46.8623 8.5175 43.0523 13.0875 41.2323C23.8675 36.9423 34.4475 36.3723 44.1975 44.0823C47.1775 46.4423 50.1375 48.8423 53.2275 51.0523C55.0875 52.3723 57.0675 53.5023 59.1475 54.4423C62.1075 55.7923 65.3175 56.1223 68.3575 54.9123C72.2775 53.3523 76.0875 51.5123 79.8775 49.6523C82.8975 48.1723 85.7175 46.2723 88.7875 44.9123C98.5375 40.5723 105.717 46.4423 108.797 53.3423C110.127 56.2823 110.037 59.6523 108.567 62.5223C107.217 65.1123 105.587 67.5323 103.697 69.7523C101.777 71.9723 99.7075 74.0523 97.4975 75.9923C94.2175 79.0123 93.0875 82.8623 92.8775 87.1123C92.5375 93.7823 94.1875 99.8123 98.7675 104.872C99.8575 106.082 100.967 107.282 101.957 108.572C104.297 111.612 103.798 115.082 100.718 117.382C98.8475 118.732 96.5475 119.362 94.2475 119.162C85.5075 118.662 78.5875 114.832 73.9575 107.382C71.4475 103.332 69.3775 99.0023 67.2275 94.7423C64.9575 90.2523 62.5075 85.8723 58.6575 82.5523C56.3975 80.5323 53.8975 78.7823 51.2175 77.3523C45.7675 74.5923 42.4475 76.1223 40.3875 81.9323C39.2475 85.0023 38.8475 88.3023 39.2275 91.5623C40.4375 100.902 44.2075 109.052 50.8675 115.782C54.1275 119.222 58.6275 121.222 63.3575 121.332C66.6175 121.422 69.8775 121.352 73.1375 121.352V121.252L73.1475 121.262Z" fill="white"/>
</g>
</svg>
