<svg width="119" height="250" viewBox="0 0 119 250" fill="none" xmlns="http://www.w3.org/2000/svg">
<g id="Type=09">
<path id="Vector" d="M108.608 177.197C97.8991 191.281 81.5721 199 63.4461 199C59.2592 199 55.0722 198.591 50.9589 197.804C30.4133 193.914 15.0436 180.742 6.51188 159.715C0.399763 144.634 0.01052 130.665 0 130.078L9.86774 129.857L19.7355 129.606C20.2299 137.587 22.0078 145.431 25.0166 152.835C31.013 167.266 40.9859 175.897 54.6514 178.487C70.0948 181.413 84.3914 176.484 92.8916 165.315C99.5508 156.558 101.15 146.018 97.047 137.807C91.8607 127.393 78.1531 121.656 58.4596 121.656C57.8705 121.656 56.6923 121.73 55.4509 121.803C49.2862 122.17 38.9661 122.789 29.8347 119.821C12.6976 114.263 2.66154 98.1754 5.43882 80.6827C6.61706 73.027 10.3622 65.9795 16.0535 60.7149C22.3129 55.0098 30.4554 52 39.5867 52H112.469V90.5826H92.7338V71.6741H39.5762C30.1819 71.6741 25.8476 77.9245 24.9114 83.7659C23.954 89.8171 26.2579 97.9867 35.9153 101.112C41.5014 102.916 49.4861 102.444 54.2516 102.161C55.8612 102.066 57.2498 101.982 58.4386 101.982C95.6584 101.982 109.661 118.94 114.7 129.05C122.148 144.005 119.802 162.452 108.587 177.197H108.608Z" fill="white"/>
</g>
</svg>
