<svg width="122" height="250" viewBox="0 0 122 250" fill="none" xmlns="http://www.w3.org/2000/svg">
<g id="Type=10" clip-path="url(#clip0_319_775)">
<path id="Vector" d="M10.3337 80.85L57.7637 34L109.124 57.48C110.384 55.82 111.494 53.88 113.044 52.42C115.184 50.4 117.074 50.8 119.394 53.26C121.334 55.32 121.394 56.59 119.374 58.86C117.844 60.59 116.094 62.13 114.514 63.81C103.184 75.82 91.8737 87.84 80.5737 99.88C79.9737 100.52 79.6037 101.38 78.9537 102.41C80.4637 102.7 81.6337 103 82.8337 103.14C93.2237 104.38 102.254 108.77 110.254 115.4C119.764 123.28 123.484 134.44 122.164 146.54C120.774 159.22 112.744 172.33 105.664 182.64C99.5437 191.55 92.7637 200.45 84.5037 207.43C80.5037 210.81 79.0337 210.65 75.7937 206.6C65.9737 194.36 53.6537 185.69 39.0537 180.26C31.2137 177.34 23.0337 176.02 14.7537 175.18C12.1837 174.92 10.4237 175.61 8.91371 177.84C6.96371 180.72 5.43372 180.76 2.95372 178.58C-0.52628 175.51 -0.876306 173.34 1.61369 169.31C5.10369 163.65 8.78369 158.1 12.1437 152.36C13.9137 149.33 16.1837 147.7 19.6337 148.21C23.0837 148.72 25.4437 147.21 27.5837 144.68C31.2637 140.32 35.1037 136.11 39.2337 131.43L10.3537 80.85H10.3337ZM33.8137 149.16C58.4637 152.8 79.6137 165.38 95.3837 183.37C97.7737 180.85 100.284 177.4 101.424 173.66C104.454 163.71 104.884 149.88 92.6937 139.92C81.0437 130.4 67.8937 127.47 53.3437 130.9C52.0437 131.21 50.5637 131.69 49.6637 132.6C44.5837 137.73 39.6637 143.02 33.8137 149.16ZM34.3037 66.24C42.6537 80.78 50.7137 94.82 58.7837 108.87C63.1737 106.23 83.5137 84.71 86.1537 80.05L40.5737 59.09C39.8737 60.05 35.6737 64.66 34.3037 66.23V66.24Z" fill="white"/>
</g>
<defs>
<clipPath id="clip0_319_775">
<rect width="122" height="250" fill="white"/>
</clipPath>
</defs>
</svg>
