<svg width="99" height="250" viewBox="0 0 99 250" fill="none" xmlns="http://www.w3.org/2000/svg">
<g id="Type=11">
<path id="Vector" d="M0.732416 170.439C-2.16214 166.089 4.248 161.539 7.35307 166.089C23.6889 191.122 44.1613 191.122 51.824 191.122C74.1595 191.122 91.1163 175.81 91.1163 155.737C91.1163 135.663 79.3276 125.111 53.066 110.83C35.4882 101.31 35.6987 91.7891 36.5197 88.0715C39.6247 76.0655 58.0236 75.0334 67.1283 82.0685C71.2649 84.5539 73.3279 79.383 70.8544 77.3082C56.5816 66.1343 30.32 71.3053 30.32 89.9355C30.32 100.699 33.4251 106.28 49.9715 116.012C77.475 130.703 85.1272 139.392 85.1272 155.747C85.1272 188.026 39.2143 195.482 17.0893 169.406C8.19512 158.643 24.5309 144.362 33.8461 155.336C42.1193 165.268 63.4233 167.132 63.4233 155.747C63.4233 149.744 57.0131 144.984 39.0143 134.842C24.952 126.775 8.61613 114.558 8.61613 90.7675C8.61613 71.1052 22.4784 50 52.666 50C70.6544 50 85.9587 57.867 94.6529 71.7265C97.758 75.6548 90.5163 80.415 88.0323 75.8654C68.8019 45.6505 16.4788 54.3495 16.4788 90.7675C16.4788 110.43 29.9201 120.561 42.9508 128.018C64.2548 139.813 71.2859 146.437 71.2859 155.747C71.2859 174.788 41.5088 176.441 27.857 160.507C24.9625 157.2 20.6154 161.75 23.31 164.436C40.0668 185.13 77.2856 179.959 77.2856 155.747C77.2856 142.709 71.4965 136.506 46.0559 122.847C28.0676 112.294 22.6889 104.638 22.6889 89.9461C22.6889 64.2913 55.9816 56.0135 75.633 71.1157C86.1798 78.7721 75.012 97.3919 62.3917 88.2926C57.6341 84.3644 45.4349 84.5645 44.1929 89.9461C43.3614 92.8422 46.2559 98.2239 56.8132 104.016C85.3588 119.329 99 131.124 99 155.747C99 180.37 78.7276 199 51.845 199C19.3734 199 5.93209 178.105 0.763991 170.439H0.732416Z" fill="white"/>
</g>
</svg>
