<svg width="153" height="250" viewBox="0 0 153 250" fill="none" xmlns="http://www.w3.org/2000/svg">
<g id="Type=12">
<path id="Vector" d="M105.909 199C72.4116 199 56.7981 190.191 53.412 151.126H44.8089L45.0347 196.51H0V141.191H57.0239C59.7453 149.324 66.7557 152.928 78.0676 152.928C89.3796 152.928 95.7253 149.312 95.7253 141.641C95.7253 134.647 92.101 131.256 77.6161 131.256C66.5299 131.256 54.9922 131.706 42.7647 131.706C9.94497 131.706 0.677186 113.413 0.677186 91.7406C0.677186 70.0684 13.1179 52 45.2604 52C75.133 52 90.2951 62.1604 94.8224 101.901H102.974L102.748 54.2523H148.234V111.849H91.4363C88.4892 100.562 81.253 98.5225 69.2638 98.5225C56.5974 98.5225 52.9731 103.265 52.9731 109.809C52.9731 116.353 57.7262 119.744 74.4684 119.744C77.4155 119.744 98.685 119.068 107.514 119.068C145.764 119.068 153 135.773 153 160.16C153 180.706 141.462 199 105.934 199H105.909Z" fill="white"/>
</g>
</svg>
