<svg width="70" height="250" viewBox="0 0 70 250" fill="none" xmlns="http://www.w3.org/2000/svg">
<g id="Type=02" clip-path="url(#clip0_319_796)">
<path id="Vector" d="M35.75 160.62C35.61 161.6 35.47 162.43 35.33 163.13C34.77 167.6 34.49 170.25 34.49 171.08C34.49 176.66 37.07 179.45 42.23 179.45C45.16 179.45 48.19 179 51.33 178.09C54.47 177.18 57.22 175.68 59.6 173.59L62.11 181.54C58.06 186.01 52.59 189.98 45.68 193.47C38.77 196.96 30.51 198.7 20.88 198.7C15.16 198.7 10.45 197.27 6.75 194.41C3.05 191.55 1.19998 186.84 1.19998 180.28C1.19998 177.63 2.10998 169.68 3.91998 156.42L12.08 96.78H-0.27002L2.23999 85.69L14.8 80.88C19.26 77.11 24.7 67.49 31.12 52H50.16L46.6 80.46H70.04L67.74 96.78H44.3L36.14 157.05C36 158.45 35.86 159.63 35.72 160.61L35.75 160.62Z" fill="white"/>
</g>
<defs>
<clipPath id="clip0_319_796">
<rect width="70" height="250" fill="white"/>
</clipPath>
</defs>
</svg>
