<svg width="66" height="250" viewBox="0 0 66 250" fill="none" xmlns="http://www.w3.org/2000/svg">
<g id="Type=04" clip-path="url(#clip0_319_792)">
<path id="Vector" d="M-0.400024 89.7499C15.9 84.6899 36.9399 73.7699 46.9099 52.8899V81.5299C48.1799 81.6899 49.44 81.8499 50.71 81.8499C55.46 81.8499 61.63 80.2699 65.74 77.5799C63.52 87.3899 56.5599 95.2999 46.9099 98.1499V173.62C47.3799 184.22 52.29 193.08 59.09 193.08C60.2 193.08 61.62 192.76 63.05 192.13C57.99 199.09 30.93 197.98 28.4 211.91C19.54 190.39 14.95 194.35 14.95 174.41V98.2899C14.95 92.7499 5.45998 89.7499 -0.400024 89.7499Z" fill="white"/>
</g>
<defs>
<clipPath id="clip0_319_792">
<rect width="66" height="250" fill="white"/>
</clipPath>
</defs>
</svg>
