<svg width="72" height="250" viewBox="0 0 72 250" fill="none" xmlns="http://www.w3.org/2000/svg">
<g id="Type=05">
<path id="Vector" d="M63.36 55.41C60.92 59.08 58.78 64.54 56.94 71.81C55.11 79.08 53.58 87.06 52.36 95.75H71.71V114.29C68.99 112.8 65.73 111.54 61.93 110.52C58.13 109.5 54.46 108.79 50.93 108.38C50.25 114.9 49.71 121.28 49.3 127.53C48.89 133.78 48.62 139.55 48.48 144.84C48.34 150.14 48.34 154.69 48.48 158.49C48.61 162.29 48.89 165.01 49.3 166.64C49.98 169.36 51.1 171.46 52.66 172.95C54.22 174.45 55.95 175.19 57.85 175.19C60.56 175.19 63.15 173.36 65.59 169.69C68.03 166.02 69.26 159.91 69.26 151.36H71.7C71.7 158.02 70.85 164.3 69.15 170.2C67.45 176.11 65.01 181.24 61.82 185.58C58.63 189.93 54.76 193.36 50.21 195.87C45.66 198.38 40.53 199.64 34.83 199.64C29.13 199.64 23.9 198.83 19.96 197.2C16.02 195.57 12.9 193.26 10.59 190.27C8.28 187.28 6.65001 183.79 5.70001 179.78C4.75001 175.78 4.26999 171.4 4.26999 166.64L3.66 107.97H0.200012V95.75H4.26999V76.39L63.36 55.41Z" fill="white"/>
</g>
</svg>
