<svg width="79" height="250" viewBox="0 0 79 250" fill="none" xmlns="http://www.w3.org/2000/svg">
<g id="Type=07">
<path id="Vector" d="M47.1218 198C40.9722 198 35.3441 196.564 30.2375 193.692C25.1309 190.821 21.0456 186.785 17.9708 181.586C14.896 176.386 13.3532 170.284 13.3532 163.289V113.524C13.3532 105.094 15.4393 99.0024 19.6223 95.2278H2.50983C1.67322 95.2278 1.04303 94.945 0.63016 94.3794C0.217287 93.8137 0 93.2046 0 92.541C0 91.8775 0.206422 91.2684 0.63016 90.7027C1.04303 90.1371 1.67322 89.8543 2.50983 89.8543H72.3723C72.9047 89.8543 73.3284 89.6585 73.6218 89.2669C73.9151 88.8753 74.0673 88.451 74.0673 87.9616C74.0673 87.4721 73.9151 87.0478 73.6218 86.6562C73.3176 86.2646 72.9047 86.0688 72.3723 86.0688H35.7461C30.4331 85.7099 26.1305 84.6765 22.8493 82.9796C19.568 81.2718 17.1668 79.1398 15.6348 76.5726C14.1137 74.0055 13.3532 71.3405 13.3532 68.5884C13.3532 65.8364 14.0377 63.1061 15.4176 60.5607C16.7866 58.0262 18.7423 55.9595 21.2847 54.3713C23.8163 52.7832 26.7933 52 30.194 52C30.194 57.3844 31.8347 62.2359 35.1159 66.5761C38.3972 70.9054 43.1778 74.3427 49.447 76.8881C55.7161 79.4335 63.3543 80.6953 72.3723 80.6953C74.5779 80.6953 76.2402 81.4567 77.3376 82.9796C78.4458 84.5025 79 86.1667 79 87.9507C79 89.7346 78.4458 91.3989 77.3376 92.9218C76.2294 94.4446 74.5779 95.2061 72.3723 95.2061H61.6267C54.76 95.2061 49.925 97.0009 47.1218 100.591C44.3186 104.18 42.917 109.227 42.917 115.743V175.277C42.917 180.596 44.0688 184.555 46.3613 187.155C48.6539 189.755 51.3918 191.049 54.5536 191.049C56.9439 191.049 59.4212 190.299 61.9853 188.808C62.3982 188.569 62.7893 188.449 63.1478 188.449C63.8649 188.449 64.4517 188.754 64.8971 189.341C65.3426 189.94 65.5708 190.592 65.5708 191.31C65.5708 192.148 65.1253 192.898 64.2235 193.551C58.7258 196.477 53.0324 197.946 47.1218 197.946V198Z" fill="white"/>
</g>
</svg>
