<svg width="80" height="250" viewBox="0 0 80 250" fill="none" xmlns="http://www.w3.org/2000/svg">
<g id="Type=08" clip-path="url(#clip0_319_789)">
<path id="Vector" d="M23.8174 91.6924C22.5474 93.9324 21.7374 95.5924 20.7074 97.1124C19.9374 98.2924 18.9874 99.3524 17.8974 100.232C16.6974 101.212 15.1274 101.632 13.5974 101.372C12.0674 101.112 10.7174 100.222 9.8974 98.9124C9.0574 97.6524 8.51739 96.2224 8.32739 94.7224C7.94739 91.3124 6.1774 89.1524 3.1174 87.8624C2.8174 87.7324 2.5174 87.5924 2.2374 87.4324C-1.2526 85.4524 -1.42261 82.3824 2.16739 80.5624C4.42739 79.4224 7.10739 79.0824 9.63739 78.5224C11.7474 78.0624 13.9574 77.9724 16.0474 77.4224C19.8274 76.4424 21.3274 74.5024 21.1174 70.5924C20.9374 67.2324 20.5274 63.8924 19.8874 60.5824C19.3174 57.4924 18.3474 54.4924 16.9974 51.6524C15.0174 47.6124 14.5274 42.9924 15.6174 38.6224C17.0274 32.7124 22.3574 30.3024 27.6974 33.2724C29.5674 34.3724 31.3374 35.6424 32.9774 37.0624C35.3174 39.0024 37.8474 39.4124 40.5874 38.3024C43.3974 37.1624 46.1174 35.7824 48.9274 34.6424C50.3074 34.0324 51.7674 33.6324 53.2674 33.4524C55.5574 33.2524 57.1674 34.4224 57.3474 36.7024C57.5874 38.9524 57.3774 41.2324 56.7274 43.4024C55.6674 46.4524 53.9374 49.2624 52.4974 52.1724C50.4774 56.2524 48.1974 60.2224 46.5274 64.4424C44.4274 69.7624 46.8474 73.7124 52.4774 74.6124C56.0074 75.1824 59.5974 75.4224 63.1574 75.8224C64.0174 75.9024 64.8874 76.0224 65.7374 76.1824C70.2274 77.1624 72.0374 79.8424 70.7774 84.2524C70.1174 86.4324 69.0974 88.4824 67.7574 90.3224C65.2274 93.7324 63.4474 97.6324 62.5374 101.782C61.9174 104.902 60.3474 107.742 58.0474 109.932C56.8374 111.092 55.4874 112.062 53.6874 111.352C52.0274 110.702 51.1674 109.372 50.8774 107.642C49.9574 102.192 49.0374 96.7324 48.1174 91.2824C47.9874 90.5324 47.8074 89.7924 47.5774 89.0724C47.2574 88.0724 46.6974 87.2424 45.4874 87.4824C44.2774 87.7124 44.0074 88.7724 44.0974 89.7524C44.2474 91.3624 44.6074 92.9624 44.9074 94.5524C46.0274 100.202 46.4074 105.972 46.0374 111.722C45.7274 115.832 45.1774 119.922 44.6874 124.022C43.2774 135.812 45.2274 147.182 49.1074 158.262C49.8774 160.162 51.0274 161.892 52.4774 163.342C53.9774 164.952 55.7474 165.102 57.4774 163.742C59.8874 161.902 62.1174 159.832 64.1174 157.552C65.8674 155.482 66.2174 152.712 65.5174 150.112C64.7274 147.202 63.5174 144.392 62.4874 141.542C61.5674 139.002 60.5974 136.472 59.7474 133.912C59.4974 133.082 59.4174 132.202 59.4874 131.342C59.7674 127.022 63.2774 125.092 67.1174 127.092C70.4074 128.802 72.2074 131.862 73.6974 134.962C79.5174 147.072 81.7974 159.562 77.7674 172.852C76.4874 177.062 76.2374 181.592 75.5874 185.982C75.2674 188.122 75.2274 190.322 74.8574 192.452C74.4574 194.772 73.5574 196.952 71.0074 197.642C68.4474 198.342 66.3074 197.352 64.6174 195.392C63.6274 194.242 62.7274 193.002 61.7474 191.852C58.4674 188.012 55.9074 187.862 52.1274 191.332C48.9274 194.262 45.7974 197.292 42.5474 200.172C41.2474 201.322 39.8174 202.312 38.2874 203.132C35.1974 204.782 32.2274 204.392 29.4874 202.192C25.5974 199.052 22.9174 195.192 22.7474 190.062C22.6274 186.282 22.4774 182.432 23.0074 178.712C24.1474 170.612 23.4574 163.002 19.3974 155.702C16.3374 150.062 14.1074 144.012 12.7874 137.732C11.8274 133.362 11.8974 129.092 13.7074 124.962C15.9274 119.892 18.1074 114.802 20.5674 109.862C23.1474 104.672 24.4674 99.3024 24.0974 93.5224C24.0774 93.1324 23.9874 92.7324 23.8374 91.7024L23.8174 91.6924Z" fill="white"/>
</g>
<defs>
<clipPath id="clip0_319_789">
<rect width="80" height="250" fill="white"/>
</clipPath>
</defs>
</svg>
