<svg width="59" height="250" viewBox="0 0 59 250" fill="none" xmlns="http://www.w3.org/2000/svg">
<g id="Type=09">
<path id="Vector" d="M58.5399 194.26C52.4999 196.12 46.8999 197.05 41.7499 197.05C33.8499 197.05 27.0199 194.86 21.3299 190.5C6.58993 179.18 6.59994 158.19 6.68994 154.96V120.67H0.21994L0.179932 101.91C2.68993 101.84 5.18995 101.62 7.66995 101.25C8.86995 90.35 11.1699 81.3 14.5499 74.22C21.9399 58.75 32.4499 57.08 36.6299 57.08C47.3599 57.08 55.77 66.35 55.77 78.19C55.77 87.34 52.9299 95.36 47.5299 101.91H54.0699V120.67H25.45V155.45C25.34 159.46 26.4499 170.82 32.7999 175.66C37.0899 178.92 43.89 179.15 53.02 176.34L58.5399 194.27V194.26ZM27.64 94.69C35.9 89.49 37.0199 82.99 37.0199 78.19C37.0699 77.39 36.8599 76.6 36.4399 75.92C35.5899 76.3 33.3099 78.08 31.0199 83.35C29.8899 85.95 28.6599 89.62 27.6499 94.69H27.64Z" fill="white"/>
</g>
</svg>
