<svg width="97" height="250" viewBox="0 0 97 250" fill="none" xmlns="http://www.w3.org/2000/svg">
<g id="Type=10">
<path id="Vector" d="M31.6307 86.7922C30.0007 86.7122 28.8607 86.6022 27.7107 86.5922C20.0407 86.5622 12.3707 86.5522 4.71073 86.5322C3.87073 86.5922 3.03073 86.5622 2.21073 86.4222C0.0207312 85.8622 -0.689291 84.0422 0.750709 82.2622C4.85071 77.2122 9.09073 72.2922 13.2407 67.2822C14.3307 65.9622 15.6907 65.9922 17.1607 66.0022C32.5007 66.0922 81.8607 66.2422 91.2007 66.2822C92.0307 66.2822 92.9207 66.2222 93.6807 66.4922C95.6507 67.2022 96.1307 68.8522 94.7607 70.5322C90.6307 75.5522 86.4007 80.4822 82.2407 85.4822C81.2407 86.6822 80.0107 86.7022 78.6607 86.6922C73.0307 86.6422 67.4007 86.6522 61.7707 86.6422C60.5807 86.6422 59.3907 86.6422 57.8307 86.6422C57.7407 88.0722 57.6107 89.2722 57.6007 90.4722C57.3107 112.802 56.9807 135.122 56.8007 157.452C56.7807 160.152 56.1107 162.192 54.3307 164.132C51.7607 166.922 49.4007 169.912 46.9807 172.842C46.3707 173.572 45.8607 174.382 45.1407 175.382C51.8907 179.322 59.7507 180.932 67.5007 179.962C75.8107 179.022 83.1807 175.622 89.7707 170.322C90.5307 169.712 91.2507 169.052 92.0007 168.432C94.4207 166.452 94.5908 166.482 96.9808 169.352C96.4908 170.212 96.0207 171.202 95.4107 172.082C91.6907 177.462 88.3307 183.212 83.8407 188.012C75.9207 196.482 63.8007 201.732 52.2107 201.822C36.9207 201.932 23.3707 193.082 15.2107 180.492C7.54073 168.652 4.93072 155.372 5.98072 141.272C6.95072 128.292 11.2507 116.502 18.4207 105.862C22.1307 100.352 26.0207 94.9622 29.8207 89.5122C30.3507 88.7422 30.8507 87.9522 31.6307 86.7622V86.7922ZM38.1507 170.212L38.8907 169.882C39.2207 144.462 39.5507 114.422 39.9007 88.1222C39.9007 88.5722 37.1407 90.8822 36.7707 91.3322C35.2707 93.1022 33.9007 94.9622 32.4607 96.7822C24.4507 106.932 21.6307 120.402 22.3207 133.152C23.0107 145.952 26.8407 157.552 35.1907 167.242C36.1007 168.302 37.1607 169.232 38.1507 170.222V170.212Z" fill="white"/>
</g>
</svg>
