<svg width="144" height="38" viewBox="0 0 144 38" fill="none" xmlns="http://www.w3.org/2000/svg">
<path d="M19.4956 23.9962C19.4956 27.8237 16.5803 30.0379 10.9928 30.0379H0V7.89539H10.3855C15.6997 7.89539 18.4327 10.2045 18.4327 13.6524C18.4327 15.8667 17.3395 17.5748 15.6086 18.5238C17.9772 19.3146 19.4956 21.2125 19.4956 23.9962ZM4.88907 11.7545V16.9738H9.77815C12.1771 16.9738 13.4829 16.0881 13.4829 14.3484C13.4829 12.6086 12.1771 11.7545 9.77815 11.7545H4.88907ZM14.5458 23.4584C14.5458 21.5921 13.1792 20.7064 10.6284 20.7064H4.88907V26.1788H10.6284C13.1792 26.1788 14.5458 25.3564 14.5458 23.4584Z" fill="white"/>
<path d="M33.4947 13.3615V17.7343C33.1 17.7039 32.7963 17.6736 32.4319 17.6736C29.8203 17.6736 28.0894 19.1008 28.0894 22.2286V29.9418H23.3522V13.6044H27.8768V15.7604C29.0308 14.1814 30.9743 13.3615 33.4947 13.3615Z" fill="white"/>
<path d="M40.5885 24.7354V29.8871H35.4382V24.7354H40.59H40.5885Z" fill="white"/>
<path d="M56.8348 8.94764C56.4749 8.83072 56.0301 8.77303 55.5002 8.77303C54.3978 8.77303 53.5309 9.02659 52.8947 9.53524C52.2585 10.0439 51.9412 10.7226 51.9412 11.5683C51.9412 12.6281 52.2691 13.5376 52.9266 14.3013C53.5825 15.0635 54.7273 15.9533 56.358 16.9706C57.8399 17.9241 59.0166 18.952 59.8851 20.0528C60.7536 21.1551 61.1879 22.426 61.1879 23.8654C61.2091 25.1788 60.8812 26.3813 60.2025 27.4715C59.5238 28.5631 58.5019 29.4362 57.1354 30.0921C55.7689 30.748 54.1002 31.0775 52.1309 31.0775C50.5428 31.0775 49.0214 30.9075 47.5714 30.5689C46.1198 30.2303 45.1936 29.8917 44.7913 29.5516L45.681 24.658H48.8589L49.0183 28.1213C49.7805 28.7788 50.7766 29.1067 52.0049 29.1067C53.4671 29.1067 54.5315 28.8152 55.198 28.2337C55.8661 27.6506 56.1986 26.8732 56.1986 25.8985C56.1986 24.9237 55.8964 24.1038 55.2937 23.3719C54.6894 22.6416 53.6463 21.8095 52.1643 20.8773C50.5959 19.8812 49.3676 18.8123 48.4778 17.6675C47.5881 16.5242 47.1432 15.1896 47.1432 13.6636C47.1432 11.503 47.954 9.82372 49.574 8.62727C51.1941 7.43081 53.297 6.83258 55.8813 6.83258C58.6978 6.83258 60.7643 7.21369 62.0776 7.9759L61.2516 12.6463H58.3288L57.884 9.5322C57.5454 9.25738 57.1946 9.06151 56.8348 8.9446V8.94764Z" fill="white"/>
<path d="M71.6887 24.3877C71.6674 24.5365 71.6462 24.6625 71.6249 24.7688C71.5399 25.4475 71.4974 25.8498 71.4974 25.9758C71.4974 26.8231 71.8891 27.2467 72.6726 27.2467C73.1175 27.2467 73.5775 27.1784 74.0543 27.0402C74.531 26.902 74.9486 26.6743 75.3099 26.357L75.691 27.564C75.0761 28.2427 74.2456 28.8455 73.1964 29.3754C72.1472 29.9053 70.8931 30.1695 69.4309 30.1695C68.5624 30.1695 67.8473 29.9524 67.2855 29.5182C66.7237 29.0839 66.4428 28.3688 66.4428 27.3727C66.4428 26.9704 66.581 25.7633 66.8558 23.75L68.0948 14.6945H66.2196L66.6007 13.0107L68.5078 12.2804C69.1849 11.708 70.0109 10.2473 70.9857 7.89539H73.8766L73.3361 12.2166H76.8951L76.5459 14.6945H72.9869L71.7479 23.8456C71.7267 24.0582 71.7054 24.2373 71.6841 24.3861L71.6887 24.3877Z" fill="white"/>
<path d="M94.8936 13.7638C96.09 15.0453 96.6883 16.925 96.6883 19.4044C96.6883 21.4178 96.2753 23.2595 95.4493 24.9327C94.6233 26.606 93.4572 27.93 91.9541 28.9047C90.4494 29.8795 88.7018 30.3669 86.7112 30.3669C84.3806 30.3669 82.6223 29.7155 81.4365 28.4128C80.2507 27.11 79.657 25.2197 79.657 22.7418C79.657 20.73 80.07 18.8928 80.896 17.2287C81.7219 15.5661 82.8865 14.2527 84.3912 13.2885C85.8959 12.3244 87.6329 11.8431 89.6021 11.8431C91.9313 11.8431 93.6956 12.4838 94.8921 13.7653L94.8936 13.7638ZM86.775 15.4157C86.1813 16.3586 85.7531 17.5399 85.489 18.958C85.2232 20.3777 85.1124 21.808 85.1549 23.2474C85.2187 25.0906 85.4252 26.404 85.7744 27.1875C86.1236 27.971 86.6793 28.3627 87.4431 28.3627C88.6927 28.3627 89.6189 27.4942 90.2232 25.7572C90.8275 24.0202 91.1281 21.9871 91.1281 19.6565C91.1281 17.5597 90.9641 16.0929 90.6361 15.2563C90.3067 14.4197 89.7722 14.0006 89.0312 14.0006C88.1202 14.0006 87.3687 14.4729 86.775 15.4142V15.4157Z" fill="white"/>
<path d="M108.653 13.4829C109.564 12.5932 110.612 12.1483 111.799 12.1483C112.265 12.1483 112.625 12.2546 112.88 12.4656L111.831 17.8998C111.746 17.7935 111.545 17.6781 111.226 17.5506C110.909 17.423 110.528 17.3593 110.083 17.3593C109.426 17.3593 108.817 17.4276 108.257 17.5658C107.695 17.7039 107.267 17.8998 106.969 18.1534L105.317 30.1954H100.423L102.425 15.229L100.773 14.3393L101.026 12.9728L106.11 12.1468L106.936 12.6873L106.776 15.6101L106.712 16.7535C107.094 15.4613 107.739 14.3696 108.651 13.4799L108.653 13.4829Z" fill="white"/>
<path d="M125.382 12.9955C126.346 12.329 127.4 11.9949 128.543 11.9949C131.085 11.9949 132.483 13.2764 132.737 15.8394C133.435 14.611 134.31 13.6621 135.358 12.9955C136.405 12.329 137.587 11.9949 138.9 11.9949C140.213 11.9949 141.171 12.3654 141.903 13.1064C142.634 13.8488 142.999 15.0453 142.999 16.6973C142.999 17.3122 142.746 19.1433 142.237 22.1937C142.195 22.4472 142.152 22.6598 142.11 22.8283C141.75 24.8614 141.569 26.2067 141.569 26.8641C141.569 27.2027 141.622 27.4304 141.729 27.5474C141.835 27.6643 141.982 27.722 142.173 27.722C142.344 27.722 142.527 27.6749 142.729 27.5792C142.93 27.4836 143.21 27.2983 143.572 27.0235L144.017 28.1046C143.657 28.592 143.091 29.09 142.316 29.5986C141.543 30.1073 140.562 30.3608 139.377 30.3608C138.191 30.3608 137.327 30.1164 136.914 29.6305C136.501 29.1447 136.294 28.5191 136.294 27.7554C136.294 27.0994 136.537 25.5735 137.025 23.1806C137.491 20.5326 137.723 18.6164 137.723 17.4291C137.723 16.4968 137.628 15.8667 137.438 15.5388C137.246 15.2108 136.918 15.0468 136.452 15.0468C135.837 15.0468 135.186 15.349 134.498 15.9517C133.809 16.556 133.221 17.3334 132.735 18.287C132.672 19.4303 132.544 20.733 132.354 22.1952L131.433 30.0435H126.317L127.207 23.1806C127.524 20.8712 127.684 19.0082 127.684 17.5885C127.684 16.5515 127.578 15.8682 127.367 15.5388C127.154 15.2108 126.773 15.0468 126.223 15.0468C125.674 15.0468 125.036 15.3854 124.316 16.0641C123.595 16.7428 122.992 17.5688 122.505 18.542L120.917 30.045H115.991L118.024 15.0787L116.372 14.1889L116.626 12.8224L122.313 11.9965L123.139 12.3776L122.886 15.6815C123.584 14.5594 124.416 13.6636 125.381 12.997L125.382 12.9955Z" fill="white"/>
</svg>
