<svg width="197" height="60" viewBox="0 0 197 60" fill="none" xmlns="http://www.w3.org/2000/svg">

  <path
    d="M109.569 35.2452C109.623 36.5669 109.334 37.8823 108.734 39.0608C108.192 40.0422 107.397 40.8618 106.431 41.4323C105.354 42.0465 104.172 42.4573 102.947 42.6461C101.496 42.8909 100.024 43.0071 98.552 42.9968C97.3 42.9968 96.1726 42.947 95.1718 42.8598C94.1711 42.7727 93.0956 42.6461 91.9308 42.5092V17.5904C92.8153 17.4535 93.7766 17.3373 94.8272 17.2439C95.8757 17.1506 97.0903 17.107 98.4876 17.107C99.7313 17.1008 100.973 17.2107 102.196 17.4369C103.257 17.6195 104.276 17.9909 105.206 18.5345C106.054 19.0428 106.755 19.7628 107.245 20.6218C107.781 21.6343 108.041 22.7713 107.999 23.9166C108.011 24.9561 107.758 25.9831 107.262 26.8981C106.83 27.7322 106.195 28.4439 105.416 28.9688C105.962 29.1825 106.485 29.4585 106.971 29.7863C107.476 30.1286 107.922 30.5519 108.29 31.0374C108.697 31.581 109.01 32.1869 109.218 32.8322C109.463 33.6123 109.583 34.4256 109.569 35.2431V35.2452ZM97.9644 27.0973H98.9423C99.7666 27.145 100.583 26.9313 101.278 26.4873C101.828 26.0869 102.113 25.3897 102.113 24.3834C102.129 23.9581 102.026 23.5348 101.816 23.1634C101.631 22.8522 101.376 22.5887 101.068 22.3937C100.757 22.2069 100.414 22.0783 100.057 22.014C99.696 21.9434 99.3264 21.9082 98.9589 21.9102H98.4544C98.2862 21.9102 98.116 21.9185 97.9499 21.9434L97.9665 27.0932L97.9644 27.0973ZM97.9644 32.0396V37.8864C98.1284 37.8864 98.3319 37.93 98.5748 37.9404C98.8178 37.9508 99.125 37.9404 99.5361 37.9404C99.9867 37.9383 100.435 37.8906 100.877 37.7972C101.313 37.7122 101.731 37.5545 102.113 37.3304C102.484 37.1105 102.79 36.7992 103.004 36.4237C103.238 35.9797 103.352 35.4817 103.334 34.9796C103.334 33.882 102.968 33.1081 102.235 32.662C101.363 32.1993 100.381 31.9773 99.395 32.0188L97.9665 32.0354L97.9644 32.0396Z"
    fill="white" />
  <path
    d="M116.85 42.4884C116.3 42.5818 115.829 42.6523 115.388 42.698C114.959 42.7457 114.529 42.7685 114.097 42.7685C113.613 42.7665 113.131 42.7353 112.652 42.6814C112.102 42.6212 111.497 42.5382 110.823 42.4179L118.625 17.5614C119.229 17.4908 119.796 17.4348 120.317 17.385C120.839 17.3352 121.366 17.3186 121.906 17.3186C122.346 17.3186 122.83 17.3186 123.351 17.385C123.872 17.4514 124.449 17.4888 125.143 17.5614L132.835 42.4573C131.683 42.6503 130.516 42.7561 129.347 42.7706C128.882 42.7706 128.419 42.7478 127.956 42.7001C127.489 42.6565 126.988 42.5839 126.457 42.4905L125.132 37.652C124.52 37.8304 123.899 37.9694 123.27 38.069C122.688 38.1603 122.101 38.206 121.511 38.206C120.959 38.206 120.409 38.1665 119.863 38.0856C119.275 37.9985 118.694 37.8761 118.121 37.7184L116.852 42.4905L116.85 42.4884ZM121.729 24.1054L119.393 33.0562C119.79 33.1724 120.158 33.2658 120.492 33.3301C120.853 33.4048 121.223 33.4422 121.59 33.4401C121.983 33.4401 122.373 33.409 122.761 33.3529C123.166 33.2886 123.569 33.1994 123.965 33.0894L121.729 24.1054Z"
    fill="white" />
  <path
    d="M181.015 42.4884C180.465 42.5818 179.993 42.6523 179.553 42.698C179.123 42.7457 178.694 42.7685 178.262 42.7685C177.778 42.7665 177.296 42.7353 176.817 42.6814C176.266 42.6212 175.662 42.5382 174.987 42.4179L182.79 17.5614C183.394 17.4908 183.961 17.4348 184.482 17.385C185.003 17.3352 185.531 17.3186 186.071 17.3186C186.511 17.3186 186.994 17.3186 187.516 17.385C188.037 17.4514 188.614 17.4888 189.307 17.5614L197 42.4573C195.848 42.6503 194.681 42.7561 193.512 42.7706C193.047 42.7706 192.584 42.7478 192.121 42.7001C191.654 42.6565 191.153 42.5839 190.622 42.4905L189.297 37.652C188.685 37.8304 188.064 37.9694 187.435 38.069C186.853 38.1603 186.266 38.206 185.676 38.206C185.124 38.206 184.574 38.1665 184.027 38.0856C183.44 37.9985 182.859 37.8761 182.285 37.7184L181.017 42.4905L181.015 42.4884ZM185.894 24.1054L183.558 33.0562C183.955 33.1724 184.322 33.2658 184.657 33.3301C185.018 33.4048 185.387 33.4422 185.755 33.4401C186.147 33.4401 186.538 33.409 186.926 33.3529C187.331 33.2886 187.734 33.1994 188.13 33.0894L185.894 24.1054Z"
    fill="white" />
  <path
    d="M73.6056 42.4884C73.0554 42.5818 72.5841 42.6523 72.1439 42.698C71.7142 42.7457 71.2844 42.7685 70.8525 42.7685C70.3687 42.7665 69.8871 42.7353 69.4074 42.6814C68.8572 42.6212 68.253 42.5382 67.5782 42.4179L75.3808 17.5614C75.985 17.4908 76.5519 17.4348 77.073 17.385C77.5941 17.3352 78.1215 17.3186 78.6613 17.3186C79.1015 17.3186 79.5853 17.3186 80.1064 17.385C80.6276 17.4514 81.2048 17.4888 81.8982 17.5614L89.5908 42.4573C88.4385 42.6503 87.2716 42.7561 86.1027 42.7706C85.6376 42.7706 85.1746 42.7478 84.7116 42.7001C84.2444 42.6565 83.744 42.5839 83.2125 42.4905L81.8879 37.652C81.2754 37.8304 80.6545 37.9694 80.0254 38.069C79.4441 38.1603 78.8565 38.206 78.2668 38.206C77.7146 38.206 77.1644 38.1665 76.6183 38.0856C76.0307 37.9985 75.4494 37.8761 74.8763 37.7184L73.6077 42.4905L73.6056 42.4884ZM78.4849 24.1054L76.1491 33.0562C76.5456 33.1724 76.9131 33.2658 77.2474 33.3301C77.6087 33.4048 77.9782 33.4422 78.3457 33.4401C78.7382 33.4401 79.1285 33.409 79.5168 33.3529C79.9216 33.2886 80.3244 33.1994 80.721 33.0894L78.4849 24.1054Z"
    fill="white" />
  <path
    d="M135.109 17.5925L138.262 17.2626C139.274 17.1568 140.289 17.1049 141.306 17.1091C142.598 17.1091 143.885 17.2315 145.154 17.4722C146.358 17.6921 147.512 18.1236 148.565 18.7461C149.57 19.3561 150.409 20.2047 151.005 21.2172C151.673 22.431 151.997 23.8025 151.945 25.1864C151.955 25.9665 151.856 26.7446 151.648 27.4977C151.474 28.1368 151.216 28.753 150.884 29.3257C150.593 29.8299 150.243 30.2988 149.84 30.72C149.489 31.0851 149.109 31.4212 148.708 31.7304L154.142 42.4552C153.592 42.5486 152.971 42.615 152.313 42.6648C151.652 42.7146 151.054 42.7353 150.517 42.7353C149.979 42.7353 149.512 42.7083 148.901 42.6648C148.357 42.6274 147.815 42.5569 147.28 42.4552L142.334 31.0665L142.648 30.8963C142.988 30.7096 143.3 30.4751 143.571 30.1992C143.933 29.8485 144.25 29.4564 144.516 29.029C144.815 28.5538 145.06 28.0476 145.247 27.5185C145.444 26.9583 145.546 26.367 145.544 25.7715C145.625 24.8212 145.266 23.8855 144.566 23.234C143.887 22.6883 143.036 22.404 142.166 22.4331C141.967 22.431 141.769 22.4414 141.572 22.4663C141.464 22.4766 141.36 22.4995 141.259 22.5368V42.4531C140.258 42.6399 139.242 42.7436 138.225 42.7664C137.185 42.7498 136.149 42.644 135.125 42.4531L135.109 17.5904V17.5925Z"
    fill="white" />
  <path
    d="M161.38 30.0954C161.38 35.0149 163.446 37.4756 167.577 37.4756C168.285 37.4777 168.993 37.4092 169.687 37.2661C170.507 37.0814 171.317 36.849 172.11 36.5689C172.864 38.206 173.381 39.9426 173.642 41.7249C172.965 41.978 172.34 42.1855 171.757 42.3515C171.215 42.5029 170.665 42.6253 170.108 42.7146C169.558 42.7976 169.047 42.8577 168.52 42.8909C167.993 42.9241 167.459 42.9449 166.905 42.9449C165.121 42.9801 163.35 42.6523 161.695 41.9842C160.256 41.3888 158.971 40.48 157.931 39.3201C156.893 38.1375 156.114 36.7494 155.645 35.2452C155.122 33.5791 154.864 31.8404 154.881 30.0954C154.866 28.3401 155.136 26.5931 155.682 24.9229C156.175 23.4103 156.959 22.0077 157.995 20.8002C159.023 19.6155 160.304 18.6776 161.743 18.0552C163.342 17.385 165.063 17.0551 166.799 17.0842C167.86 17.0779 168.921 17.1589 169.969 17.3248C171.113 17.5323 172.234 17.8601 173.31 18.3021C173.256 19.2378 173.071 20.1632 172.76 21.0471C172.494 21.848 172.18 22.6323 171.819 23.3979C171.352 23.234 170.928 23.095 170.551 22.9808C170.189 22.8688 169.822 22.7754 169.452 22.7007C169.101 22.6302 168.755 22.5804 168.408 22.541C168.061 22.5015 167.687 22.4912 167.31 22.4912C165.628 22.3916 163.998 23.095 162.914 24.3855C161.888 25.6843 161.376 27.589 161.376 30.0954H161.38Z"
    fill="white" />
  <path
    d="M56.6115 39.4364C56.6115 39.4364 55.1519 39.4177 53.6673 38.5899C52.1828 37.7641 51.9295 37.1645 51.2693 37.2309C50.609 37.2972 50.8125 36.4777 50.8125 36.4777C50.8125 36.4777 50.8374 36.1125 50.281 35.7515C50.2145 35.7079 50.0754 35.6395 49.8865 35.5502C50.9121 31.9089 50.9121 28.0933 49.8865 24.452C50.0775 24.3627 50.2166 24.2943 50.281 24.2507C50.8374 23.8897 50.8125 23.5245 50.8125 23.5245C50.8125 23.5245 50.609 22.707 51.2693 22.7713C51.9295 22.8377 52.1807 22.2381 53.6673 21.4123C55.1519 20.5845 56.6115 20.5658 56.6115 20.5658C60.4962 19.879 60.1121 18.0677 59.948 17.6133C59.7425 17.1755 58.7334 15.6235 55.4986 17.883C55.4986 17.883 54.4522 18.9018 52.8182 19.3665C51.1821 19.8313 50.5799 19.5865 50.1605 20.099C49.7411 20.6114 49.3051 19.8894 49.3051 19.8894C49.3051 19.8894 49.0643 19.6135 48.4165 19.7504C48.3397 19.767 48.1902 19.8168 47.9929 19.8894C46.3817 17.022 44.1165 14.5903 41.3426 12.7707C40.9502 12.5134 40.5474 12.2706 40.1405 12.0424C40.2132 11.8432 40.263 11.6959 40.2796 11.6191C40.4166 10.9718 40.1405 10.7311 40.1405 10.7311C40.1405 10.7311 39.418 10.2954 39.9308 9.87626C40.4436 9.45715 40.1986 8.85544 40.6637 7.22048C41.1288 5.58551 42.1482 4.54187 42.1482 4.54187C44.4093 1.30928 42.8562 0.302986 42.4182 0.0955025C41.9634 -0.0684092 40.1509 -0.452253 39.4636 3.42976C39.4636 3.42976 39.4449 4.88836 38.6165 6.37187C37.7902 7.85538 37.1901 8.1085 37.2566 8.7683C37.323 9.4281 36.5029 9.22476 36.5029 9.22476C36.5029 9.22476 36.1375 9.19987 35.7762 9.75592C35.7326 9.82232 35.6641 9.96133 35.5748 10.1522C33.7767 9.65011 31.9123 9.38868 30.0208 9.38868H30.0146C28.1293 9.38868 26.271 9.64596 24.4668 10.1522C24.3775 9.96133 24.309 9.82232 24.2654 9.75592C23.9041 9.19987 23.5387 9.22476 23.5387 9.22476C23.5387 9.22476 22.7206 9.4281 22.785 8.7683C22.8514 8.1085 22.2514 7.85745 21.4251 6.37187C20.5966 4.88836 20.5779 3.42976 20.5779 3.42976C19.8907 -0.454328 18.0802 -0.0684092 17.6255 0.0934277C17.1874 0.298836 15.6344 1.3072 17.8954 4.53979C17.8954 4.53979 18.9148 5.58551 19.3799 7.2184C19.845 8.85337 19.6 9.45507 20.1129 9.87419C20.6257 10.2933 19.9032 10.729 19.9032 10.729C19.9032 10.729 19.627 10.9697 19.764 11.617C19.7807 11.6938 19.8284 11.8411 19.9011 12.0382C16.5977 13.8869 13.8986 16.5863 12.0486 19.8853C11.8514 19.8126 11.704 19.7649 11.6272 19.7483C10.9794 19.6114 10.7385 19.8873 10.7385 19.8873C10.7385 19.8873 10.3025 20.6094 9.8831 20.0969C9.4637 19.5844 8.86158 19.8292 7.22549 19.3645C5.58939 18.8997 4.54503 17.881 4.54503 17.881C1.31021 15.6215 0.303225 17.1734 0.0955987 17.6112C-0.0684261 18.0656 -0.452535 19.877 3.43215 20.5637C3.43215 20.5637 4.89177 20.5824 6.37629 21.4103C7.86082 22.236 8.11413 22.8357 8.77438 22.7693C9.43463 22.7029 9.23116 23.5224 9.23116 23.5224C9.23116 23.5224 9.20624 23.8876 9.76268 24.2486C9.82912 24.2922 9.96823 24.3607 10.1572 24.4499C9.1315 28.0912 9.1315 31.9068 10.1572 35.5482C9.96615 35.6374 9.82704 35.7059 9.76268 35.7494C9.20624 36.1104 9.23116 36.4756 9.23116 36.4756C9.23116 36.4756 9.43463 37.2931 8.77438 37.2288C8.11413 37.1624 7.8629 37.762 6.37629 38.5878C4.89177 39.4157 3.43215 39.4343 3.43215 39.4343C-0.454611 40.1232 -0.068426 41.9324 0.0935225 42.3889C0.299073 42.8267 1.30814 44.3787 4.54295 42.1192C4.54295 42.1192 5.58939 41.1004 7.22341 40.6357C8.85951 40.1709 9.46162 40.4157 9.88103 39.9032C10.3004 39.3908 10.7364 40.1128 10.7364 40.1128C10.7364 40.1128 10.9773 40.3887 11.6251 40.2518C11.7019 40.2352 11.8514 40.1854 12.0486 40.1128C13.6598 42.9802 15.925 45.4119 18.6989 47.2315C19.0913 47.4888 19.492 47.7316 19.899 47.9598C19.8263 48.159 19.7765 48.3063 19.7599 48.3831C19.6229 49.0304 19.899 49.2711 19.899 49.2711C19.899 49.2711 20.6215 49.7068 20.1087 50.1259C19.5959 50.5451 19.8409 51.1468 19.3758 52.7817C18.9107 54.4167 17.8913 55.4603 17.8913 55.4603C15.6302 58.6929 17.1832 59.6992 17.6213 59.9067C18.076 60.0706 19.8886 60.4545 20.5759 56.5724C20.5759 56.5724 20.5945 55.1138 21.423 53.6303C22.2493 52.1468 22.8494 51.8937 22.7829 51.2339C22.7165 50.5741 23.5366 50.7774 23.5366 50.7774C23.5366 50.7774 23.902 50.8023 24.2633 50.2463C24.3069 50.1799 24.3754 50.0409 24.4647 49.85C26.2627 50.3521 28.1293 50.6135 30.0229 50.6135C31.9164 50.6135 33.7664 50.3562 35.5706 49.85C35.6599 50.0409 35.7284 50.1799 35.772 50.2463C36.1333 50.8023 36.4987 50.7774 36.4987 50.7774C36.4987 50.7774 37.3168 50.5741 37.2524 51.2339C37.186 51.8937 37.786 52.1447 38.6124 53.6303C39.4408 55.1138 39.4595 56.5724 39.4595 56.5724C40.1467 60.4545 41.9593 60.0706 42.414 59.9067C42.8521 59.7013 44.4051 58.6929 42.1441 55.4603C42.1441 55.4603 41.1246 54.4146 40.6596 52.7817C40.1945 51.1468 40.4395 50.5451 39.9266 50.1259C39.4138 49.7068 40.1363 49.2711 40.1363 49.2711C40.1363 49.2711 40.4125 49.0304 40.2754 48.3831C40.2588 48.3063 40.2111 48.159 40.1384 47.9619C43.4418 46.1132 46.1409 43.4139 47.9908 40.1149C48.1881 40.1875 48.3355 40.2352 48.4123 40.2518C49.0601 40.3887 49.301 40.1128 49.301 40.1128C49.301 40.1128 49.737 39.3908 50.1564 39.9032C50.5758 40.4157 51.1779 40.1709 52.814 40.6357C54.4501 41.1004 55.4945 42.1192 55.4945 42.1192C58.7293 44.3787 59.7363 42.8267 59.9439 42.3889C60.1079 41.9345 60.492 40.1232 56.6073 39.4364H56.6115ZM44.7955 33.436C44.32 33.2451 44.0127 33.1248 44.0127 33.1248C44.0127 33.1248 43.4127 32.9691 43.0431 33.3177C43.0431 33.3177 40.6658 32.328 38.7369 31.6807C38.7369 31.6807 38.2449 31.6807 37.8981 31.7927C37.5514 31.9048 37.2047 31.5562 37.2047 31.5562C37.2047 31.5562 36.6171 30.581 35.8032 30.4005C35.8219 30.137 35.8219 29.8714 35.8032 29.6058C36.6171 29.4253 37.2047 28.4502 37.2047 28.4502C37.2047 28.4502 37.5514 28.1016 37.8981 28.2136C38.2449 28.3257 38.7369 28.3257 38.7369 28.3257C40.6658 27.6783 43.0431 26.6886 43.0431 26.6886C43.4148 27.0372 44.0127 26.8816 44.0127 26.8816C44.0127 26.8816 44.32 26.7592 44.7975 26.5683C45.3374 28.8776 45.3125 31.2221 44.7975 33.4381L44.7955 33.436ZM42.9019 21.9891C42.4285 22.1904 42.1254 22.3232 42.1254 22.3232C42.1254 22.3232 41.5918 22.6365 41.5752 23.1448C41.5752 23.1448 39.1937 24.1241 37.3728 25.0308C37.3728 25.0308 37.0261 25.3794 36.8579 25.7031C36.6918 26.0268 36.1997 26.0247 36.1997 26.0247C36.1997 26.0247 35.0952 25.7508 34.3913 26.1969C34.2148 25.9956 34.028 25.8068 33.8286 25.6346C34.275 24.9312 34.001 23.8274 34.001 23.8274C34.001 23.8274 34.001 23.3357 34.3228 23.1697C34.6467 23.0037 34.9955 22.6552 34.9955 22.6552C35.9028 20.8355 36.8828 18.4557 36.8828 18.4557C37.3915 18.4391 37.705 17.9059 37.705 17.9059C37.705 17.9059 37.8358 17.6029 38.0372 17.1299C39.9702 18.3312 41.6479 19.9724 42.8998 21.9871L42.9019 21.9891ZM30.0146 14.8372C31.1814 14.8372 32.3358 14.9741 33.4591 15.2356C33.2681 15.7128 33.1456 16.0198 33.1456 16.0198C33.1456 16.0198 32.9898 16.6195 33.3387 16.9888C33.3387 16.9888 32.3483 19.3645 31.7005 21.292C31.7005 21.292 31.7005 21.7837 31.8126 22.1302C31.9247 22.4767 31.5759 22.8232 31.5759 22.8232C31.5759 22.8232 30.6001 23.4104 30.4194 24.2237C30.2865 24.2154 30.1537 24.2092 30.0187 24.2092C29.8837 24.2092 29.755 24.2154 29.6221 24.2237C29.4415 23.4104 28.4657 22.8232 28.4657 22.8232C28.4657 22.8232 28.1169 22.4767 28.229 22.1302C28.3411 21.7837 28.3411 21.292 28.3411 21.292C27.6933 19.3645 26.7029 16.9888 26.7029 16.9888C27.0517 16.6174 26.896 16.0198 26.896 16.0198C26.896 16.0198 26.7735 15.7128 26.5825 15.2376C27.7244 14.97 28.8747 14.8372 30.0146 14.8372ZM22.0023 17.132C22.2037 17.6029 22.3345 17.9079 22.3345 17.9079C22.3345 17.9079 22.648 18.4412 23.1567 18.4578C23.1567 18.4578 24.1367 20.8376 25.044 22.6572C25.044 22.6572 25.3928 23.0037 25.7167 23.1718C26.0406 23.3398 26.0385 23.8295 26.0385 23.8295C26.0385 23.8295 25.7644 24.9333 26.2108 25.6367C26.0094 25.813 25.8205 25.9998 25.6482 26.199C24.9443 25.7529 23.8397 26.0268 23.8397 26.0268C23.8397 26.0268 23.3477 26.0268 23.1816 25.7052C23.0155 25.3815 22.6667 25.0329 22.6667 25.0329C20.8458 24.1262 18.4643 23.1469 18.4643 23.1469C18.4477 22.6386 17.9141 22.3253 17.9141 22.3253C17.9141 22.3253 17.611 22.1945 17.1396 21.9933C18.3418 20.0616 19.9841 18.3851 21.9981 17.134L22.0023 17.132ZM15.2461 26.5683C15.7216 26.7592 16.0288 26.8795 16.0288 26.8795C16.0288 26.8795 16.6289 27.0351 16.9985 26.6866C16.9985 26.6866 19.3758 27.6762 21.3046 28.3236C21.3046 28.3236 21.7967 28.3236 22.1434 28.2116C22.4902 28.0995 22.8369 28.4481 22.8369 28.4481C22.8369 28.4481 23.4245 29.4233 24.2384 29.6038C24.2197 29.8673 24.2197 30.1329 24.2384 30.3984C23.4245 30.5789 22.8369 31.5541 22.8369 31.5541C22.8369 31.5541 22.4902 31.9027 22.1434 31.7906C21.7967 31.6786 21.3046 31.6786 21.3046 31.6786C19.3758 32.3259 16.9985 33.3156 16.9985 33.3156C16.6268 32.9671 16.0288 33.1227 16.0288 33.1227C16.0288 33.1227 15.7216 33.2451 15.244 33.436C14.7042 31.1267 14.7291 28.7821 15.244 26.5662L15.2461 26.5683ZM17.1396 38.0151C17.613 37.8139 17.9162 37.6811 17.9162 37.6811C17.9162 37.6811 18.4498 37.3678 18.4664 36.8595C18.4664 36.8595 20.8479 35.8801 22.6687 34.9734C22.6687 34.9734 23.0155 34.6249 23.1836 34.3012C23.3497 33.9775 23.8418 33.9796 23.8418 33.9796C23.8418 33.9796 24.9464 34.2535 25.6502 33.8074C25.8267 34.0086 26.0136 34.1974 26.2129 34.3697C25.7665 35.073 26.0406 36.1768 26.0406 36.1768C26.0406 36.1768 26.0406 36.6686 25.7188 36.8346C25.3949 37.0005 25.0461 37.3491 25.0461 37.3491C24.1387 39.1687 23.1587 41.5486 23.1587 41.5486C22.65 41.5652 22.3365 42.0984 22.3365 42.0984C22.3365 42.0984 22.2057 42.4013 22.0043 42.8744C20.0713 41.6731 18.3937 40.0319 17.1417 38.0172L17.1396 38.0151ZM30.027 45.1671C28.8602 45.1671 27.7057 45.0301 26.5825 44.7687C26.7735 44.2915 26.896 43.9844 26.896 43.9844C26.896 43.9844 27.0517 43.3848 26.7029 43.0155C26.7029 43.0155 27.6933 40.6398 28.3411 38.7123C28.3411 38.7123 28.3411 38.2205 28.229 37.874C28.1169 37.5276 28.4657 37.1811 28.4657 37.1811C28.4657 37.1811 29.4415 36.5939 29.6221 35.7805C29.755 35.7888 29.8879 35.7951 30.0229 35.7951C30.1578 35.7951 30.2865 35.7888 30.4194 35.7805C30.6001 36.5939 31.5759 37.1811 31.5759 37.1811C31.5759 37.1811 31.9247 37.5276 31.8126 37.874C31.7005 38.2205 31.7005 38.7123 31.7005 38.7123C32.3483 40.6398 33.3387 43.0155 33.3387 43.0155C32.9898 43.3869 33.1456 43.9844 33.1456 43.9844C33.1456 43.9844 33.2681 44.2915 33.4591 44.7666C32.3171 45.0343 31.1669 45.1671 30.027 45.1671ZM38.0393 42.8723C37.8379 42.4013 37.7071 42.0963 37.7071 42.0963C37.7071 42.0963 37.3936 41.5631 36.8849 41.5465C36.8849 41.5465 35.9049 39.1667 34.9976 37.347C34.9976 37.347 34.6488 37.0005 34.3249 36.8325C34.001 36.6665 34.0031 36.1748 34.0031 36.1748C34.0031 36.1748 34.2771 35.071 33.8307 34.3676C34.0321 34.1912 34.2211 34.0045 34.3934 33.8053C35.0972 34.2514 36.2018 33.9775 36.2018 33.9775C36.2018 33.9775 36.6939 33.9775 36.86 34.2991C37.0261 34.6228 37.3749 34.9714 37.3749 34.9714C39.1958 35.8781 41.5773 36.8574 41.5773 36.8574C41.5939 37.3657 42.1275 37.679 42.1275 37.679C42.1275 37.679 42.4306 37.8097 42.9019 38.011C41.6998 39.9427 40.0574 41.6191 38.0414 42.8702L38.0393 42.8723Z"
    fill="#00AEEF" />

  <defs>
    <clipPath id="clip0_520_1451">
      <rect width="197" height="60" fill="white" />
    </clipPath>
  </defs>
</svg>