<svg width="24" height="20" viewBox="0 0 24 20" fill="none" xmlns="http://www.w3.org/2000/svg">
<g id="Behance">
<path id="Vector" d="M6.98112 3C7.67263 3 8.31164 3.05224 8.89815 3.20895C9.48316 3.31343 9.96467 3.53134 10.3922 3.79253C10.8212 4.05522 11.1377 4.42835 11.3537 4.90745C11.5637 5.38506 11.6777 5.96864 11.6777 6.60446C11.6777 7.34476 11.5187 7.98058 11.1437 8.45819C10.8212 8.9358 10.2947 9.36266 9.64816 9.67758C10.5572 9.94027 11.2487 10.4179 11.6702 11.0537C12.0917 11.6895 12.3617 12.482 12.3617 13.3865C12.3617 14.1268 12.2042 14.7626 11.9342 15.294C11.6649 15.8288 11.2607 16.2849 10.7612 16.6179C10.2812 16.9387 9.69466 17.1999 9.05565 17.3581C8.42969 17.5226 7.78596 17.6108 7.13862 17.6208L0 17.6313V3H6.98112ZM6.55361 8.93729C7.13862 8.93729 7.61863 8.78057 7.98913 8.51192C8.35814 8.24326 8.52164 7.77013 8.52164 7.18804C8.52164 6.86566 8.46914 6.55222 8.36414 6.34178C8.25049 6.12849 8.08559 5.94647 7.88413 5.81193C7.66653 5.69387 7.43393 5.60551 7.19262 5.54924C6.92862 5.497 6.65861 5.497 6.34211 5.497H3.25505V8.94475C3.25505 8.93729 6.55511 8.93729 6.55511 8.93729H6.55361ZM6.71111 15.1955C7.03362 15.1955 7.35012 15.1432 7.62013 15.091C7.88413 15.0388 8.15414 14.9328 8.36414 14.7686C8.57414 14.6044 8.73915 14.4477 8.89815 14.1865C9.00315 13.9238 9.10815 13.6029 9.10815 13.2298C9.10815 12.4895 8.89815 11.9582 8.46914 11.585C8.04164 11.2641 7.45513 11.1074 6.76361 11.1074H3.25505V15.188H6.71261V15.1955H6.71111ZM16.9983 15.1432C17.4273 15.5686 18.0648 15.7791 18.9153 15.7791C19.5003 15.7791 20.0343 15.6208 20.4633 15.3522C20.8909 15.0313 21.1534 14.7164 21.2584 14.397H23.8684C23.4394 15.6671 22.8004 16.5716 21.9514 17.1552C21.1024 17.685 20.0868 17.9999 18.8613 17.9999C18.0777 18.0034 17.3004 17.8591 16.5708 17.5746C15.9141 17.3317 15.3281 16.9307 14.8653 16.4074C14.3715 15.9195 14.0049 15.319 13.7972 14.6582C13.5347 13.9701 13.4222 13.2298 13.4222 12.3776C13.4222 11.585 13.5272 10.8373 13.7972 10.1492C14.0672 9.46266 14.4362 8.87759 14.9178 8.34774C15.3978 7.87013 15.9843 7.44327 16.6233 7.18058C17.3358 6.89831 18.0959 6.75394 18.8628 6.75521C19.7718 6.75521 20.5683 6.91192 21.2599 7.28506C21.9499 7.65819 22.4854 8.07908 22.9129 8.7149C23.3404 9.29699 23.6569 9.98505 23.8744 10.7268C23.9794 11.4671 24.0319 12.2134 23.9794 13.0597H16.2543C16.2543 13.9253 16.5693 14.7164 16.9983 15.1432ZM20.3583 9.57311C19.9833 9.19997 19.3953 8.98953 18.7038 8.98953C18.2238 8.98953 17.8548 9.09401 17.5323 9.25221C17.2098 9.40893 16.9983 9.62535 16.7883 9.8343C16.5922 10.0392 16.4617 10.2973 16.4133 10.5761C16.3593 10.8373 16.3083 11.0537 16.3083 11.2627H21.1024C20.9974 10.4776 20.7274 9.94624 20.3568 9.57311H20.3583ZM15.6678 4.00895H21.6349V5.4373H15.6678V4.00895Z" fill="white"/>
</g>
</svg>
