<svg width="20" height="20" viewBox="0 0 20 20" fill="none" xmlns="http://www.w3.org/2000/svg">
<g id="Behance">
<path id="Vector" d="M5.8175 3.75C6.39375 3.75 6.92625 3.79375 7.415 3.925C7.9025 4.0125 8.30375 4.195 8.66 4.41375C9.0175 4.63375 9.28125 4.94625 9.46125 5.3475C9.63625 5.7475 9.73125 6.23625 9.73125 6.76875C9.73125 7.38875 9.59875 7.92125 9.28625 8.32125C9.0175 8.72125 8.57875 9.07875 8.04 9.3425C8.7975 9.5625 9.37375 9.9625 9.725 10.495C10.0762 11.0275 10.3012 11.6912 10.3012 12.4487C10.3012 13.0687 10.17 13.6013 9.945 14.0463C9.72055 14.4942 9.38375 14.8762 8.9675 15.155C8.5675 15.4237 8.07875 15.6425 7.54625 15.775C7.02462 15.9128 6.48819 15.9866 5.94875 15.995L0 16.0038V3.75H5.8175ZM5.46125 8.7225C5.94875 8.7225 6.34875 8.59125 6.6575 8.36625C6.965 8.14125 7.10125 7.745 7.10125 7.2575C7.10125 6.9875 7.0575 6.725 6.97 6.54875C6.87529 6.37012 6.73788 6.21768 6.57 6.105C6.38867 6.00613 6.19484 5.93213 5.99375 5.885C5.77375 5.84125 5.54875 5.84125 5.285 5.84125H2.7125V8.72875C2.7125 8.7225 5.4625 8.7225 5.4625 8.7225H5.46125ZM5.5925 13.9637C5.86125 13.9637 6.125 13.92 6.35 13.8762C6.57 13.8325 6.795 13.7438 6.97 13.6063C7.145 13.4688 7.2825 13.3375 7.415 13.1187C7.5025 12.8988 7.59 12.63 7.59 12.3175C7.59 11.6975 7.415 11.2525 7.0575 10.94C6.70125 10.6712 6.2125 10.54 5.63625 10.54H2.7125V13.9575H5.59375V13.9637H5.5925ZM14.165 13.92C14.5225 14.2762 15.0537 14.4525 15.7625 14.4525C16.25 14.4525 16.695 14.32 17.0525 14.095C17.4087 13.8263 17.6275 13.5625 17.715 13.295H19.89C19.5325 14.3587 19 15.1163 18.2925 15.605C17.585 16.0487 16.7387 16.3125 15.7175 16.3125C15.0645 16.3154 14.4168 16.1945 13.8087 15.9563C13.2615 15.7528 12.7732 15.417 12.3875 14.9788C11.9761 14.5701 11.6706 14.0672 11.4975 13.5138C11.2787 12.9375 11.185 12.3175 11.185 11.6038C11.185 10.94 11.2725 10.3137 11.4975 9.7375C11.7225 9.1625 12.03 8.6725 12.4312 8.22875C12.8312 7.82875 13.32 7.47125 13.8525 7.25125C14.4463 7.01485 15.0797 6.89393 15.7187 6.895C16.4762 6.895 17.14 7.02625 17.7162 7.33875C18.2912 7.65125 18.7375 8.00375 19.0937 8.53625C19.45 9.02375 19.7137 9.6 19.895 10.2213C19.9825 10.8412 20.0262 11.4662 19.9825 12.175H13.545C13.545 12.9 13.8075 13.5625 14.165 13.92ZM16.965 9.255C16.6525 8.9425 16.1625 8.76625 15.5862 8.76625C15.1862 8.76625 14.8787 8.85375 14.61 8.98625C14.3412 9.1175 14.165 9.29875 13.99 9.47375C13.8266 9.64532 13.7178 9.86154 13.6775 10.095C13.6325 10.3138 13.59 10.495 13.59 10.67H17.585C17.4975 10.0125 17.2725 9.5675 16.9637 9.255H16.965ZM13.0562 4.595H18.0287V5.79125H13.0562V4.595Z" fill="white"/>
</g>
</svg>
