<svg width="24" height="20" viewBox="0 0 24 20" fill="none" xmlns="http://www.w3.org/2000/svg">
<path d="M7.39936 5C8.03324 5 8.619 5.04527 9.15664 5.18109C9.6929 5.27164 10.1343 5.4605 10.5262 5.68686C10.9194 5.91452 11.2095 6.23791 11.4075 6.65313C11.6001 7.06706 11.7046 7.57283 11.7046 8.12387C11.7046 8.76546 11.5588 9.3165 11.215 9.73043C10.9194 10.1444 10.4368 10.5143 9.84415 10.7872C10.6774 11.0149 11.3113 11.4288 11.6977 11.9799C12.0841 12.5309 12.3316 13.2178 12.3316 14.0017C12.3316 14.6432 12.1872 15.1943 11.9397 15.6548C11.6928 16.1183 11.3223 16.5136 10.8644 16.8021C10.4244 17.0802 9.88678 17.3066 9.30101 17.4437C8.72722 17.5863 8.13713 17.6627 7.54374 17.6714L1 17.6804V5H7.39936ZM7.00748 10.1457C7.54374 10.1457 7.98374 10.0098 8.32337 9.777C8.66163 9.54416 8.81151 9.13411 8.81151 8.62964C8.81151 8.35024 8.76338 8.07859 8.66713 7.89621C8.56294 7.71136 8.41179 7.55361 8.22712 7.437C8.02765 7.33469 7.81444 7.25811 7.59324 7.20934C7.35123 7.16407 7.10373 7.16407 6.8136 7.16407H3.9838V10.1521C3.9838 10.1457 7.00885 10.1457 7.00885 10.1457H7.00748ZM7.15185 15.5694C7.44748 15.5694 7.73761 15.5241 7.98512 15.4789C8.22712 15.4336 8.47463 15.3417 8.66713 15.1995C8.85963 15.0572 9.01089 14.9214 9.15664 14.695C9.25289 14.4673 9.34914 14.1892 9.34914 13.8658C9.34914 13.2242 9.15664 12.7637 8.76338 12.4404C8.3715 12.1623 7.83386 12.0264 7.19998 12.0264H3.9838V15.5629H7.15323V15.5694H7.15185ZM16.5818 15.5241C16.975 15.8928 17.5594 16.0752 18.339 16.0752C18.8753 16.0752 19.3648 15.9381 19.7581 15.7052C20.1499 15.4271 20.3906 15.1542 20.4868 14.8774H22.8794C22.4861 15.9782 21.9004 16.762 21.1221 17.2678C20.3438 17.727 19.4129 17.9999 18.2895 17.9999C17.5712 18.0029 16.8587 17.8779 16.1899 17.6313C15.5879 17.4208 15.0508 17.0732 14.6265 16.6198C14.1739 16.1969 13.8378 15.6765 13.6475 15.1037C13.4068 14.5074 13.3037 13.8658 13.3037 13.1272C13.3037 12.4404 13.4 11.7923 13.6475 11.196C13.895 10.601 14.2332 10.0939 14.6746 9.63471C15.1146 9.22078 15.6522 8.85083 16.238 8.62317C16.8911 8.37853 17.5879 8.25341 18.2909 8.25451C19.1242 8.25451 19.8543 8.39033 20.4882 8.71372C21.1207 9.0371 21.6116 9.40187 22.0035 9.95291C22.3954 10.4574 22.6855 11.0537 22.8849 11.6966C22.9811 12.3382 23.0292 12.9849 22.9811 13.7184H15.8998C15.8998 14.4686 16.1885 15.1542 16.5818 15.5241ZM19.6618 10.6967C19.3181 10.3733 18.779 10.1909 18.1452 10.1909C17.7052 10.1909 17.3669 10.2815 17.0713 10.4186C16.7756 10.5544 16.5818 10.742 16.3893 10.9231C16.2095 11.1006 16.0899 11.3244 16.0455 11.5659C15.996 11.7923 15.9493 11.9799 15.9493 12.161H20.3438C20.2476 11.4806 20.0001 11.0201 19.6604 10.6967H19.6618ZM15.3621 5.87442H20.832V7.11233H15.3621V5.87442Z" fill="#00AEEF"/>
</svg>
