<svg width="16" height="16" viewBox="0 0 16 16" fill="none" xmlns="http://www.w3.org/2000/svg">
<path d="M12.796 11L3.20402 11L8.00002 5.519L12.796 11ZM13.549 10.341L8.75302 4.861C8.65916 4.75359 8.5434 4.6675 8.41353 4.60852C8.28365 4.54954 8.14266 4.51902 8.00002 4.51902C7.85738 4.51902 7.71638 4.54954 7.58651 4.60852C7.45663 4.6675 7.34088 4.75359 7.24702 4.861L2.45102 10.341C1.88502 10.988 2.34502 12 3.20402 12L12.796 12C12.9883 12.0002 13.1765 11.9449 13.3381 11.8409C13.4998 11.7368 13.628 11.5884 13.7075 11.4133C13.7869 11.2383 13.8142 11.044 13.7861 10.8538C13.758 10.6636 13.6757 10.4856 13.549 10.341Z" fill="white"/>
</svg>
