<svg width="16" height="16" viewBox="0 0 16 16" fill="none" xmlns="http://www.w3.org/2000/svg">
<path d="M12.7142 3.19056C12.9378 2.97769 13.2354 2.86 13.5441 2.86234C13.8528 2.86467 14.1486 2.98685 14.3689 3.20308C14.5893 3.41932 14.717 3.7127 14.7252 4.02132C14.7333 4.32993 14.6213 4.62965 14.4127 4.85723L8.07932 12.7779C7.97042 12.8952 7.83898 12.9893 7.69286 13.0546C7.54675 13.12 7.38896 13.1552 7.22893 13.1581C7.06889 13.1611 6.90991 13.1318 6.76147 13.0719C6.61304 13.012 6.47821 12.9228 6.36504 12.8096L2.16504 8.60961C2.04807 8.50062 1.95426 8.36919 1.88919 8.22316C1.82413 8.07713 1.78914 7.91949 1.78632 7.75965C1.7835 7.5998 1.8129 7.44102 1.87278 7.29279C1.93265 7.14455 2.02177 7.0099 2.13482 6.89685C2.24786 6.78381 2.38252 6.69469 2.53075 6.63481C2.67899 6.57494 2.83777 6.54553 2.99761 6.54835C3.15746 6.55117 3.3151 6.58616 3.46113 6.65123C3.60716 6.7163 3.73859 6.81011 3.84757 6.92707L7.17138 10.2493L12.6841 3.22548C12.694 3.21326 12.703 3.2016 12.7142 3.19056Z" fill="#00AEEF"/>
</svg>
