<svg width="20" height="20" viewBox="0 0 20 20" fill="none" xmlns="http://www.w3.org/2000/svg">
<g id="Dribbble" clip-path="url(#clip0_206_650)">
<path id="Vector" fill-rule="evenodd" clip-rule="evenodd" d="M10 0C4.48 0 0 4.48 0 10C0 15.52 4.48 20 10 20C15.51 20 20 15.52 20 10C20 4.48 15.51 0 10 0ZM16.605 4.61C17.8361 6.10909 18.5175 7.98406 18.5363 9.92375C18.2537 9.87 15.4338 9.295 12.5925 9.6525C12.5275 9.5125 12.4725 9.36 12.4075 9.20875C12.2337 8.79625 12.0388 8.37375 11.8438 7.97125C14.9888 6.6925 16.4212 4.84875 16.6063 4.60875L16.605 4.61ZM10 1.475C12.1687 1.475 14.1537 2.2875 15.6625 3.6225C15.51 3.84 14.2188 5.56375 11.1825 6.7025C9.7825 4.1325 8.2325 2.0275 7.99375 1.7025C8.65138 1.54895 9.32468 1.4726 10 1.475ZM6.36625 2.2775C7.51085 3.86381 8.56824 5.51125 9.53375 7.2125C5.5425 8.275 2.0175 8.25375 1.6375 8.25375C1.91232 6.96091 2.48207 5.74902 3.30231 4.7126C4.12256 3.67618 5.17113 2.84325 6.36625 2.27875V2.2775ZM1.45375 10.0125V9.75C1.8225 9.7625 5.96625 9.81625 10.2287 8.53625C10.4775 9.0125 10.705 9.50125 10.9225 9.98875L10.585 10.0863C6.1825 11.5075 3.84 15.39 3.64375 15.7162C2.23353 14.1507 1.45332 12.1183 1.45375 10.0112V10.0125ZM10 18.5462C8.10194 18.5492 6.25773 17.9154 4.7625 16.7463C4.9125 16.4312 6.64875 13.0913 11.4637 11.41C11.4862 11.3988 11.4963 11.3988 11.5188 11.3888C12.3305 13.4842 12.9404 15.6524 13.34 17.8638C12.285 18.3171 11.1483 18.5494 10 18.5462ZM14.7625 17.0825C14.675 16.5613 14.2188 14.0675 13.1025 10.9975C15.7812 10.575 18.1238 11.2688 18.4163 11.3663C18.2341 12.5196 17.8153 13.6227 17.1863 14.6065C16.5573 15.5902 15.7317 16.4332 14.7612 17.0825H14.7625Z" fill="white"/>
</g>
<defs>
<clipPath id="clip0_206_650">
<rect width="20" height="20" fill="white"/>
</clipPath>
</defs>
</svg>
