<svg xmlns="http://www.w3.org/2000/svg" width="400" height="400" viewBox="0 0 400 400" fill="none"><rect width="400" height="400" fill="#010101"/><path d="M245.025 115.948L217.321 143.929C212.467 139.033 206.706 135.15 200.365 132.5C194.024 129.851 187.228 128.487 180.365 128.487C173.502 128.487 166.705 129.851 160.365 132.5C154.024 135.15 148.262 139.033 143.409 143.929C138.556 148.825 134.706 154.637 132.08 161.034C129.453 167.43 128.102 174.286 128.102 181.21C128.102 188.134 129.453 194.989 132.08 201.386C134.706 207.783 138.556 213.595 143.409 218.491L115.704 246.439C99.0726 229.032 89.8773 205.735 90.0963 181.559C90.3153 157.383 99.9311 134.26 116.876 117.162C133.82 100.064 156.739 90.358 180.704 90.131C204.669 89.904 227.765 99.1743 245.025 115.948V115.948Z" fill="white"/><path d="M311.003 181.194C311.01 207.261 303.353 232.744 289 254.42C274.648 276.096 254.245 292.991 230.373 302.968C206.5 312.944 180.231 315.553 154.888 310.466C129.546 305.379 106.268 292.823 88 274.387L115.705 246.439C132.964 263.213 156.06 272.483 180.025 272.256C203.99 272.029 226.91 262.323 243.854 245.225C260.799 228.127 270.415 205.004 270.634 180.828C270.853 156.652 261.657 133.355 245.025 115.948L272.762 88C284.905 100.229 294.534 114.757 301.096 130.749C307.659 146.742 311.025 163.885 311.003 181.194V181.194Z" fill="white"/><path d="M232.636 181.193C232.629 191.619 229.56 201.809 223.816 210.475C218.072 219.142 209.911 225.898 200.364 229.889C190.817 233.879 180.311 234.927 170.174 232.898C160.037 230.869 150.723 225.856 143.409 218.491L180.381 181.193L217.32 143.929C222.184 148.815 226.04 154.622 228.669 161.018C231.297 167.413 232.646 174.27 232.636 181.193V181.193Z" fill="#E93CAC"/></svg>