<svg width="56" height="56" viewBox="0 0 56 56" fill="none" xmlns="http://www.w3.org/2000/svg">
<path d="M52.7997 36.806C52.7997 36.806 51.4383 36.788 50.0535 36.0157C48.6688 35.2434 48.4335 34.6849 47.8175 34.7477C47.2014 34.8088 47.3918 34.0455 47.3918 34.0455C47.3918 34.0455 47.4152 33.706 46.8961 33.3684C46.835 33.3288 46.7057 33.2642 46.5279 33.1798C47.4852 29.7817 47.4852 26.2183 46.5279 22.8202C46.7057 22.7376 46.835 22.673 46.8961 22.6316C47.4134 22.294 47.3918 21.9545 47.3918 21.9545C47.3918 21.9545 47.2014 21.1912 47.8175 21.2523C48.4335 21.3134 48.6688 20.7548 50.0535 19.9843C51.4383 19.212 52.7997 19.194 52.7997 19.194C56.4241 18.5528 56.0649 16.8628 55.9122 16.4389C55.72 16.0312 54.7789 14.5818 51.7634 16.6904C51.7634 16.6904 50.7881 17.6405 49.2633 18.0733C47.7385 18.5079 47.1763 18.278 46.7848 18.7576C46.3932 19.2371 45.9873 18.5618 45.9873 18.5618C45.9873 18.5618 45.7628 18.305 45.1575 18.4325C45.0857 18.4469 44.9474 18.4936 44.7624 18.5618C43.2609 15.8857 41.147 13.6155 38.5589 11.9183C38.1925 11.6776 37.8189 11.4513 37.4382 11.2376C37.5064 11.0526 37.5513 10.9125 37.5675 10.8425C37.695 10.2372 37.4382 10.0127 37.4382 10.0127C37.4382 10.0127 36.7629 9.60678 37.2424 9.21525C37.722 8.82371 37.4921 8.26155 37.9267 6.73672C38.3613 5.21188 39.3097 4.23663 39.3097 4.23663C41.4182 1.22109 39.9688 0.279961 39.5611 0.087785C39.1372 -0.0648782 37.4472 -0.424086 36.806 3.20032C36.806 3.20032 36.788 4.56171 36.0157 5.94646C35.2434 7.3312 34.6848 7.56649 34.7477 8.18253C34.8088 8.79857 34.0455 8.60819 34.0455 8.60819C34.0455 8.60819 33.706 8.58484 33.3684 9.10389C33.3288 9.16496 33.2624 9.29607 33.1798 9.47387C31.5041 9.00511 29.7637 8.76085 28 8.76085H27.9946C26.2363 8.76085 24.5031 8.99972 22.8202 9.47387C22.7376 9.29607 22.673 9.16496 22.6316 9.10389C22.294 8.58663 21.9545 8.60819 21.9545 8.60819C21.9545 8.60819 21.1912 8.79857 21.2523 8.18253C21.3134 7.56649 20.7548 7.3312 19.9843 5.94646C19.212 4.56171 19.194 3.20032 19.194 3.20032C18.5528 -0.424086 16.8628 -0.0648782 16.4389 0.087785C16.0312 0.279961 14.5818 1.22109 16.6904 4.23663C16.6904 4.23663 17.6405 5.21188 18.0733 6.73672C18.5079 8.26155 18.2781 8.82371 18.7576 9.21525C19.2371 9.60678 18.5618 10.0127 18.5618 10.0127C18.5618 10.0127 18.305 10.2372 18.4325 10.8425C18.4469 10.9143 18.4936 11.0508 18.56 11.2358C15.4798 12.9618 12.9618 15.4798 11.2358 18.56C11.0508 18.4918 10.9143 18.4469 10.8425 18.4325C10.2372 18.305 10.0127 18.5618 10.0127 18.5618C10.0127 18.5618 9.60678 19.2371 9.21525 18.7576C8.82371 18.278 8.26155 18.5079 6.73672 18.0733C5.21188 17.6387 4.23663 16.6904 4.23663 16.6904C1.22109 14.5818 0.279961 16.0312 0.087785 16.4389C-0.0648782 16.8628 -0.424086 18.5528 3.20032 19.194C3.20032 19.194 4.56172 19.212 5.94646 19.9843C7.3312 20.7566 7.56649 21.3151 8.18253 21.2523C8.79857 21.1912 8.60819 21.9545 8.60819 21.9545C8.60819 21.9545 8.58484 22.294 9.10389 22.6316C9.16496 22.6712 9.29427 22.7358 9.47208 22.8202C8.51479 26.2183 8.51479 29.7799 9.47208 33.1798C9.29427 33.2624 9.16496 33.327 9.10389 33.3684C8.58664 33.706 8.60819 34.0455 8.60819 34.0455C8.60819 34.0455 8.79857 34.8088 8.18253 34.7477C7.56649 34.6866 7.3312 35.2452 5.94646 36.0157C4.56172 36.788 3.20032 36.806 3.20032 36.806C-0.424086 37.4472 -0.0648782 39.1372 0.087785 39.5611C0.279961 39.9688 1.22109 41.4182 4.23663 39.3096C4.23663 39.3096 5.21188 38.3595 6.73672 37.9267C8.26155 37.4921 8.82371 37.722 9.21525 37.2424C9.60678 36.7629 10.0127 37.4382 10.0127 37.4382C10.0127 37.4382 10.2372 37.695 10.8425 37.5675C10.9143 37.5531 11.0526 37.5064 11.2376 37.4382C12.7391 40.1143 14.853 42.3845 17.4411 44.0817C17.8075 44.3224 18.1811 44.5487 18.5618 44.7624C18.4936 44.9474 18.4487 45.0875 18.4325 45.1575C18.305 45.7628 18.5618 45.9873 18.5618 45.9873C18.5618 45.9873 19.2371 46.3932 18.7576 46.7848C18.2781 47.1763 18.5079 47.7384 18.0733 49.2633C17.6387 50.7881 16.6904 51.7634 16.6904 51.7634C14.5818 54.7789 16.0312 55.72 16.4389 55.9122C16.8628 56.0649 18.5528 56.4241 19.194 52.7997C19.194 52.7997 19.212 51.4383 19.9843 50.0535C20.7566 48.6688 21.3152 48.4335 21.2523 47.8175C21.1912 47.2014 21.9545 47.3918 21.9545 47.3918C21.9545 47.3918 22.294 47.4152 22.6316 46.8961C22.6712 46.835 22.7376 46.7039 22.8202 46.5261C24.4977 46.9949 26.2399 47.2392 28.0054 47.2392C29.7709 47.2392 31.4969 47.0003 33.1798 46.5261C33.2624 46.7039 33.327 46.835 33.3684 46.8961C33.706 47.4134 34.0455 47.3918 34.0455 47.3918C34.0455 47.3918 34.8088 47.2014 34.7477 47.8175C34.6866 48.4335 35.2452 48.6688 36.0157 50.0535C36.788 51.4383 36.806 52.7997 36.806 52.7997C37.4472 56.4241 39.1372 56.0649 39.5611 55.9122C39.9688 55.72 41.4182 54.7789 39.3097 51.7634C39.3097 51.7634 38.3595 50.7881 37.9267 49.2633C37.4921 47.7384 37.722 47.1763 37.2424 46.7848C36.7629 46.3932 37.4382 45.9873 37.4382 45.9873C37.4382 45.9873 37.695 45.7628 37.5675 45.1575C37.5531 45.0857 37.5064 44.9492 37.44 44.7642C40.5202 43.0382 43.0382 40.5202 44.7642 37.44C44.9492 37.5082 45.0857 37.5531 45.1575 37.5675C45.7628 37.695 45.9873 37.4382 45.9873 37.4382C45.9873 37.4382 46.3932 36.7629 46.7848 37.2424C47.1763 37.722 47.7385 37.4921 49.2633 37.9267C50.7881 38.3613 51.7634 39.3096 51.7634 39.3096C54.7789 41.4182 55.72 39.9688 55.9122 39.5611C56.0649 39.1372 56.4241 37.4472 52.7997 36.806ZM41.7792 31.2059C41.3356 31.0281 41.05 30.915 41.05 30.915C41.05 30.915 40.4914 30.7695 40.1448 31.0946C40.1448 31.0946 37.9267 30.1696 36.1289 29.5661C36.1289 29.5661 35.6691 29.5661 35.3458 29.6703C35.0225 29.7745 34.6992 29.4494 34.6992 29.4494C34.6992 29.4494 34.1514 28.5388 33.3917 28.37C33.4097 28.1239 33.4079 27.8761 33.3917 27.6282C34.1514 27.4594 34.6992 26.5488 34.6992 26.5488C34.6992 26.5488 35.0225 26.2237 35.3458 26.3279C35.6691 26.4321 36.1289 26.4321 36.1289 26.4321C37.9285 25.8286 40.1448 24.9036 40.1448 24.9036C40.4914 25.2287 41.05 25.0832 41.05 25.0832C41.05 25.0832 41.3374 24.9701 41.781 24.7905C42.2857 26.9457 42.2623 29.1351 41.7792 31.2023V31.2059ZM40.0119 20.5213C39.5719 20.7099 39.2881 20.832 39.2881 20.832C39.2881 20.832 38.7906 21.1248 38.7744 21.5989C38.7744 21.5989 36.5527 22.5131 34.8537 23.359C34.8537 23.359 34.5304 23.6841 34.3741 23.9877C34.2197 24.2894 33.7599 24.2876 33.7599 24.2876C33.7599 24.2876 32.729 24.0308 32.0734 24.4492C31.91 24.2607 31.7358 24.0846 31.549 23.923C31.9657 23.2674 31.7106 22.2365 31.7106 22.2365C31.7106 22.2365 31.7088 21.7785 32.0106 21.6223C32.3123 21.4678 32.6392 21.1427 32.6392 21.1427C33.4851 19.4437 34.3993 17.222 34.3993 17.222C34.8734 17.2058 35.1662 16.7083 35.1662 16.7083C35.1662 16.7083 35.2883 16.4245 35.4769 15.9845C37.2801 17.1052 38.8445 18.6391 40.0119 20.5177V20.5213ZM27.9928 13.8454C29.0812 13.8454 30.1588 13.9729 31.2041 14.2172C31.0263 14.6608 30.9114 14.9482 30.9114 14.9482C30.9114 14.9482 30.7659 15.5068 31.091 15.8534C31.091 15.8534 30.166 18.0715 29.5626 19.8693C29.5626 19.8693 29.5626 20.3291 29.6667 20.6524C29.7709 20.9757 29.4458 21.299 29.4458 21.299C29.4458 21.299 28.5352 21.8468 28.3664 22.6065C28.2425 22.5975 28.1185 22.5921 27.9928 22.5921C27.8671 22.5921 27.7468 22.5975 27.6228 22.6065C27.454 21.8468 26.5434 21.299 26.5434 21.299C26.5434 21.299 26.2183 20.9757 26.3225 20.6524C26.4267 20.3291 26.4267 19.8693 26.4267 19.8693C25.8232 18.0697 24.8982 15.8534 24.8982 15.8534C25.2233 15.5068 25.0778 14.9482 25.0778 14.9482C25.0778 14.9482 24.9647 14.6608 24.7869 14.2172C25.8519 13.9676 26.9242 13.8436 27.9874 13.8436L27.9928 13.8454ZM20.5195 15.9881C20.7081 16.4281 20.8302 16.7119 20.8302 16.7119C20.8302 16.7119 21.123 17.2094 21.5971 17.2256C21.5971 17.2256 22.5113 19.4473 23.3572 21.1463C23.3572 21.1463 23.6823 21.4696 23.9859 21.6259C24.2894 21.7821 24.2858 22.2401 24.2858 22.2401C24.2858 22.2401 24.029 23.271 24.4474 23.9266C24.2589 24.09 24.0846 24.266 23.923 24.451C23.2674 24.0343 22.2365 24.2894 22.2365 24.2894C22.2365 24.2894 21.7785 24.2912 21.6223 23.9894C21.4678 23.6877 21.1427 23.3608 21.1427 23.3608C19.4437 22.5149 17.222 21.6007 17.222 21.6007C17.2058 21.1266 16.7083 20.8338 16.7083 20.8338C16.7083 20.8338 16.4263 20.7117 15.9863 20.5231C17.107 18.7199 18.6391 17.1555 20.5195 15.9881ZM14.2172 24.7959C14.6608 24.9737 14.9464 25.0868 14.9464 25.0868C14.9464 25.0868 15.505 25.2323 15.8516 24.9072C15.8516 24.9072 18.0697 25.8322 19.8675 26.4357C19.8675 26.4357 20.3273 26.4356 20.6506 26.3315C20.9739 26.2273 21.2972 26.5524 21.2972 26.5524C21.2972 26.5524 21.845 27.463 22.6047 27.6318C22.5867 27.8779 22.5885 28.1257 22.6047 28.3736C21.845 28.5424 21.2972 29.453 21.2972 29.453C21.2972 29.453 20.9739 29.7781 20.6506 29.6739C20.3273 29.5697 19.8675 29.5697 19.8675 29.5697C18.0679 30.1732 15.8516 31.0982 15.8516 31.0982C15.505 30.7731 14.9464 30.9186 14.9464 30.9186C14.9464 30.9186 14.659 31.0317 14.2154 31.2113C13.7107 29.0561 13.7341 26.8667 14.2172 24.7995V24.7959ZM15.9845 35.4805C16.4245 35.2919 16.7083 35.1698 16.7083 35.1698C16.7083 35.1698 17.2058 34.877 17.222 34.4029C17.222 34.4029 19.4437 33.4887 21.1427 32.6428C21.1427 32.6428 21.466 32.3177 21.6223 32.0141C21.7767 31.7124 22.2365 31.7142 22.2365 31.7142C22.2365 31.7142 23.2674 31.971 23.923 31.5526C24.0864 31.7411 24.2607 31.9172 24.4474 32.0788C24.0308 32.7344 24.2858 33.7653 24.2858 33.7653C24.2858 33.7653 24.2876 34.2233 23.9859 34.3795C23.6841 34.534 23.3572 34.8591 23.3572 34.8591C22.5113 36.5581 21.5971 38.7798 21.5971 38.7798C21.123 38.796 20.8302 39.2935 20.8302 39.2935C20.8302 39.2935 20.7081 39.5773 20.5195 40.0173C18.7163 38.8966 17.1519 37.3627 15.9845 35.4841V35.4805ZM28.0036 42.1564C26.9152 42.1564 25.8376 42.0288 24.7923 41.7846C24.9701 41.341 25.085 41.0536 25.085 41.0536C25.085 41.0536 25.2305 40.495 24.9054 40.1484C24.9054 40.1484 25.8304 37.9303 26.4339 36.1325C26.4339 36.1325 26.4339 35.6727 26.3297 35.3494C26.2255 35.0261 26.5506 34.7028 26.5506 34.7028C26.5506 34.7028 27.4612 34.155 27.63 33.3953C27.7539 33.4043 27.8779 33.4097 28.0036 33.4097C28.1293 33.4097 28.2496 33.4043 28.3736 33.3953C28.5424 34.155 29.453 34.7028 29.453 34.7028C29.453 34.7028 29.7781 35.0261 29.6739 35.3494C29.5697 35.6727 29.5697 36.1325 29.5697 36.1325C30.1732 37.9321 31.0982 40.1484 31.0982 40.1484C30.7731 40.495 30.9186 41.0536 30.9186 41.0536C30.9186 41.0536 31.0317 41.341 31.2113 41.7846C30.1463 42.0342 29.074 42.1582 28.0108 42.1582L28.0036 42.1564ZM35.4769 40.0137C35.2883 39.5737 35.1662 39.2899 35.1662 39.2899C35.1662 39.2899 34.8734 38.7924 34.3993 38.7762C34.3993 38.7762 33.4851 36.5545 32.6392 34.8555C32.6392 34.8555 32.3141 34.5322 32.0106 34.3759C31.7088 34.2215 31.7106 33.7617 31.7106 33.7617C31.7106 33.7617 31.9674 32.7308 31.549 32.0752C31.7376 31.9118 31.9118 31.7358 32.0734 31.5508C32.729 31.9674 33.7599 31.7124 33.7599 31.7124C33.7599 31.7124 34.2179 31.7106 34.3741 32.0123C34.5286 32.3141 34.8537 32.641 34.8537 32.641C36.5527 33.4869 38.7744 34.4011 38.7744 34.4011C38.7906 34.8752 39.2881 35.168 39.2881 35.168C39.2881 35.168 39.5701 35.2901 40.0101 35.4787C38.8894 37.2819 37.3574 38.8463 35.4769 40.0137Z" fill="#00AEEF"/>
</svg>
