<svg width="56" height="56" viewBox="0 0 56 56" fill="none" xmlns="http://www.w3.org/2000/svg">
<rect width="56" height="56" rx="4" fill="black"/>
<g clip-path="url(#clip0_1094_1186)">
<path d="M27.507 32.6411C27.507 36.4119 24.635 38.5934 19.1301 38.5934H8.29999V16.7786H18.5318C23.7673 16.7786 26.4599 19.0535 26.4599 22.4504C26.4599 24.6319 25.3829 26.3148 23.6776 27.2497C26.0112 28.0288 27.507 29.8986 27.507 32.6411V32.6411ZM13.1167 20.5806V25.7227H17.9334C20.2969 25.7227 21.5834 24.8501 21.5834 23.136C21.5834 21.422 20.2969 20.5806 17.9334 20.5806H13.1167V20.5806ZM22.6305 32.1113C22.6305 30.2726 21.2842 29.4 18.7711 29.4H13.1167V34.7914H18.7711C21.2842 34.7914 22.6305 33.9811 22.6305 32.1113V32.1113Z" fill="white"/>
</g>
<g clip-path="url(#clip1_1094_1186)">
<path d="M41.2986 22.1637V26.4718C40.9097 26.4419 40.6105 26.412 40.2515 26.412C37.6786 26.412 35.9733 27.8181 35.9733 30.8996V38.4987H31.3062V22.403H35.7639V24.5272C36.9007 22.9715 38.8154 22.1637 41.2986 22.1637V22.1637Z" fill="white"/>
</g>
<g clip-path="url(#clip2_1094_1186)">
<path d="M48.288 33.3693V38.4448H43.214V33.3693H48.2895H48.288Z" fill="white"/>
</g>
<defs>
<clipPath id="clip0_1094_1186">
<rect width="19.207" height="37.3969" fill="white" transform="translate(8.29999 9)"/>
</clipPath>
<clipPath id="clip1_1094_1186">
<rect width="10.0224" height="37.3969" fill="white" transform="translate(31.2463 9)"/>
</clipPath>
<clipPath id="clip2_1094_1186">
<rect width="5.08598" height="37.3969" fill="white" transform="translate(43.214 9)"/>
</clipPath>
</defs>
</svg>
