<svg width="20" height="20" viewBox="0 0 20 20" fill="none" xmlns="http://www.w3.org/2000/svg">
<path d="M10 2C7.829 2 7.556 2.01 6.703 2.048C5.85 2.088 5.269 2.222 4.76 2.42C4.22609 2.62082 3.74249 2.93583 3.343 3.343C2.93608 3.7427 2.62111 4.22624 2.42 4.76C2.222 5.268 2.087 5.85 2.048 6.7C2.01 7.555 2 7.827 2 10.001C2 12.173 2.01 12.445 2.048 13.298C2.088 14.15 2.222 14.731 2.42 15.24C2.625 15.766 2.898 16.212 3.343 16.657C3.787 17.102 4.233 17.376 4.759 17.58C5.269 17.778 5.849 17.913 6.701 17.952C7.555 17.99 7.827 18 10 18C12.173 18 12.444 17.99 13.298 17.952C14.149 17.912 14.732 17.778 15.241 17.58C15.7746 17.3791 16.2578 17.0641 16.657 16.657C17.102 16.212 17.375 15.766 17.58 15.24C17.777 14.731 17.912 14.15 17.952 13.298C17.99 12.445 18 12.173 18 10C18 7.827 17.99 7.555 17.952 6.701C17.912 5.85 17.777 5.268 17.58 4.76C17.3789 4.22623 17.0639 3.74268 16.657 3.343C16.2576 2.93568 15.774 2.62065 15.24 2.42C14.73 2.222 14.148 2.087 13.297 2.048C12.443 2.01 12.172 2 9.998 2H10.001H10ZM9.283 3.442H10.001C12.137 3.442 12.39 3.449 13.233 3.488C14.013 3.523 14.437 3.654 14.719 3.763C15.092 3.908 15.359 4.082 15.639 4.362C15.919 4.642 16.092 4.908 16.237 5.282C16.347 5.563 16.477 5.987 16.512 6.767C16.551 7.61 16.559 7.863 16.559 9.998C16.559 12.133 16.551 12.387 16.512 13.23C16.477 14.01 16.346 14.433 16.237 14.715C16.1087 15.0624 15.904 15.3764 15.638 15.634C15.358 15.914 15.092 16.087 14.718 16.232C14.438 16.342 14.014 16.472 13.233 16.508C12.39 16.546 12.137 16.555 10.001 16.555C7.865 16.555 7.611 16.546 6.768 16.508C5.988 16.472 5.565 16.342 5.283 16.232C4.9355 16.1039 4.62113 15.8996 4.363 15.634C4.09675 15.376 3.89172 15.0617 3.763 14.714C3.654 14.433 3.523 14.009 3.488 13.229C3.45 12.386 3.442 12.133 3.442 9.996C3.442 7.86 3.45 7.608 3.488 6.765C3.524 5.985 3.654 5.561 3.764 5.279C3.909 4.906 4.083 4.639 4.363 4.359C4.643 4.079 4.909 3.906 5.283 3.761C5.565 3.651 5.988 3.521 6.768 3.485C7.506 3.451 7.792 3.441 9.283 3.44V3.442ZM14.271 4.77C14.1449 4.77 14.0201 4.79483 13.9036 4.84308C13.7872 4.89132 13.6813 4.96203 13.5922 5.05118C13.503 5.14032 13.4323 5.24615 13.3841 5.36262C13.3358 5.4791 13.311 5.60393 13.311 5.73C13.311 5.85607 13.3358 5.9809 13.3841 6.09738C13.4323 6.21385 13.503 6.31968 13.5922 6.40882C13.6813 6.49797 13.7872 6.56868 13.9036 6.61692C14.0201 6.66517 14.1449 6.69 14.271 6.69C14.5256 6.69 14.7698 6.58886 14.9498 6.40882C15.1299 6.22879 15.231 5.98461 15.231 5.73C15.231 5.47539 15.1299 5.23121 14.9498 5.05118C14.7698 4.87114 14.5256 4.77 14.271 4.77ZM10.001 5.892C9.45607 5.8835 8.91489 5.98349 8.40898 6.18614C7.90306 6.3888 7.44251 6.69007 7.05415 7.07242C6.66579 7.45478 6.35736 7.91057 6.14684 8.41326C5.93632 8.91595 5.8279 9.4555 5.8279 10.0005C5.8279 10.5455 5.93632 11.085 6.14684 11.5877C6.35736 12.0904 6.66579 12.5462 7.05415 12.9286C7.44251 13.3109 7.90306 13.6122 8.40898 13.8149C8.91489 14.0175 9.45607 14.1175 10.001 14.109C11.0795 14.0922 12.1082 13.6519 12.865 12.8833C13.6217 12.1146 14.0459 11.0792 14.0459 10.0005C14.0459 8.92183 13.6217 7.88641 12.865 7.11775C12.1082 6.34909 11.0795 5.90883 10.001 5.892ZM10.001 7.333C10.7083 7.333 11.3867 7.61399 11.8869 8.11415C12.387 8.61431 12.668 9.29267 12.668 10C12.668 10.7073 12.387 11.3857 11.8869 11.8859C11.3867 12.386 10.7083 12.667 10.001 12.667C9.29367 12.667 8.61531 12.386 8.11515 11.8859C7.61499 11.3857 7.334 10.7073 7.334 10C7.334 9.29267 7.61499 8.61431 8.11515 8.11415C8.61531 7.61399 9.29367 7.333 10.001 7.333Z" fill="#00AEEF"/>
</svg>
