<svg width="20" height="20" viewBox="0 0 20 20" fill="none" xmlns="http://www.w3.org/2000/svg">
<path d="M5.63936 18V7.20433H2.20322V18H5.63936ZM3.922 5.72955C5.11986 5.72955 5.86547 4.90176 5.86547 3.86477C5.84401 2.80538 5.12129 2 3.9449 2C2.76852 2 2 2.80687 2 3.86477C2 4.90176 2.74562 5.72955 3.89911 5.72955H3.922ZM10.946 18V11.9709C10.946 11.6481 10.9689 11.3254 11.0605 11.0953C11.3081 10.4513 11.8733 9.78334 12.8236 9.78334C14.0673 9.78334 14.5639 10.7725 14.5639 12.2249V18H18V11.808C18 8.49085 16.3055 6.94882 14.0444 6.94882C12.2211 6.94882 11.4039 7.99477 10.946 8.73142V8.76877H10.9231C10.9307 8.7563 10.9383 8.74385 10.946 8.73142V7.20433H7.51127C7.5542 8.21741 7.51127 18 7.51127 18H10.946Z" fill="#00AEEF"/>
</svg>
