<svg width="20" height="20" viewBox="0 0 20 20" fill="none" xmlns="http://www.w3.org/2000/svg">
<path d="M10.0637 4.5H10.175C11.2025 4.50375 16.4088 4.54125 17.8125 4.91875C18.2369 5.03396 18.6236 5.25853 18.9339 5.57001C19.2443 5.88149 19.4675 6.26898 19.5812 6.69375C19.7075 7.16875 19.7962 7.7975 19.8563 8.44625L19.8688 8.57625L19.8962 8.90125L19.9062 9.03125C19.9875 10.1737 19.9975 11.2437 19.9987 11.4775V11.5712C19.9975 11.8138 19.9862 12.9562 19.8962 14.1462L19.8862 14.2775L19.875 14.4075C19.8125 15.1225 19.72 15.8325 19.5812 16.355C19.4679 16.7799 19.2448 17.1676 18.9344 17.4791C18.6239 17.7907 18.237 18.0151 17.8125 18.13C16.3625 18.52 10.8512 18.5475 10.0875 18.5487H9.91C9.52375 18.5487 7.92625 18.5413 6.25125 18.4838L6.03875 18.4763L5.93 18.4713L5.71625 18.4625L5.5025 18.4538C4.115 18.3925 2.79375 18.2938 2.185 18.1288C1.76061 18.014 1.37383 17.7897 1.06341 17.4784C0.752979 17.1671 0.529809 16.7797 0.41625 16.355C0.2775 15.8338 0.185 15.1225 0.1225 14.4075L0.1125 14.2762L0.1025 14.1462C0.0408095 13.2992 0.00662483 12.4505 0 11.6012L0 11.4475C0.0025 11.1788 0.0125 10.25 0.08 9.225L0.08875 9.09625L0.0925 9.03125L0.1025 8.90125L0.13 8.57625L0.1425 8.44625C0.2025 7.7975 0.29125 7.1675 0.4175 6.69375C0.530867 6.26881 0.753953 5.88114 1.06439 5.5696C1.37483 5.25807 1.76171 5.03362 2.18625 4.91875C2.795 4.75625 4.11625 4.65625 5.50375 4.59375L5.71625 4.585L5.93125 4.5775L6.03875 4.57375L6.2525 4.565C7.44213 4.52672 8.63226 4.50547 9.8225 4.50125H10.0637V4.5ZM8 8.5125V14.535L13.1962 11.525L8 8.5125Z" fill="#00AEEF"/>
</svg>
