<svg width="1920" height="1080" viewBox="0 0 1920 1080" fill="none" xmlns="http://www.w3.org/2000/svg">
<g clip-path="url(#clip0_16_178)">
<rect width="1920" height="1080" fill="white"/>
<rect width="1920" height="1080" fill="#DDDDDD" fill-opacity="0.5"/>
<g opacity="0.2">
<path d="M602 -66H426V1147H602V-66Z" stroke="#999999" stroke-width="2" stroke-miterlimit="10"/>
<path d="M747 -66H614V1147H747V-66Z" stroke="#999999" stroke-width="2" stroke-miterlimit="10"/>
<path d="M846 -66H762V1147H846V-66Z" stroke="#999999" stroke-width="2" stroke-miterlimit="10"/>
<path d="M945 -66H857V1147H945V-66Z" stroke="#999999" stroke-width="2" stroke-miterlimit="10"/>
<path d="M998 -66H966V1147H998V-66Z" stroke="#999999" stroke-width="2" stroke-miterlimit="10"/>
<path d="M1149 -66H1014V1147H1149V-66Z" stroke="#999999" stroke-width="2" stroke-miterlimit="10"/>
<path d="M1346 -273H1313V1354H1346V-273Z" stroke="#999999" stroke-width="2" stroke-miterlimit="10"/>
<path d="M1313 -273H1295V1354H1313V-273Z" stroke="#999999" stroke-width="2" stroke-miterlimit="10"/>
<path d="M1495 -273H1362V1354H1495V-273Z" stroke="#999999" stroke-width="2" stroke-miterlimit="10"/>
</g>
<g opacity="0.2">
<path d="M-319 611V640L2240 640V611L-319 611Z" stroke="#999999" stroke-width="2" stroke-miterlimit="10"/>
<path d="M-319 498V527L2240 527V498L-319 498Z" stroke="#999999" stroke-width="2" stroke-miterlimit="10"/>
<path d="M-319 455V498L2240 498V455L-319 455Z" stroke="#999999" stroke-width="2" stroke-miterlimit="10"/>
</g>
<path d="M565.768 571.143L565.339 573.233C560.412 597.614 543.6 611.039 517.987 611.039C481.751 611.039 460.116 584.62 460.116 540.376C460.116 518.854 465.473 500.964 475.628 488.662C485.704 476.439 500.344 469.974 517.987 469.974C543.626 469.974 560.438 483.399 565.339 507.78L565.755 509.87H601.627L601.12 506.827C593.891 463.105 562.804 437 517.974 437C490.709 437 467.566 446.86 451.054 465.534C434.672 484.065 426 509.948 426 540.376C426 570.804 434.659 596.883 451.054 615.44C467.553 634.127 490.696 644 517.974 644C562.674 644 593.761 617.895 601.12 574.186L601.627 571.143H565.742H565.768Z" fill="#999999"/>
<path d="M713.091 593.148L712.545 595.015C708.774 607.787 698.893 613.99 682.316 613.99C672.889 613.99 664.23 610.399 657.937 603.895C651.866 597.614 648.42 589.178 648.121 579.958H745.894L746.141 577.62C746.791 571.378 746.921 566.873 746.921 561.623C746.921 521.192 722.062 495.074 683.59 495.074C662.54 495.074 644.806 502.609 632.311 516.882C620.766 530.059 614.408 548.485 614.408 568.779C614.408 589.073 620.766 607.63 632.298 620.846C644.793 635.172 662.527 642.733 683.59 642.733C715.483 642.733 739.523 624.96 746.336 596.36L747.103 593.135H713.091V593.148ZM649.005 554.78C651.242 535.596 664.282 523.817 683.59 523.817C702.897 523.817 715.145 534.786 715.834 554.78H648.992H649.005Z" fill="#999999"/>
<path d="M825.659 497.62C811.448 497.62 800.995 502.479 793.805 512.43L789.84 497.62H762.458V640.304H795.534V570.817C795.534 555.812 796.744 547.767 800.033 541.029C804.155 531.431 812.06 527.513 827.311 527.513H845.565V497.607H825.646L825.659 497.62Z" fill="#999999"/>
<path d="M944.885 526.507V497.633H915.228V454.93H882.022V491.43C882.022 494.264 881.034 497.647 876.353 497.647H856.564V526.52H882.022V613.925C882.022 632.181 890.642 640.317 909.962 640.317H944.898V610.033H921.17C916.515 610.033 915.241 608.649 915.241 603.569V526.52H944.898L944.885 526.507Z" fill="#999999"/>
<path d="M998.504 497.621H965.544V640.304H998.504V497.621Z" fill="#999999"/>
<path d="M998.491 454.917H965.544V487.029H998.491V454.917Z" fill="#999999"/>
<path d="M1113.15 497.621L1081.17 602.955L1049.42 497.621H1013.98L1060.37 640.304H1102.21L1148.58 497.621H1113.15Z" fill="#999999"/>
<path d="M1286.92 611.809C1280.93 611.809 1278.7 609.576 1278.7 603.556V547.166C1278.7 524.796 1272.42 495.074 1218.18 495.074C1179.97 495.074 1159.31 510.327 1155.01 541.695L1154.6 544.659H1188.26L1188.65 542.517C1191.35 527.774 1199.73 522.028 1218.56 522.028C1238.33 522.028 1246.77 528.557 1246.77 543.836C1246.77 554.036 1241.12 554.78 1231.81 554.78H1205.84C1171.61 554.78 1151.17 570.817 1151.17 597.666C1151.17 624.516 1172.65 642.733 1207.23 642.733C1229.96 642.733 1244.25 635.237 1252.61 628.277C1256.86 636.36 1265.08 640.304 1277.62 640.304H1295.24V611.809H1286.91H1286.92ZM1211.17 616.406C1204.85 616.406 1184.23 615.035 1184.23 597.405C1184.23 585.821 1193 579.945 1210.28 579.945H1245.86V587.049C1245.86 605.436 1232.89 616.406 1211.16 616.406H1211.17Z" fill="#999999"/>
<path d="M1345.6 454.917H1312.64V640.304H1345.6V454.917Z" fill="#999999"/>
<path d="M1460.99 593.148L1460.44 595.015C1456.67 607.787 1446.79 613.99 1430.21 613.99C1420.79 613.99 1412.13 610.399 1405.83 603.895C1399.76 597.614 1396.32 589.178 1396.02 579.958H1493.79L1494.04 577.62C1494.69 571.378 1494.82 566.873 1494.82 561.623C1494.82 521.192 1469.96 495.074 1431.49 495.074C1410.44 495.074 1392.7 502.609 1380.21 516.882C1368.66 530.059 1362.3 548.485 1362.3 568.779C1362.3 589.073 1368.66 607.63 1380.2 620.846C1392.69 635.172 1410.42 642.733 1431.49 642.733C1463.38 642.733 1487.42 624.96 1494.23 596.36L1495 593.135H1460.99V593.148ZM1396.9 554.78C1399.14 535.596 1412.18 523.817 1431.49 523.817C1450.79 523.817 1463.04 534.786 1463.73 554.78H1396.89H1396.9Z" fill="#999999"/>
</g>
<defs>
<clipPath id="clip0_16_178">
<rect width="1920" height="1080" fill="white"/>
</clipPath>
</defs>
</svg>
