<svg width="668" height="184" viewBox="0 0 668 184" fill="none" xmlns="http://www.w3.org/2000/svg">
<g class="type">
  <path d="M80.625 82.2187L80.3774 83.4187C77.5349 97.4212 67.8375 105.131 53.0625 105.131C32.16 105.131 19.68 89.9587 19.68 64.5487C19.68 52.1887 22.7699 41.9137 28.6274 34.8487C34.4399 27.8287 42.885 24.1162 53.0625 24.1162C67.8525 24.1162 77.5499 31.8262 80.3774 45.8287L80.6175 47.0287H101.31L101.017 45.2812C96.8475 20.1712 78.915 5.17871 53.055 5.17871C37.3275 5.17871 23.9775 10.8412 14.4525 21.5662C5.00251 32.2087 0 47.0737 0 64.5487C0 82.0237 4.99501 97.0012 14.4525 107.659C23.97 118.391 37.32 124.061 53.055 124.061C78.84 124.061 96.7724 109.069 101.017 83.9662L101.31 82.2187H80.61H80.625Z" fill="#0E1530"/>
  <path d="M165.614 94.8489L165.3 95.9214C163.125 103.256 157.425 106.819 147.862 106.819C142.425 106.819 137.43 104.756 133.8 101.021C130.297 97.4139 128.309 92.5689 128.137 87.2739H184.537L184.679 85.9314C185.054 82.3464 185.129 79.7589 185.129 76.7439C185.129 53.5239 170.79 38.5239 148.597 38.5239C136.455 38.5239 126.224 42.8514 119.017 51.0489C112.357 58.6164 108.689 69.1989 108.689 80.8539C108.689 92.5089 112.357 103.166 119.009 110.756C126.217 118.984 136.447 123.326 148.597 123.326C166.995 123.326 180.862 113.119 184.792 96.6939L185.234 94.8414H165.614V94.8489ZM128.647 72.8139C129.937 61.7964 137.46 55.0314 148.597 55.0314C159.735 55.0314 166.799 61.3314 167.197 72.8139H128.64H128.647Z" fill="#0E1530"/>
  <path d="M230.542 39.9938C222.345 39.9938 216.315 42.7838 212.167 48.4988L209.88 39.9938H194.085V121.939H213.165V82.0313C213.165 73.4138 213.862 68.7938 215.76 64.9238C218.137 59.4113 222.697 57.1613 231.495 57.1613H242.025V39.9863H230.535L230.542 39.9938Z" fill="#0E1530"/>
  <path d="M299.318 56.5764V39.9939H282.21V15.4614H263.055V36.4239C263.055 38.0514 262.485 39.9939 259.785 39.9939H248.37V56.5764H263.055V106.774C263.055 117.259 268.028 121.931 279.173 121.931H299.325V104.539H285.638C282.953 104.539 282.218 103.744 282.218 100.826V56.5764H299.325H299.318Z" fill="#0E1530"/>
  <path d="M330.247 39.9937H311.234V121.939H330.247V39.9937Z" fill="#0E1530"/>
  <path d="M330.247 15.4614H311.242V33.9039H330.247V15.4614Z" fill="#0E1530"/>
  <path d="M396.39 39.9937L377.932 100.481L359.617 39.9937H339.18L365.932 121.939H390.067L416.82 39.9937H396.39Z" fill="#0E1530"/>
  <path d="M496.62 105.566C493.162 105.566 491.88 104.284 491.88 100.826V68.4414C491.88 55.5939 488.257 38.5239 456.967 38.5239C434.925 38.5239 423.007 47.2839 420.525 65.2989L420.293 67.0014H439.71L439.935 65.7714C441.487 57.3039 446.325 54.0039 457.185 54.0039C468.592 54.0039 473.46 57.7539 473.46 66.5289C473.46 72.3864 470.198 72.8139 464.828 72.8139H449.85C430.102 72.8139 418.312 82.0239 418.312 97.4439C418.312 112.864 430.702 123.326 450.652 123.326C463.762 123.326 472.005 119.021 476.828 115.024C479.28 119.666 484.02 121.931 491.257 121.931H501.42V105.566H496.613H496.62ZM452.925 108.206C449.28 108.206 437.385 107.419 437.385 97.2939C437.385 90.6414 442.44 87.2664 452.407 87.2664H472.935V91.3464C472.935 101.906 465.45 108.206 452.918 108.206H452.925Z" fill="#0E1530"/>
  <path d="M530.468 15.4614H511.455V121.931H530.468V15.4614Z" fill="#0E1530"/>
  <path d="M597.03 94.8489L596.714 95.9214C594.539 103.256 588.839 106.819 579.277 106.819C573.839 106.819 568.844 104.756 565.214 101.021C561.712 97.4139 559.725 92.5689 559.552 87.2739H615.952L616.094 85.9314C616.469 82.3464 616.545 79.7589 616.545 76.7439C616.545 53.5239 602.204 38.5239 580.012 38.5239C567.869 38.5239 557.639 42.8514 550.432 51.0489C543.772 58.6164 540.104 69.1989 540.104 80.8539C540.104 92.5089 543.772 103.166 550.424 110.756C557.632 118.984 567.862 123.326 580.012 123.326C598.409 123.326 612.277 113.119 616.207 96.6939L616.649 94.8414H597.03V94.8489ZM560.062 72.8139C561.352 61.7964 568.874 55.0314 580.012 55.0314C591.149 55.0314 598.214 61.3314 598.612 72.8139H560.054H560.062Z" fill="#0E1530"/>
</g>
<g class="tagline">
  <path d="M78.8398 183.394C76.8973 183.394 75.0898 183.079 73.4248 182.441C71.7598 181.804 70.3123 180.896 69.0898 179.726C67.8673 178.549 66.9148 177.169 66.2248 175.586C65.5423 174.004 65.1973 172.264 65.1973 170.366C65.1973 168.469 65.5423 166.729 66.2248 165.146C66.9073 163.564 67.8673 162.184 69.1048 161.006C70.3423 159.829 71.7898 158.921 73.4398 158.291C75.0973 157.654 76.9048 157.339 78.8773 157.339C81.0598 157.339 83.0323 157.714 84.8023 158.471C86.5648 159.229 88.0498 160.339 89.2498 161.801L85.5073 165.259C84.6448 164.276 83.6848 163.534 82.6273 163.046C81.5698 162.551 80.4223 162.311 79.1698 162.311C77.9923 162.311 76.9123 162.506 75.9298 162.889C74.9473 163.271 74.0923 163.826 73.3723 164.546C72.6523 165.266 72.0973 166.121 71.6998 167.104C71.3023 168.086 71.1073 169.181 71.1073 170.381C71.1073 171.581 71.3023 172.676 71.6998 173.659C72.0973 174.641 72.6523 175.496 73.3723 176.216C74.0923 176.936 74.9473 177.491 75.9298 177.874C76.9123 178.256 77.9923 178.451 79.1698 178.451C80.4148 178.451 81.5698 178.204 82.6273 177.716C83.6848 177.221 84.6448 176.471 85.5073 175.466L89.2498 178.924C88.0498 180.386 86.5648 181.504 84.8023 182.269C83.0398 183.034 81.0523 183.424 78.8473 183.424L78.8398 183.394Z" fill="#0086FF"/>
  <path d="M102.562 178.286V172.451H114.262V167.914H102.562V162.446H115.807V157.766H96.7646V182.966H116.28V178.286H102.562Z" fill="#0086FF"/>
  <path d="M146.842 182.966L141.21 174.889C141.21 174.889 141.247 174.874 141.262 174.866C142.897 174.146 144.157 173.111 145.042 171.754C145.927 170.396 146.377 168.784 146.377 166.909C146.377 165.034 145.935 163.384 145.042 162.011C144.157 160.646 142.897 159.596 141.262 158.861C139.627 158.126 137.685 157.766 135.427 157.766H124.522V182.966H130.357V175.946H135.435C135.525 175.946 135.607 175.939 135.705 175.939L140.55 182.966H146.85H146.842ZM139.14 163.669C140.025 164.434 140.475 165.514 140.475 166.909C140.475 168.304 140.032 169.354 139.14 170.134C138.255 170.914 136.905 171.304 135.105 171.304H130.35V162.521H135.105C136.905 162.521 138.247 162.904 139.14 163.676V163.669Z" fill="#0086FF"/>
  <path d="M159.442 182.966V162.521H151.38V157.766H173.34V162.521H165.277V182.966H159.442Z" fill="#0086FF"/>
  <path d="M180.067 182.966V157.766H185.902V182.966H180.067Z" fill="#0086FF"/>
  <path d="M214.522 162.446V157.766H195.479V182.966H201.307V173.786H212.969V169.106H201.307V162.446H214.522Z" fill="#0086FF"/>
  <path d="M222.083 182.966V157.766H227.918V182.966H222.083Z" fill="#0086FF"/>
  <path d="M249.548 183.394C247.605 183.394 245.798 183.079 244.133 182.441C242.468 181.804 241.02 180.896 239.798 179.726C238.575 178.549 237.623 177.169 236.933 175.586C236.25 174.004 235.905 172.264 235.905 170.366C235.905 168.469 236.25 166.729 236.933 165.146C237.615 163.564 238.575 162.184 239.813 161.006C241.05 159.829 242.498 158.921 244.148 158.291C245.805 157.654 247.613 157.339 249.585 157.339C251.768 157.339 253.74 157.714 255.51 158.471C257.273 159.229 258.758 160.339 259.958 161.801L256.215 165.259C255.353 164.276 254.393 163.534 253.335 163.046C252.278 162.551 251.13 162.311 249.878 162.311C248.7 162.311 247.62 162.506 246.638 162.889C245.655 163.271 244.8 163.826 244.08 164.546C243.36 165.266 242.805 166.121 242.408 167.104C242.01 168.086 241.815 169.181 241.815 170.381C241.815 171.581 242.01 172.676 242.408 173.659C242.805 174.641 243.36 175.496 244.08 176.216C244.8 176.936 245.655 177.491 246.638 177.874C247.62 178.256 248.7 178.451 249.878 178.451C251.123 178.451 252.278 178.204 253.335 177.716C254.393 177.221 255.353 176.471 256.215 175.466L259.958 178.924C258.758 180.386 257.273 181.504 255.51 182.269C253.748 183.034 251.76 183.424 249.555 183.424L249.548 183.394Z" fill="#0086FF"/>
  <path d="M285.802 182.966H291.922L280.657 157.766H274.897L263.662 182.966H269.64L271.882 177.566H283.567L285.802 182.966ZM273.727 173.141L277.74 163.496L281.737 173.141H273.735H273.727Z" fill="#0086FF"/>
  <path d="M298.147 182.966V157.766H309.592C312.33 157.766 314.737 158.291 316.83 159.334C318.915 160.376 320.55 161.839 321.727 163.706C322.905 165.581 323.49 167.801 323.49 170.366C323.49 172.931 322.905 175.121 321.727 177.011C320.55 178.894 318.922 180.356 316.83 181.406C314.737 182.456 312.33 182.974 309.592 182.974H298.147V182.966ZM303.982 178.181H309.307C310.987 178.181 312.442 177.866 313.68 177.229C314.917 176.591 315.877 175.684 316.56 174.514C317.242 173.336 317.587 171.956 317.587 170.374C317.587 168.791 317.242 167.381 316.56 166.219C315.877 165.056 314.917 164.156 313.68 163.519C312.442 162.881 310.987 162.566 309.307 162.566H303.982V178.189V178.181Z" fill="#0086FF"/>
  <path d="M343.725 183.394C341.73 183.394 339.893 183.071 338.198 182.419C336.503 181.774 335.04 180.859 333.803 179.681C332.565 178.504 331.606 177.124 330.923 175.541C330.241 173.959 329.896 172.226 329.896 170.359C329.896 168.491 330.241 166.759 330.923 165.176C331.606 163.594 332.573 162.214 333.818 161.036C335.063 159.859 336.533 158.951 338.213 158.299C339.893 157.654 341.716 157.324 343.688 157.324C345.661 157.324 347.513 157.646 349.178 158.299C350.843 158.944 352.298 159.859 353.536 161.036C354.773 162.214 355.741 163.586 356.431 165.161C357.128 166.736 357.473 168.469 357.473 170.366C357.473 172.264 357.128 173.974 356.431 175.571C355.733 177.169 354.766 178.549 353.536 179.711C352.298 180.874 350.85 181.781 349.178 182.426C347.513 183.071 345.69 183.401 343.725 183.401V183.394ZM343.688 178.429C344.813 178.429 345.856 178.234 346.801 177.851C347.746 177.469 348.586 176.914 349.306 176.194C350.026 175.474 350.58 174.619 350.978 173.636C351.375 172.654 351.571 171.559 351.571 170.359C351.571 169.159 351.375 168.064 350.978 167.081C350.58 166.099 350.033 165.244 349.321 164.524C348.616 163.804 347.775 163.249 346.815 162.866C345.855 162.484 344.813 162.289 343.681 162.289C342.548 162.289 341.513 162.484 340.568 162.866C339.623 163.249 338.783 163.804 338.063 164.524C337.343 165.244 336.788 166.099 336.391 167.081C335.993 168.064 335.798 169.159 335.798 170.359C335.798 171.559 335.993 172.624 336.391 173.614C336.788 174.611 337.336 175.466 338.048 176.186C338.753 176.906 339.593 177.461 340.553 177.844C341.513 178.226 342.556 178.421 343.688 178.421V178.429Z" fill="#0086FF"/>
  <path d="M379.252 182.966V157.766H390.697C393.434 157.766 395.842 158.291 397.934 159.334C400.019 160.376 401.654 161.839 402.832 163.706C404.009 165.581 404.594 167.801 404.594 170.366C404.594 172.931 404.009 175.121 402.832 177.011C401.654 178.894 400.027 180.356 397.934 181.406C395.842 182.456 393.434 182.974 390.697 182.974H379.252V182.966ZM385.087 178.181H390.412C392.092 178.181 393.547 177.866 394.785 177.229C396.022 176.591 396.982 175.684 397.664 174.514C398.347 173.336 398.692 171.956 398.692 170.374C398.692 168.791 398.347 167.381 397.664 166.219C396.982 165.056 396.022 164.156 394.785 163.519C393.547 162.881 392.092 162.566 390.412 162.566H385.087V178.189V178.181Z" fill="#0086FF"/>
  <path d="M412.59 182.966V157.766H418.425V182.966H412.59Z" fill="#0086FF"/>
  <path d="M445.028 177.357C444.638 177.559 444.255 177.739 443.858 177.874C442.763 178.249 441.645 178.429 440.49 178.429C439.335 178.429 438.195 178.234 437.198 177.852C436.2 177.469 435.338 176.907 434.603 176.179C433.868 175.444 433.305 174.589 432.908 173.607C432.51 172.624 432.315 171.544 432.315 170.367C432.315 169.189 432.51 168.072 432.908 167.089C433.305 166.107 433.868 165.252 434.603 164.532C435.338 163.812 436.208 163.257 437.213 162.874C438.218 162.492 439.335 162.297 440.558 162.297C441.78 162.297 443.003 162.529 444.083 163.002C445.163 163.474 446.16 164.187 447.068 165.147L450.81 161.689C449.588 160.272 448.08 159.192 446.295 158.449C444.51 157.707 442.5 157.332 440.265 157.332C438.248 157.332 436.403 157.647 434.723 158.284C433.043 158.922 431.58 159.829 430.328 160.999C429.083 162.177 428.115 163.557 427.433 165.139C426.75 166.722 426.405 168.462 426.405 170.359C426.405 172.257 426.75 173.997 427.433 175.579C428.115 177.162 429.075 178.542 430.313 179.719C431.55 180.897 432.998 181.804 434.67 182.434C436.335 183.072 438.165 183.387 440.16 183.387C441.96 183.387 443.768 183.109 445.575 182.562C447.39 182.007 448.98 181.219 450.345 180.184V169.962H445.02V177.349L445.028 177.357Z" fill="#0086FF"/>
  <path d="M459.353 182.966V157.766H465.188V182.966H459.353Z" fill="#0086FF"/>
  <path d="M479.978 182.966V162.521H471.915V157.766H493.875V162.521H485.813V182.966H479.978Z" fill="#0086FF"/>
  <path d="M518.175 182.966H524.295L513.03 157.766H507.27L496.035 182.966H502.013L504.255 177.566H515.94L518.175 182.966ZM506.1 173.141L510.113 163.496L514.11 173.141H506.108H506.1Z" fill="#0086FF"/>
  <path d="M530.527 182.966V157.766H536.362V178.211H549V182.966H530.535H530.527Z" fill="#0086FF"/>
</g>
<g class="shield">
  <path d="M642.538 56.0723L657.655 48.5167C663.329 45.6814 666.914 39.8845 666.914 33.5425V5.1158C666.914 4.59981 666.45 4.20492 665.939 4.28916L662.541 4.85517C657.223 5.74236 651.76 4.89466 646.961 2.43845L642.56 0.187572C642.075 -0.0625241 641.501 -0.0625241 641.019 0.187572L636.617 2.43845C631.818 4.89466 626.355 5.74236 621.037 4.85517L617.639 4.28916C617.128 4.20492 616.664 4.59718 616.664 5.1158V33.5425C616.664 39.8845 620.249 45.6814 625.923 48.5167L641.04 56.0723C641.511 56.3092 642.067 56.3092 642.538 56.0723Z" fill="#0086FF"/>
  <path d="M641.788 56.2485C642.043 56.2485 642.301 56.1906 642.536 56.0721L657.653 48.5166C663.327 45.6813 666.911 39.8843 666.911 33.5424V5.11562C666.911 4.59963 666.448 4.20474 665.937 4.28898L662.539 4.85499C657.221 5.74218 651.758 4.89448 646.958 2.43827L642.557 0.187392C642.315 0.0610277 642.051 0.000488281 641.785 0.000488281V56.2485H641.788Z" fill="#0072D9"/>
</g>
</svg>
