<svg width="120" height="120" viewBox="0 0 120 120" fill="none" xmlns="http://www.w3.org/2000/svg">
<g clip-path="url(#clip0_2320_2934)">
<path d="M66.2765 5.26351C65.9788 5.05543 65.6647 4.93302 65.3262 4.89222V4.79838C65.6444 4.74534 65.9339 4.63926 66.1909 4.48829C66.4519 4.33325 66.664 4.12516 66.8312 3.86403C66.9984 3.59883 67.0922 3.2765 67.1167 2.88889C67.1453 2.41968 67.0596 1.99127 66.8598 1.60774C66.6558 1.22421 66.3336 0.910038 65.8931 0.665231C65.4527 0.420425 64.8898 0.277621 64.2046 0.23274L60.5788 -0.00390625L59.9629 9.4701L63.7968 9.71899C64.5227 9.76795 65.1304 9.69451 65.624 9.49866C66.1175 9.30282 66.4927 9.02129 66.7578 8.64592C67.0229 8.27055 67.1697 7.83806 67.1983 7.34845C67.2309 6.86699 67.1575 6.45082 66.9821 6.09993C66.8067 5.74904 66.5702 5.46752 66.2725 5.26351H66.2765ZM62.2061 1.52613L63.9395 1.64038C64.4453 1.67302 64.8205 1.81582 65.0611 2.07287C65.3018 2.32583 65.4119 2.63592 65.3874 3.00313C65.3711 3.28058 65.2854 3.51723 65.1345 3.70899C64.9836 3.90076 64.7878 4.04764 64.5431 4.14148C64.2984 4.23532 64.0292 4.27205 63.7315 4.25572L62.0348 4.14556L62.2061 1.53021V1.52613ZM65.4649 7.10364C65.4404 7.47901 65.2814 7.77686 64.9918 8.00126C64.7022 8.22567 64.2413 8.31135 63.6214 8.27055L61.7738 8.15223L61.9532 5.37775L63.8457 5.50016C64.2005 5.52464 64.5023 5.61032 64.7471 5.7572C64.9959 5.90409 65.1794 6.09585 65.3058 6.3325C65.4282 6.56915 65.4812 6.82619 65.4649 7.10772V7.10364Z" fill="#333333"/>
<path d="M76.8851 2.86435C76.4691 2.49714 75.9062 2.21969 75.2006 2.04017L71.7542 1.15479L69.3887 10.3513L71.0527 10.7798L71.9174 7.41367L73.61 7.85024L74.5522 11.6815L76.412 12.1588L75.3597 7.99712C75.425 7.98896 75.4943 7.98488 75.5555 7.97264C76.102 7.86248 76.5547 7.62175 76.9137 7.25454C77.2726 6.88733 77.5295 6.40588 77.6845 5.81835C77.8354 5.23081 77.8436 4.68408 77.709 4.18222C77.5744 3.67629 77.3011 3.23972 76.8851 2.87251V2.86435ZM75.9878 5.3777C75.9022 5.7041 75.7676 5.96115 75.584 6.15292C75.4005 6.34468 75.1599 6.463 74.8662 6.50788C74.5725 6.55685 74.2218 6.5242 73.8058 6.41812L72.2722 6.02235L73.0594 2.97043L74.5848 3.36212C75.0008 3.46821 75.323 3.61917 75.5555 3.80685C75.788 3.99454 75.9389 4.22303 76.0082 4.48823C76.0775 4.75344 76.0694 5.04721 75.9878 5.37362V5.3777Z" fill="#333333"/>
<path d="M80.091 11.6573C79.83 11.5512 79.569 11.5471 79.308 11.6573C79.0469 11.7634 78.8634 11.9429 78.7614 12.204C78.6472 12.4651 78.6472 12.7263 78.7614 12.9874C78.8756 13.2485 79.0551 13.4321 79.3161 13.5382C79.4833 13.6076 79.6546 13.632 79.8341 13.6035C80.0095 13.579 80.1726 13.5137 80.3194 13.4076C80.4663 13.3016 80.5764 13.1628 80.6539 12.9874C80.7559 12.7303 80.7559 12.4692 80.6417 12.2081C80.5315 11.947 80.348 11.7634 80.0992 11.6614L80.091 11.6573Z" fill="#333333"/>
<path d="M89.0771 17.2388C89.538 17.0225 89.9092 16.6716 90.1947 16.1942C90.4027 15.8393 90.521 15.4925 90.5454 15.1497C90.5699 14.807 90.521 14.4765 90.4068 14.1542C90.2926 13.8319 90.1253 13.5259 89.9133 13.2362C89.7012 12.9424 89.4605 12.669 89.1954 12.4161L88.5429 11.7714C88.4001 11.6327 88.2614 11.4858 88.1309 11.3267C88.0004 11.1716 87.8944 11.0084 87.8087 10.8411C87.7231 10.6739 87.6823 10.5066 87.6741 10.3352C87.6741 10.1638 87.719 9.99249 87.821 9.82112C87.9433 9.61712 88.1146 9.47023 88.3226 9.38047C88.5347 9.29071 88.7794 9.26623 89.0527 9.30295C89.33 9.33967 89.6196 9.44983 89.9296 9.63344C90.3701 9.89456 90.6678 10.2047 90.8269 10.5596C90.9859 10.9146 90.9818 11.2818 90.8105 11.649L92.234 12.4936C92.4991 12.0285 92.6133 11.547 92.5725 11.0411C92.5317 10.5351 92.3563 10.0578 92.0382 9.59672C91.7201 9.13566 91.2714 8.73581 90.6923 8.389C90.1213 8.05035 89.5503 7.84635 88.9793 7.77699C88.4083 7.70763 87.8862 7.77699 87.409 7.98507C86.9318 8.18908 86.5525 8.53589 86.267 9.01734C85.9203 9.6008 85.8347 10.1843 86.0141 10.7677C86.1936 11.3512 86.5688 11.9305 87.1398 12.5018L87.927 13.2933C88.1758 13.5422 88.3797 13.7788 88.5429 14.0032C88.706 14.2276 88.808 14.448 88.8487 14.6601C88.8895 14.8723 88.8487 15.0845 88.7223 15.3007C88.5796 15.5333 88.3879 15.6965 88.1472 15.7862C87.9066 15.8801 87.6333 15.9005 87.3356 15.8515C87.0338 15.8026 86.7238 15.6842 86.4016 15.4925C86.0916 15.3089 85.8428 15.0967 85.6511 14.856C85.4595 14.6152 85.3412 14.3541 85.2963 14.0726C85.2555 13.7911 85.3085 13.5055 85.4554 13.2076L83.9993 12.3426C83.6975 12.8975 83.567 13.4402 83.6037 13.9747C83.6404 14.5092 83.8362 15.011 84.1829 15.4843C84.5336 15.9576 85.023 16.3819 85.6593 16.7614C86.3119 17.149 86.9318 17.3775 87.511 17.4509C88.0901 17.5244 88.6122 17.4509 89.0731 17.2306L89.0771 17.2388Z" fill="#333333"/>
<path d="M93.9467 22.7307L99.2692 16.688L101.472 18.6302L102.422 17.5489L96.7446 12.5386L95.7902 13.6198L97.9886 15.5619L92.666 21.6005L93.9467 22.7307Z" fill="#333333"/>
<path d="M99.3702 25.0234C99.0235 25.7701 98.8971 26.5208 98.9909 27.2797C99.0847 28.0386 99.3824 28.7445 99.8882 29.4054C100.394 30.0664 101.002 30.5356 101.707 30.8212C102.413 31.1069 103.171 31.1803 103.979 31.0375C104.787 30.8988 105.598 30.5152 106.41 29.891C107.221 29.2667 107.801 28.5813 108.143 27.8387C108.486 27.092 108.612 26.3413 108.518 25.5865C108.425 24.8316 108.127 24.1217 107.617 23.4607C107.107 22.7998 106.504 22.3305 105.798 22.0449C105.092 21.7593 104.334 21.6859 103.522 21.8287C102.715 21.9674 101.903 22.3509 101.091 22.9752C100.284 23.5954 99.7047 24.2808 99.3621 25.0275L99.3702 25.0234ZM102.152 24.342C102.723 23.9014 103.273 23.6199 103.804 23.4975C104.334 23.371 104.819 23.3914 105.264 23.5464C105.708 23.7055 106.084 23.9871 106.402 24.3992C106.716 24.8072 106.891 25.2478 106.932 25.717C106.969 26.1862 106.863 26.6595 106.606 27.141C106.349 27.6224 105.937 28.0794 105.366 28.5201C104.795 28.9566 104.244 29.2382 103.714 29.3646C103.184 29.487 102.698 29.4707 102.254 29.3116C101.809 29.1525 101.434 28.871 101.116 28.4589C100.798 28.0468 100.626 27.6102 100.586 27.141C100.545 26.6718 100.655 26.1985 100.912 25.717C101.169 25.2356 101.585 24.7786 102.152 24.338V24.342Z" fill="#333333"/>
<path d="M104.628 36.5088L107.752 34.9869L108.519 36.5619L106.21 39.7647L107.05 41.4906L109.534 37.9899C109.583 38.0348 109.632 38.0837 109.681 38.1245C110.118 38.4673 110.595 38.659 111.109 38.6958C111.623 38.7325 112.153 38.6182 112.699 38.3489C113.242 38.0837 113.666 37.7369 113.964 37.3085C114.261 36.8801 114.416 36.3864 114.425 35.8315C114.437 35.2725 114.282 34.6687 113.96 34.0118L112.402 30.813L103.869 34.9747L104.624 36.5211L104.628 36.5088ZM112.561 34.3953C112.748 34.7829 112.846 35.1257 112.854 35.4235C112.862 35.7214 112.785 35.9866 112.63 36.211C112.471 36.4354 112.242 36.6231 111.941 36.7699C111.639 36.9168 111.353 36.9821 111.088 36.9658C110.823 36.9495 110.578 36.8434 110.354 36.6516C110.13 36.4599 109.922 36.1702 109.734 35.7866L109.041 34.3627L111.875 32.9795L112.565 34.3953H112.561Z" fill="#333333"/>
<path d="M108.247 45.0076L114.601 43.4857L114.621 43.5714L108.903 47.6393L109.189 48.8388L116.114 49.8792L116.135 49.9649L109.792 51.4827L110.176 53.0862L119.41 50.8829L118.92 48.8347L111.575 47.6923L111.55 47.5821L117.583 43.2409L117.093 41.1968L107.863 43.4L108.247 45.0076Z" fill="#333333"/>
<path d="M110.534 60.1408L110.29 63.3478C110.216 64.3107 110.343 65.1471 110.669 65.8611C110.995 66.5751 111.497 67.1423 112.178 67.5625C112.859 67.9828 113.691 68.2317 114.678 68.3051C115.661 68.3826 116.518 68.2643 117.252 67.9542C117.986 67.6441 118.565 67.1667 118.998 66.518C119.426 65.8693 119.679 65.0777 119.748 64.1352L120.001 60.863L110.539 60.1367L110.534 60.1408ZM118.272 63.9312C118.223 64.5718 118.064 65.0981 117.79 65.5143C117.517 65.9305 117.134 66.2283 116.636 66.4119C116.138 66.5955 115.531 66.6608 114.805 66.6078C114.079 66.5506 113.487 66.3956 113.022 66.1345C112.557 65.8733 112.219 65.5143 112.011 65.0573C111.803 64.5963 111.725 64.0373 111.774 63.3804L111.884 61.9687L118.382 62.4665L118.267 63.9271L118.272 63.9312Z" fill="#333333"/>
<path d="M107.773 76.4043L109.164 76.7838L110.351 72.4507L112.851 73.1362L111.758 77.1265L113.149 77.5059L114.238 73.5156L116.726 74.197L115.551 78.4933L116.942 78.8728L118.569 72.9158L109.413 70.4106L107.773 76.4043Z" fill="#333333"/>
<path d="M113.054 81.7449C112.442 81.4511 111.85 81.4184 111.288 81.6469C110.721 81.8754 110.178 82.2997 109.66 82.9199L108.942 83.7727C108.718 84.042 108.498 84.2664 108.29 84.45C108.082 84.6336 107.874 84.7519 107.666 84.809C107.458 84.8661 107.242 84.8417 107.017 84.7397C106.773 84.6173 106.593 84.4418 106.483 84.2092C106.369 83.9767 106.324 83.7074 106.344 83.4055C106.365 83.0995 106.459 82.7812 106.618 82.4426C106.773 82.1202 106.96 81.8509 107.185 81.6388C107.409 81.4266 107.658 81.2838 107.931 81.2185C108.204 81.1532 108.498 81.1777 108.808 81.3001L109.542 79.7742C108.963 79.5212 108.412 79.4396 107.882 79.5212C107.356 79.6069 106.87 79.8435 106.43 80.2311C105.99 80.6187 105.61 81.1492 105.288 81.8142C104.958 82.4997 104.782 83.1362 104.766 83.7196C104.746 84.3072 104.864 84.8172 105.121 85.2578C105.378 85.6985 105.757 86.0371 106.259 86.2779C106.63 86.4574 106.985 86.5431 107.327 86.5349C107.67 86.5267 107.996 86.4533 108.306 86.3105C108.616 86.1677 108.906 85.9759 109.179 85.7393C109.452 85.5026 109.701 85.2374 109.933 84.9518L110.521 84.246C110.647 84.0909 110.782 83.94 110.929 83.7972C111.071 83.6543 111.226 83.5319 111.385 83.434C111.545 83.3361 111.708 83.2749 111.879 83.2586C112.05 83.2423 112.222 83.2749 112.401 83.3606C112.613 83.4667 112.776 83.6217 112.882 83.8257C112.988 84.0297 113.037 84.2704 113.025 84.5479C113.013 84.8253 112.927 85.1273 112.772 85.4496C112.552 85.9106 112.271 86.233 111.928 86.4247C111.585 86.6165 111.222 86.641 110.839 86.5063L110.121 87.9997C110.606 88.2241 111.1 88.2934 111.598 88.2118C112.095 88.1302 112.56 87.9099 112.988 87.5508C113.417 87.1918 113.78 86.7103 114.073 86.1065C114.363 85.5067 114.514 84.9192 114.53 84.348C114.546 83.7767 114.432 83.2586 114.187 82.8016C113.939 82.3446 113.563 81.9937 113.062 81.753L113.054 81.7449Z" fill="#333333"/>
<path d="M102.443 87.2197L101.488 88.6523L109.385 93.9189L110.34 92.4863L102.443 87.2197Z" fill="#333333"/>
<path d="M104.88 95.6704C104.583 95.1033 104.15 94.5606 103.583 94.0424C102.845 93.3692 102.082 92.9204 101.295 92.7042C100.508 92.4879 99.7495 92.4879 99.0113 92.7082C98.2731 92.9286 97.6124 93.3651 97.025 94.0098C96.4948 94.5892 96.1441 95.2134 95.9728 95.8744C95.8015 96.5354 95.8178 97.1964 96.0217 97.8533C96.2256 98.5101 96.6294 99.1099 97.229 99.6607L98.0732 100.428L100.671 97.5799L99.6802 96.6741L98.2078 98.2898C97.8938 97.992 97.6735 97.6656 97.5553 97.3106C97.4329 96.9393 97.4207 96.5599 97.5226 96.1722C97.6246 95.7846 97.8367 95.4133 98.163 95.0584C98.5219 94.6667 98.9297 94.4096 99.3906 94.2832C99.8515 94.1608 100.341 94.1812 100.863 94.3525C101.381 94.5198 101.907 94.8462 102.437 95.3317C102.963 95.8091 103.331 96.3028 103.543 96.8047C103.755 97.3065 103.824 97.792 103.742 98.2613C103.665 98.7305 103.453 99.1507 103.106 99.5261C102.915 99.7342 102.711 99.9055 102.494 100.036C102.278 100.167 102.054 100.252 101.826 100.293C101.593 100.334 101.361 100.338 101.124 100.305C100.887 100.273 100.647 100.195 100.41 100.085L99.2275 101.378C99.619 101.64 100.035 101.819 100.476 101.909C100.916 101.999 101.357 102.011 101.805 101.937C102.25 101.864 102.682 101.713 103.102 101.48C103.522 101.248 103.91 100.938 104.26 100.55C104.681 100.093 104.986 99.5914 105.178 99.0528C105.37 98.5142 105.443 97.9553 105.398 97.384C105.349 96.8087 105.178 96.2375 104.88 95.6704Z" fill="#333333"/>
<path d="M91.1032 99.7303L94.8718 104.985L94.8066 105.03L87.404 102.382L86.1641 103.276L91.6946 110.991L93.0813 109.996L89.3127 104.737L89.3821 104.688L96.7806 107.34L98.0327 106.446L92.5022 98.7266L91.1032 99.7303Z" fill="#333333"/>
<path d="M75.924 110.779C75.663 110.53 75.3612 110.359 75.0145 110.265C74.6678 110.171 74.313 110.171 73.9541 110.273C73.5911 110.375 73.2852 110.555 73.0364 110.812C72.7876 111.069 72.6163 111.375 72.5225 111.722C72.4287 112.069 72.4287 112.424 72.5307 112.783C72.6326 113.146 72.8121 113.452 73.069 113.701C73.33 113.95 73.6319 114.121 73.9745 114.215C74.3211 114.309 74.6719 114.309 75.039 114.207C75.3979 114.105 75.7038 113.925 75.9526 113.668C76.2014 113.407 76.3727 113.105 76.4665 112.758C76.5603 112.411 76.5603 112.056 76.4583 111.693C76.3604 111.334 76.1769 111.028 75.92 110.779H75.924Z" fill="#333333"/>
<path d="M54.188 110.477C53.6945 110.669 53.3151 110.955 53.05 111.326C52.7849 111.697 52.6381 112.134 52.6055 112.623C52.5728 113.105 52.6422 113.521 52.8176 113.876C52.9929 114.231 53.2254 114.508 53.5232 114.716C53.8209 114.924 54.1349 115.051 54.4694 115.092L54.4612 115.186C54.1472 115.239 53.8617 115.341 53.6006 115.492C53.3396 115.643 53.1235 115.851 52.9603 116.116C52.7931 116.377 52.6952 116.703 52.6707 117.087C52.6381 117.556 52.7237 117.985 52.9236 118.368C53.1234 118.756 53.4457 119.07 53.8861 119.315C54.3266 119.559 54.8895 119.706 55.5747 119.755L59.2005 120.004L59.849 110.53L56.0152 110.269C55.2892 110.22 54.6815 110.289 54.188 110.481V110.477ZM57.5813 118.466L55.8479 118.348C55.3422 118.315 54.971 118.168 54.7263 117.911C54.4857 117.658 54.3756 117.344 54.4041 116.977C54.4245 116.699 54.5061 116.463 54.657 116.271C54.8079 116.079 55.0078 115.936 55.2525 115.842C55.4972 115.749 55.7664 115.712 56.0641 115.732L57.7608 115.851L57.5813 118.466ZM58.0341 111.844L57.8424 114.618L55.9499 114.488C55.5951 114.463 55.2933 114.378 55.0485 114.227C54.8038 114.076 54.6162 113.884 54.4939 113.647C54.3715 113.411 54.3185 113.154 54.3389 112.872C54.3633 112.497 54.5224 112.199 54.8161 111.979C55.1097 111.758 55.5665 111.669 56.1865 111.713L58.03 111.84L58.0341 111.844Z" fill="#333333"/>
<path d="M47.8832 112.55L46.1906 112.109L45.2648 108.274L43.409 107.789L44.4491 111.954C44.3838 111.963 44.3145 111.967 44.2533 111.979C43.7068 112.085 43.254 112.326 42.891 112.693C42.528 113.06 42.2711 113.537 42.1161 114.125C41.9611 114.713 41.953 115.255 42.0835 115.761C42.214 116.267 42.4873 116.704 42.9033 117.075C43.3193 117.446 43.8781 117.724 44.5837 117.907L48.026 118.809L50.4242 109.621L48.7601 109.184L47.8832 112.55ZM45.1995 116.585C44.7835 116.475 44.4613 116.328 44.2288 116.136C43.9963 115.949 43.8495 115.72 43.7802 115.455C43.7108 115.19 43.719 114.892 43.8046 114.57C43.8903 114.247 44.0249 113.986 44.2084 113.794C44.396 113.607 44.6326 113.488 44.9263 113.44C45.2199 113.395 45.5707 113.423 45.9867 113.533L47.5202 113.933L46.7249 116.985L45.1995 116.585Z" fill="#333333"/>
<path d="M40.5301 106.405C40.3628 106.336 40.1915 106.311 40.0121 106.336C39.8367 106.36 39.6736 106.426 39.5267 106.532C39.3799 106.638 39.2698 106.777 39.1923 106.948C39.0862 107.205 39.0903 107.466 39.2004 107.727C39.3106 107.988 39.49 108.172 39.7429 108.278C40.0039 108.388 40.2609 108.388 40.526 108.286C40.787 108.18 40.9705 108.001 41.0766 107.744C41.1908 107.482 41.1908 107.221 41.0847 106.96C40.9746 106.699 40.7911 106.515 40.5341 106.405H40.5301Z" fill="#333333"/>
<path d="M34.1787 103.141C33.5262 102.749 32.9103 102.517 32.3271 102.448C31.7438 102.374 31.2258 102.448 30.765 102.664C30.3041 102.88 29.9329 103.227 29.6434 103.704C29.4313 104.055 29.313 104.406 29.2885 104.745C29.264 105.087 29.3089 105.418 29.4231 105.74C29.5373 106.063 29.7005 106.369 29.9125 106.662C30.1246 106.956 30.3612 107.229 30.6263 107.486L31.2748 108.135C31.4175 108.274 31.5562 108.425 31.6826 108.58C31.8132 108.735 31.9192 108.898 32.0008 109.065C32.0864 109.233 32.1272 109.404 32.1313 109.575C32.1313 109.747 32.0864 109.918 31.9845 110.085C31.858 110.289 31.6908 110.432 31.4787 110.522C31.2666 110.612 31.0219 110.636 30.7487 110.595C30.4754 110.559 30.1817 110.445 29.8758 110.261C29.4394 110 29.1417 109.69 28.9826 109.331C28.8236 108.972 28.8317 108.608 29.003 108.241L27.5837 107.393C27.3186 107.858 27.2044 108.339 27.2411 108.841C27.2778 109.343 27.4532 109.828 27.7713 110.289C28.0894 110.751 28.534 111.154 29.1131 111.501C29.6841 111.844 30.2551 112.048 30.8221 112.117C31.3931 112.187 31.9151 112.117 32.3923 111.917C32.8695 111.713 33.2529 111.371 33.5384 110.889C33.8892 110.306 33.9748 109.722 33.7954 109.139C33.6159 108.555 33.2447 107.976 32.6778 107.401L31.8947 106.605C31.6459 106.356 31.442 106.12 31.2789 105.895C31.1157 105.671 31.0178 105.45 30.977 105.238C30.9403 105.026 30.9811 104.814 31.1076 104.598C31.2503 104.365 31.442 104.206 31.6826 104.112C31.9233 104.018 32.1965 103.998 32.4943 104.047C32.7961 104.096 33.1061 104.214 33.4283 104.406C33.7342 104.59 33.987 104.802 34.1787 105.042C34.3704 105.283 34.4887 105.544 34.5295 105.826C34.5703 106.107 34.5173 106.393 34.3664 106.691L35.8183 107.56C36.1201 107.005 36.2547 106.462 36.218 105.928C36.1813 105.393 35.9896 104.892 35.6429 104.414C35.2963 103.941 34.8028 103.512 34.1706 103.133L34.1787 103.141Z" fill="#333333"/>
<path d="M25.9232 97.1597L20.5803 103.182L18.386 101.236L17.4316 102.313L23.0927 107.34L24.0512 106.262L21.8569 104.316L27.1998 98.2899L25.9232 97.1597Z" fill="#333333"/>
<path d="M20.5078 94.8463C20.8545 94.0997 20.985 93.3489 20.8953 92.5941C20.8056 91.8352 20.5078 91.1294 20.0062 90.4643C19.5004 89.8033 18.8968 89.33 18.1912 89.0403C17.4856 88.7507 16.727 88.6772 15.9194 88.8159C15.1078 88.9547 14.2962 89.3341 13.4845 89.9543C12.6729 90.5745 12.0896 91.2558 11.743 92.0025C11.3963 92.7492 11.2658 93.4999 11.3596 94.2547C11.4493 95.0095 11.747 95.7195 12.2528 96.3805C12.7585 97.0414 13.3622 97.5147 14.0678 97.8044C14.7733 98.0941 15.532 98.1675 16.3395 98.0288C17.1471 97.8901 17.9628 97.5106 18.7744 96.8905C19.5861 96.2703 20.1652 95.5889 20.5119 94.8463H20.5078ZM17.7222 95.5155C17.1512 95.952 16.5965 96.2336 16.0663 96.356C15.536 96.4784 15.0507 96.458 14.6061 96.2989C14.1656 96.1397 13.7863 95.8541 13.4723 95.442C13.1582 95.0299 12.9828 94.5934 12.9461 94.1242C12.9094 93.6549 13.0196 93.1816 13.2765 92.7002C13.5335 92.2228 13.9495 91.7618 14.5246 91.3252C15.0956 90.8886 15.6502 90.6071 16.1805 90.4847C16.7107 90.3623 17.196 90.3827 17.6406 90.5418C18.0811 90.7009 18.4604 90.9865 18.7744 91.3986C19.0885 91.8107 19.2639 92.2473 19.3006 92.7165C19.3373 93.1857 19.2272 93.659 18.9702 94.1405C18.7133 94.6178 18.2972 95.0789 17.7222 95.5155Z" fill="#333333"/>
<path d="M15.2823 83.3321L12.1541 84.8458L11.3914 83.2709L13.7121 80.0762L12.876 78.3462L10.3799 81.8388C10.3309 81.7939 10.282 81.7449 10.233 81.7041C9.79664 81.3573 9.32352 81.1655 8.80554 81.1288C8.29164 81.0921 7.76143 81.2023 7.21082 81.4675C6.66429 81.7327 6.2442 82.0754 5.94238 82.5038C5.64057 82.9322 5.48558 83.4259 5.47334 83.9808C5.46111 84.5357 5.61202 85.1436 5.93015 85.8005L7.48001 89.0075L16.0287 84.8784L15.2823 83.328V83.3321ZM7.34541 85.417C7.1578 85.0294 7.06399 84.6867 7.05583 84.3888C7.05175 84.091 7.12517 83.8258 7.28423 83.6054C7.4433 83.381 7.6717 83.1974 7.97759 83.0506C8.27941 82.9037 8.56491 82.8384 8.83002 82.8588C9.09512 82.8751 9.33984 82.9812 9.56416 83.177C9.78848 83.3729 9.99649 83.6585 10.18 84.042L10.8693 85.4701L8.03061 86.841L7.34541 85.4211V85.417Z" fill="#333333"/>
<path d="M11.7013 74.8291L5.33869 76.3224L5.3183 76.2368L11.0528 72.1934L10.7714 70.9938L3.85001 69.9248L3.82962 69.8392L10.1759 68.3458L9.80066 66.7383L0.558594 68.913L1.03987 70.9612L8.38131 72.1322L8.40578 72.2383L2.35725 76.5591L2.83852 78.6073L12.0765 76.4326L11.7013 74.8291Z" fill="#333333"/>
<path d="M9.7196 56.4771C9.7971 55.5142 9.67474 54.6778 9.34845 53.9597C9.02624 53.2457 8.52458 52.6745 7.84345 52.2542C7.16641 51.834 6.3303 51.581 5.34736 51.5035C4.36443 51.426 3.50792 51.5402 2.7697 51.8462C2.03556 52.1522 1.45232 52.6296 1.01999 53.2743C0.58766 53.9189 0.334788 54.7145 0.257295 55.6529L-0.0078125 58.9252L9.45449 59.6882L9.71144 56.4812L9.7196 56.4771ZM8.23092 56.4404L8.11672 57.848L1.61954 57.3258L1.73782 55.8651C1.79084 55.2245 1.95398 54.6982 2.22725 54.282C2.50051 53.8699 2.8839 53.568 3.38149 53.3885C3.87907 53.2049 4.48678 53.1437 5.21277 53.2008C5.93468 53.2579 6.53015 53.4171 6.99511 53.6782C7.46007 53.9393 7.79451 54.2984 8.00252 54.7594C8.21053 55.2205 8.28394 55.7794 8.23092 56.4404Z" fill="#333333"/>
<path d="M12.2809 43.4327L10.8901 43.0451L9.691 47.3741L7.1949 46.6846L8.3002 42.6983L6.9094 42.3107L5.80411 46.297L3.32025 45.6074L4.5112 41.3152L3.12448 40.9316L1.47266 46.8804L10.6209 49.4183L12.2809 43.4327Z" fill="#333333"/>
<path d="M7.01909 38.0796C7.63088 38.3775 8.21819 38.4101 8.78512 38.1817C9.35204 37.9532 9.89449 37.5329 10.4165 36.9168L11.1385 36.0682C11.3628 35.7989 11.583 35.5745 11.791 35.3949C12.0031 35.2154 12.2111 35.093 12.4191 35.0359C12.6271 34.9788 12.8433 35.0032 13.0676 35.1093C13.3123 35.2317 13.4877 35.4072 13.6019 35.6397C13.712 35.8723 13.7569 36.1416 13.7365 36.4435C13.7161 36.7455 13.6223 37.0678 13.4592 37.4023C13.3042 37.7247 13.1125 37.994 12.8882 38.2061C12.6638 38.4183 12.4151 38.557 12.1377 38.6223C11.8604 38.6876 11.5708 38.659 11.2608 38.5366L10.5226 40.0585C11.1017 40.3115 11.6524 40.3971 12.1826 40.3155C12.7128 40.2339 13.1941 39.9973 13.6386 39.6097C14.0791 39.2221 14.4625 38.6957 14.7847 38.0307C15.1151 37.3452 15.2945 36.7128 15.3149 36.1253C15.3353 35.5377 15.2211 35.0277 14.9642 34.5871C14.7072 34.1464 14.332 33.8037 13.8303 33.563C13.4592 33.3834 13.1043 33.2978 12.7617 33.3018C12.4191 33.3059 12.0928 33.3834 11.7829 33.5262C11.4729 33.6691 11.1833 33.8608 10.9101 34.0975C10.6368 34.3341 10.3839 34.5952 10.1514 34.8808L9.56413 35.5826C9.43769 35.7377 9.3031 35.8846 9.15627 36.0274C9.00944 36.1702 8.85853 36.2885 8.69947 36.3864C8.5404 36.4843 8.37726 36.5414 8.20596 36.5618C8.03466 36.5822 7.85928 36.5455 7.6839 36.4598C7.47181 36.3538 7.31275 36.1987 7.20263 35.9947C7.09658 35.7907 7.04764 35.55 7.06396 35.2725C7.08027 34.9951 7.16592 34.6932 7.32091 34.3708C7.54523 33.9139 7.82665 33.5875 8.16925 33.3998C8.51185 33.2121 8.87485 33.1835 9.25823 33.3222L9.98014 31.833C9.49479 31.6086 9.00536 31.5352 8.50777 31.6168C8.01019 31.6984 7.54523 31.9146 7.1129 32.2696C6.68057 32.6245 6.31758 33.106 6.02392 33.7139C5.73434 34.3096 5.57935 34.8972 5.55896 35.4725C5.53857 36.0478 5.65277 36.5619 5.89748 37.0188C6.1422 37.4758 6.51743 37.8267 7.01909 38.0715V38.0796Z" fill="#333333"/>
<path d="M10.7371 25.9086L9.77734 27.3379L17.6558 32.632L18.6155 31.2027L10.7371 25.9086Z" fill="#333333"/>
<path d="M15.2454 24.1749C15.5431 24.742 15.9714 25.2888 16.5383 25.8069C17.2765 26.4842 18.0351 26.9331 18.8223 27.1534C19.6095 27.3737 20.3681 27.3737 21.1063 27.1534C21.8445 26.9331 22.5053 26.5006 23.0967 25.86C23.6269 25.2806 23.9817 24.6604 24.153 23.9995C24.3243 23.3385 24.3121 22.6775 24.1122 22.0206C23.9083 21.3637 23.5086 20.7599 22.909 20.209L22.0689 19.4379L19.4626 22.2736L20.4537 23.1834L21.9302 21.5759C22.2442 21.8778 22.4645 22.2042 22.5787 22.5592C22.701 22.9305 22.7092 23.3099 22.6072 23.6975C22.5053 24.0851 22.2891 24.4523 21.9628 24.8073C21.6039 25.199 21.192 25.4561 20.7311 25.5744C20.2702 25.6968 19.7808 25.6723 19.2587 25.5009C18.7367 25.3296 18.2187 25.0032 17.6885 24.5176C17.1664 24.0362 16.7993 23.5466 16.5872 23.0406C16.3752 22.5347 16.3099 22.0532 16.3915 21.584C16.473 21.1148 16.6851 20.6946 17.0318 20.3192C17.2235 20.1111 17.4274 19.9398 17.6436 19.8133C17.8598 19.6868 18.0841 19.6011 18.3166 19.5603C18.549 19.5195 18.7815 19.5154 19.0181 19.5521C19.2546 19.5889 19.4912 19.6623 19.7277 19.7765L20.9146 18.4872C20.5231 18.222 20.1071 18.0466 19.6706 17.9527C19.2302 17.8589 18.7897 17.8467 18.341 17.9201C17.8965 17.9895 17.4601 18.1404 17.04 18.373C16.6199 18.6056 16.2324 18.9116 15.8776 19.2992C15.4575 19.7561 15.1516 20.2539 14.9558 20.7925C14.76 21.3311 14.6866 21.886 14.7315 22.4613C14.7763 23.0366 14.9477 23.6078 15.2413 24.1749H15.2454Z" fill="#333333"/>
<path d="M29.0359 20.1641L25.2836 14.8926L25.3489 14.8477L32.7433 17.5202L33.9873 16.6348L28.4853 8.89893L27.0904 9.89039L30.8427 15.166L30.7734 15.2108L23.383 12.5302L22.1309 13.4238L27.6329 21.1596L29.0359 20.1641Z" fill="#333333"/>
<path d="M44.2524 9.16798C44.5093 9.41687 44.8152 9.59231 45.1619 9.68616C45.5086 9.78408 45.8634 9.78 46.2223 9.68616C46.5853 9.58823 46.8912 9.40871 47.14 9.14758C47.3888 8.89054 47.5601 8.58453 47.658 8.2418C47.7518 7.89499 47.7518 7.54002 47.6539 7.18097C47.556 6.81784 47.3765 6.51183 47.1155 6.26295C46.8586 6.01406 46.5568 5.8427 46.2101 5.74477C45.8634 5.64685 45.5126 5.65093 45.1456 5.74885C44.7867 5.84678 44.4808 6.0263 44.232 6.28335C43.9832 6.54039 43.8078 6.8464 43.714 7.18913C43.6161 7.53594 43.6202 7.88683 43.7181 8.25404C43.816 8.61309 43.9954 8.9191 44.2524 9.16798Z" fill="#333333"/>
<path fill-rule="evenodd" clip-rule="evenodd" d="M56.5538 62.032L50.8076 67.7782L52.2218 69.1924L57.9681 63.4462C58.2864 63.6343 58.633 63.7795 59 63.874V72H61V63.874C61.367 63.7795 61.7136 63.6343 62.0319 63.4462L67.7782 69.1924L69.1924 67.7782L63.4462 62.032C63.6343 61.7137 63.7795 61.367 63.874 61L72 61V59L63.874 59C63.7795 58.633 63.6343 58.2864 63.4462 57.9681L69.1924 52.2218L67.7782 50.8076L62.032 56.5538C61.7137 56.3657 61.367 56.2205 61 56.126V48H59V56.126C58.633 56.2205 58.2863 56.3657 57.968 56.5538L52.2218 50.8076L50.8076 52.2218L56.5538 57.9681C56.3657 58.2864 56.2205 58.633 56.126 59L48 59V61L56.126 61C56.2205 61.367 56.3657 61.7137 56.5538 62.032Z" fill="#333333"/>
</g>
<defs>
<clipPath id="clip0_2320_2934">
<rect width="120" height="120" fill="white"/>
</clipPath>
</defs>
</svg>
