<svg width="150" height="150" viewBox="0 0 150 150" fill="none" xmlns="http://www.w3.org/2000/svg">
<path d="M96.2569 82.548C96.2569 82.548 95.09 82.5326 93.903 81.8706C92.7161 81.2086 92.5145 80.7299 91.9864 80.7838C91.4584 80.8361 91.6216 80.1818 91.6216 80.1818C91.6216 80.1818 91.6416 79.8909 91.1967 79.6014C91.1443 79.5676 91.0335 79.5122 90.8811 79.4398C91.7016 76.5271 91.7016 73.4728 90.8811 70.5602C91.0335 70.4894 91.1443 70.434 91.1967 70.3986C91.6401 70.1091 91.6216 69.8182 91.6216 69.8182C91.6216 69.8182 91.4584 69.1639 91.9864 69.2162C92.5145 69.2686 92.7161 68.7898 93.903 68.1294C95.09 67.4674 96.2569 67.452 96.2569 67.452C99.3635 66.9024 99.0556 65.4538 98.9248 65.0905C98.7601 64.741 97.9534 63.4987 95.3686 65.306C95.3686 65.306 94.5327 66.1204 93.2257 66.4914C91.9187 66.864 91.4368 66.6669 91.1012 67.0779C90.7656 67.489 90.4177 66.9101 90.4177 66.9101C90.4177 66.9101 90.2253 66.69 89.7065 66.7993C89.6449 66.8116 89.5264 66.8516 89.3678 66.9101C88.0808 64.6163 86.2688 62.6705 84.0505 61.2157C83.7364 61.0094 83.4162 60.8154 83.0899 60.6322C83.1484 60.4736 83.1868 60.3536 83.2007 60.2935C83.31 59.7747 83.0899 59.5823 83.0899 59.5823C83.0899 59.5823 82.5111 59.2344 82.9221 58.8988C83.3331 58.5632 83.136 58.0813 83.5086 56.7743C83.8811 55.4673 84.694 54.6314 84.694 54.6314C86.5013 52.0466 85.259 51.24 84.9095 51.0752C84.5462 50.9444 83.0976 50.6365 82.548 53.7431C82.548 53.7431 82.5326 54.91 81.8706 56.097C81.2087 57.2839 80.7299 57.4856 80.7838 58.0136C80.8361 58.5416 80.1818 58.3784 80.1818 58.3784C80.1818 58.3784 79.8909 58.3584 79.6015 58.8033C79.5676 58.8557 79.5106 58.9681 79.4398 59.1205C78.0035 58.7187 76.5118 58.5093 75 58.5093H74.9954C73.4883 58.5093 72.0027 58.7141 70.5602 59.1205C70.4894 58.9681 70.434 58.8557 70.3986 58.8033C70.1091 58.36 69.8182 58.3784 69.8182 58.3784C69.8182 58.3784 69.1639 58.5416 69.2163 58.0136C69.2686 57.4856 68.7898 57.2839 68.1294 56.097C67.4674 54.91 67.452 53.7431 67.452 53.7431C66.9025 50.6365 65.4538 50.9444 65.0905 51.0752C64.741 51.24 63.4987 52.0466 65.306 54.6314C65.306 54.6314 66.1204 55.4673 66.4914 56.7743C66.864 58.0813 66.6669 58.5632 67.0779 58.8988C67.489 59.2344 66.9102 59.5823 66.9102 59.5823C66.9102 59.5823 66.69 59.7747 66.7993 60.2935C66.8116 60.3551 66.8517 60.4721 66.9086 60.6307C64.2684 62.1101 62.1101 64.2684 60.6307 66.9086C60.4721 66.8501 60.3551 66.8116 60.2936 66.7993C59.7748 66.69 59.5823 66.9101 59.5823 66.9101C59.5823 66.9101 59.2344 67.489 58.8988 67.0779C58.5632 66.6669 58.0813 66.864 56.7743 66.4914C55.4673 66.1189 54.6314 65.306 54.6314 65.306C52.0467 63.4987 51.24 64.741 51.0752 65.0905C50.9444 65.4538 50.6365 66.9024 53.7431 67.452C53.7431 67.452 54.9101 67.4674 56.097 68.1294C57.2839 68.7914 57.4856 69.2701 58.0136 69.2162C58.5416 69.1639 58.3784 69.8182 58.3784 69.8182C58.3784 69.8182 58.3584 70.1091 58.8033 70.3986C58.8557 70.4324 58.9665 70.4878 59.1189 70.5602C58.2984 73.4728 58.2984 76.5256 59.1189 79.4398C58.9665 79.5106 58.8557 79.566 58.8033 79.6014C58.36 79.8909 58.3784 80.1818 58.3784 80.1818C58.3784 80.1818 58.5416 80.8361 58.0136 80.7838C57.4856 80.7314 57.2839 81.2102 56.097 81.8706C54.9101 82.5326 53.7431 82.548 53.7431 82.548C50.6365 83.0976 50.9444 84.5462 51.0752 84.9095C51.24 85.259 52.0467 86.5013 54.6314 84.694C54.6314 84.694 55.4673 83.8796 56.7743 83.5086C58.0813 83.136 58.5632 83.3331 58.8988 82.9221C59.2344 82.511 59.5823 83.0899 59.5823 83.0899C59.5823 83.0899 59.7748 83.31 60.2936 83.2007C60.3551 83.1884 60.4737 83.1484 60.6322 83.0899C61.9192 85.3837 63.7312 87.3295 65.9495 88.7843C66.2636 88.9906 66.5838 89.1846 66.9102 89.3678C66.8517 89.5264 66.8132 89.6464 66.7993 89.7065C66.69 90.2253 66.9102 90.4177 66.9102 90.4177C66.9102 90.4177 67.489 90.7656 67.0779 91.1012C66.6669 91.4368 66.864 91.9187 66.4914 93.2257C66.1189 94.5327 65.306 95.3686 65.306 95.3686C63.4987 97.9534 64.741 98.76 65.0905 98.9247C65.4538 99.0556 66.9025 99.3635 67.452 96.2569C67.452 96.2569 67.4674 95.09 68.1294 93.903C68.7914 92.7161 69.2701 92.5144 69.2163 91.9864C69.1639 91.4584 69.8182 91.6216 69.8182 91.6216C69.8182 91.6216 70.1091 91.6416 70.3986 91.1967C70.4324 91.1443 70.4894 91.0319 70.5602 90.8795C71.9981 91.2813 73.4913 91.4907 75.0046 91.4907C76.5179 91.4907 77.9973 91.2859 79.4398 90.8795C79.5106 91.0319 79.5661 91.1443 79.6015 91.1967C79.8909 91.64 80.1818 91.6216 80.1818 91.6216C80.1818 91.6216 80.8361 91.4584 80.7838 91.9864C80.7314 92.5144 81.2102 92.7161 81.8706 93.903C82.5326 95.09 82.548 96.2569 82.548 96.2569C83.0976 99.3635 84.5462 99.0556 84.9095 98.9247C85.259 98.76 86.5013 97.9534 84.694 95.3686C84.694 95.3686 83.8796 94.5327 83.5086 93.2257C83.136 91.9187 83.3331 91.4368 82.9221 91.1012C82.5111 90.7656 83.0899 90.4177 83.0899 90.4177C83.0899 90.4177 83.31 90.2253 83.2007 89.7065C83.1884 89.6449 83.1484 89.5279 83.0914 89.3693C85.7316 87.8899 87.8899 85.7316 89.3693 83.0914C89.5279 83.1499 89.6449 83.1884 89.7065 83.2007C90.2253 83.31 90.4177 83.0899 90.4177 83.0899C90.4177 83.0899 90.7656 82.511 91.1012 82.9221C91.4368 83.3331 91.9187 83.136 93.2257 83.5086C94.5327 83.8811 95.3686 84.694 95.3686 84.694C97.9534 86.5013 98.7601 85.259 98.9248 84.9095C99.0556 84.5462 99.3635 83.0976 96.2569 82.548ZM86.8108 77.7479C86.4305 77.5955 86.1857 77.4986 86.1857 77.4986C86.1857 77.4986 85.707 77.3739 85.4098 77.6525C85.4098 77.6525 83.5086 76.8597 81.9676 76.3424C81.9676 76.3424 81.5735 76.3424 81.2964 76.4317C81.0193 76.521 80.7422 76.2423 80.7422 76.2423C80.7422 76.2423 80.2726 75.4618 79.6215 75.3171C79.6368 75.1062 79.6353 74.8938 79.6215 74.6813C80.2726 74.5366 80.7422 73.7561 80.7422 73.7561C80.7422 73.7561 81.0193 73.4775 81.2964 73.5668C81.5735 73.656 81.9676 73.656 81.9676 73.656C83.5102 73.1388 85.4098 72.346 85.4098 72.346C85.707 72.6246 86.1857 72.4999 86.1857 72.4999C86.1857 72.4999 86.4321 72.4029 86.8123 72.249C87.2449 74.0963 87.2249 75.9729 86.8108 77.7449V77.7479ZM85.2959 68.5897C84.9188 68.7513 84.6755 68.856 84.6755 68.856C84.6755 68.856 84.2491 69.107 84.2353 69.5134C84.2353 69.5134 82.3309 70.2969 80.8746 71.022C80.8746 71.022 80.5975 71.3007 80.4636 71.5608C80.3312 71.8195 79.9371 71.8179 79.9371 71.8179C79.9371 71.8179 79.0534 71.5978 78.4915 71.9565C78.3514 71.7948 78.2021 71.644 78.042 71.5054C78.3992 70.9435 78.1805 70.0599 78.1805 70.0599C78.1805 70.0599 78.179 69.6673 78.4376 69.5334C78.6962 69.401 78.9764 69.1223 78.9764 69.1223C79.7015 67.666 80.4851 65.7617 80.4851 65.7617C80.8915 65.7478 81.1425 65.3214 81.1425 65.3214C81.1425 65.3214 81.2471 65.0782 81.4088 64.701C82.9544 65.6616 84.2953 66.9763 85.2959 68.5866V68.5897ZM74.9939 62.8675C75.9268 62.8675 76.8504 62.9768 77.7464 63.1862C77.594 63.5664 77.4955 63.8127 77.4955 63.8127C77.4955 63.8127 77.3708 64.2915 77.6494 64.5886C77.6494 64.5886 76.8566 66.4899 76.3393 68.0309C76.3393 68.0309 76.3393 68.425 76.4286 68.7021C76.5179 68.9792 76.2393 69.2563 76.2393 69.2563C76.2393 69.2563 75.4588 69.7258 75.314 70.377C75.2078 70.3693 75.1016 70.3647 74.9939 70.3647C74.8861 70.3647 74.7829 70.3693 74.6767 70.377C74.532 69.7258 73.7515 69.2563 73.7515 69.2563C73.7515 69.2563 73.4729 68.9792 73.5622 68.7021C73.6514 68.425 73.6515 68.0309 73.6515 68.0309C73.1342 66.4883 72.3414 64.5886 72.3414 64.5886C72.62 64.2915 72.4953 63.8127 72.4953 63.8127C72.4953 63.8127 72.3983 63.5664 72.2459 63.1862C73.1588 62.9722 74.0779 62.866 74.9892 62.866L74.9939 62.8675ZM68.5882 64.7041C68.7498 65.0813 68.8545 65.3245 68.8545 65.3245C68.8545 65.3245 69.1054 65.7509 69.5118 65.7648C69.5118 65.7648 70.2954 67.6691 71.0205 69.1254C71.0205 69.1254 71.2991 69.4025 71.5593 69.5364C71.8195 69.6704 71.8164 70.0629 71.8164 70.0629C71.8164 70.0629 71.5963 70.9466 71.955 71.5085C71.7933 71.6486 71.644 71.7995 71.5054 71.958C70.9435 71.6009 70.0599 71.8195 70.0599 71.8195C70.0599 71.8195 69.6673 71.821 69.5334 71.5624C69.401 71.3038 69.1223 71.0236 69.1223 71.0236C67.666 70.2985 65.7617 69.5149 65.7617 69.5149C65.7479 69.1085 65.3214 68.8576 65.3214 68.8576C65.3214 68.8576 65.0797 68.7529 64.7026 68.5912C65.6632 67.0456 66.9763 65.7047 68.5882 64.7041ZM63.1862 72.2536C63.5665 72.406 63.8112 72.503 63.8112 72.503C63.8112 72.503 64.29 72.6277 64.5871 72.349C64.5871 72.349 66.4883 73.1419 68.0293 73.6591C68.0293 73.6591 68.4234 73.6591 68.7005 73.5698C68.9776 73.4806 69.2547 73.7592 69.2547 73.7592C69.2547 73.7592 69.7243 74.5397 70.3755 74.6844C70.3601 74.8953 70.3616 75.1078 70.3755 75.3202C69.7243 75.4649 69.2547 76.2454 69.2547 76.2454C69.2547 76.2454 68.9776 76.5241 68.7005 76.4348C68.4234 76.3455 68.0293 76.3455 68.0293 76.3455C66.4868 76.8628 64.5871 77.6556 64.5871 77.6556C64.29 77.3769 63.8112 77.5016 63.8112 77.5016C63.8112 77.5016 63.5649 77.5986 63.1847 77.7525C62.7521 75.9052 62.7721 74.0286 63.1862 72.2567V72.2536ZM64.701 81.4118C65.0782 81.2502 65.3214 81.1455 65.3214 81.1455C65.3214 81.1455 65.7479 80.8946 65.7617 80.4882C65.7617 80.4882 67.666 79.7046 69.1223 78.9795C69.1223 78.9795 69.3995 78.7009 69.5334 78.4407C69.6658 78.1821 70.0599 78.1836 70.0599 78.1836C70.0599 78.1836 70.9435 78.4037 71.5054 78.045C71.6455 78.2067 71.7949 78.3576 71.955 78.4961C71.5978 79.058 71.8164 79.9417 71.8164 79.9417C71.8164 79.9417 71.8179 80.3342 71.5593 80.4682C71.3007 80.6005 71.0205 80.8792 71.0205 80.8792C70.2954 82.3355 69.5118 84.2398 69.5118 84.2398C69.1054 84.2537 68.8545 84.6801 68.8545 84.6801C68.8545 84.6801 68.7498 84.9234 68.5882 85.3005C67.0425 84.3399 65.7017 83.0252 64.701 81.4149V81.4118ZM75.0031 87.134C74.0702 87.134 73.1465 87.0247 72.2505 86.8153C72.4029 86.4351 72.5014 86.1888 72.5014 86.1888C72.5014 86.1888 72.6261 85.71 72.3475 85.4129C72.3475 85.4129 73.1403 83.5117 73.6576 81.9707C73.6576 81.9707 73.6576 81.5766 73.5683 81.2995C73.479 81.0224 73.7577 80.7453 73.7577 80.7453C73.7577 80.7453 74.5382 80.2757 74.6829 79.6245C74.7891 79.6322 74.8953 79.6369 75.0031 79.6369C75.1108 79.6369 75.214 79.6322 75.3202 79.6245C75.4649 80.2757 76.2454 80.7453 76.2454 80.7453C76.2454 80.7453 76.5241 81.0224 76.4348 81.2995C76.3455 81.5766 76.3455 81.9707 76.3455 81.9707C76.8628 83.5132 77.6556 85.4129 77.6556 85.4129C77.377 85.71 77.5017 86.1888 77.5017 86.1888C77.5017 86.1888 77.5986 86.4351 77.7526 86.8153C76.8397 87.0293 75.9206 87.1356 75.0092 87.1356L75.0031 87.134ZM81.4088 85.2974C81.2471 84.9203 81.1425 84.6771 81.1425 84.6771C81.1425 84.6771 80.8915 84.2506 80.4851 84.2368C80.4851 84.2368 79.7015 82.3324 78.9764 80.8761C78.9764 80.8761 78.6978 80.599 78.4376 80.4651C78.179 80.3327 78.1805 79.9386 78.1805 79.9386C78.1805 79.9386 78.4007 79.0549 78.042 78.493C78.2036 78.3529 78.353 78.2021 78.4915 78.0435C79.0534 78.4007 79.9371 78.1821 79.9371 78.1821C79.9371 78.1821 80.3296 78.1805 80.4636 78.4392C80.596 78.6978 80.8746 78.978 80.8746 78.978C82.3309 79.7031 84.2353 80.4866 84.2353 80.4866C84.2491 80.893 84.6755 81.144 84.6755 81.144C84.6755 81.144 84.9172 81.2487 85.2944 81.4103C84.3338 82.9559 83.0206 84.2968 81.4088 85.2974Z" fill="#00AEEF"/>
<path d="M13.3301 111.849C12.253 111.698 11.2675 111.04 10.7148 110.007C9.79291 108.283 10.4421 106.141 12.1683 105.219C13.8946 104.297 16.0441 104.941 16.966 106.668C17.5164 107.698 17.507 108.888 17.0342 109.868L15.7643 109.163C15.9148 108.565 15.9124 107.992 15.5972 107.399C15.0798 106.432 13.8663 106.07 12.8997 106.588C11.9331 107.105 11.5662 108.309 12.0836 109.276C12.4011 109.868 12.7915 110.141 13.4477 110.4L13.3301 111.846V111.849Z" fill="white"/>
<path d="M19.9668 117.921C18.3605 119.036 16.1568 118.639 15.0397 117.032C13.9179 115.417 14.3153 113.213 15.9216 112.098C17.5279 110.983 19.741 111.374 20.8628 112.989C21.9776 114.596 21.5731 116.806 19.9668 117.921ZM19.0801 116.647C19.9809 116.021 20.2137 114.777 19.5882 113.874C18.9555 112.964 17.709 112.747 16.8083 113.373C15.9075 113.998 15.6841 115.238 16.3144 116.148C16.94 117.049 18.1794 117.272 19.0801 116.647Z" fill="white"/>
<path d="M28.5439 122.505L23.5674 127.032L22.4808 125.837L25.0232 123.526L21.4154 124.666L20.9428 124.146L22.4173 120.706L19.8985 122.996L18.8049 121.795L23.7814 117.267L24.875 118.469L24.8515 118.49L23.3393 122.441L27.4597 121.31L28.5462 122.505H28.5439Z" fill="white"/>
<path d="M34.76 127.893L32.6174 130.405C31.2134 132.051 29.132 132.164 27.6833 130.929C26.2275 129.687 26.0111 127.613 27.4128 125.967L29.5554 123.455L30.8065 124.523L28.664 127.035C27.9796 127.839 27.9749 128.991 28.7628 129.662C29.5413 130.327 30.6795 130.141 31.3639 129.337L33.5064 126.825L34.7576 127.893H34.76Z" fill="white"/>
<path d="M41.8882 132.67L38.2029 138.295L36.8529 137.411L36.2532 132.206L34.0472 135.574L32.6973 134.69L36.3826 129.064L37.7325 129.949L38.2405 135.292L40.5359 131.785L41.8858 132.67H41.8882Z" fill="white"/>
<path d="M44.8022 134.149L41.6507 140.092L40.2231 139.335L43.3746 133.392L44.8022 134.149Z" fill="white"/>
<path d="M50.0069 142.486C49.0732 143.043 47.8925 143.149 46.8154 142.691C45.0162 141.924 44.179 139.847 44.9457 138.048C45.7124 136.249 47.7914 135.402 49.5906 136.169C50.6654 136.628 51.4062 137.559 51.6508 138.62L50.2186 138.864C49.9622 138.305 49.6 137.86 48.9815 137.597C47.9726 137.166 46.8013 137.646 46.3709 138.657C45.9405 139.666 46.4109 140.833 47.4198 141.263C48.0384 141.527 48.5134 141.494 49.1884 141.284L50.0045 142.486H50.0069Z" fill="white"/>
<path d="M55.8539 144.671L52.7306 143.732L52.0298 144.483L50.2847 143.958L55.4187 138.476L56.5876 138.826L57.7353 146.195L56.0208 145.68L55.8491 144.666L55.8539 144.671ZM55.6281 143.231L55.2894 140.87L53.756 142.667L55.6281 143.229V143.231Z" fill="white"/>
<path d="M65.7076 146.359C64.9268 147.105 63.8097 147.476 62.6691 147.276C60.7523 146.94 59.4659 145.12 59.7998 143.203C60.1361 141.286 61.9682 140 63.8826 140.336C65.0232 140.536 65.9452 141.275 66.4273 142.241L65.0891 142.806C64.7222 142.321 64.2801 141.971 63.6169 141.855C62.5374 141.667 61.5073 142.389 61.3168 143.469C61.1286 144.539 61.8529 145.569 62.9324 145.757C63.5956 145.872 64.0401 145.731 64.6375 145.374L65.7053 146.359H65.7076ZM64.0684 148.521L60.797 147.949L60.5924 149.12L63.8638 149.692L64.0684 148.521Z" fill="white"/>
<path d="M72.6597 147.206L69.4165 147.025L68.9109 147.919L67.1023 147.818L70.8041 141.319L71.9306 141.383L74.8845 148.253L73.0666 148.152L72.6644 147.206H72.6597ZM72.3093 140.306C71.7002 140.271 70.9452 139.671 70.4607 139.643C70.1409 139.624 69.7105 139.88 69.6259 139.939L68.9532 138.979C69.0285 138.921 69.7599 138.443 70.5242 138.488C71.1334 138.523 71.9001 139.104 72.3751 139.13C72.695 139.149 73.123 138.902 73.2218 138.836L73.8827 139.805C73.8168 139.864 73.0854 140.35 72.3093 140.308V140.306ZM72.1023 145.87L71.2298 143.667L70.1691 145.762L72.0999 145.87H72.1023Z" fill="white"/>
<path d="M83.377 144.393C83.5064 146.345 82.0317 148.029 80.0797 148.156C78.1183 148.285 76.4344 146.811 76.305 144.859C76.1757 142.907 77.6503 141.213 79.6117 141.084C81.5637 140.955 83.2476 142.441 83.377 144.393ZM81.8295 144.494C81.7566 143.401 80.8111 142.561 79.7152 142.632C78.6098 142.704 77.782 143.662 77.8549 144.755C77.9278 145.849 78.8732 146.679 79.9786 146.606C81.0722 146.533 81.9024 145.588 81.8295 144.492V144.494Z" fill="white"/>
<path d="M90.9007 139.506L92.427 146.056L90.8559 146.423L89.3296 139.873L90.9007 139.506Z" fill="white"/>
<path d="M99.1697 136.978L101.272 143.368L99.7388 143.871L95.2962 141.096L96.5544 144.92L95.021 145.426L92.9185 139.036L94.4519 138.53L98.9462 141.463L97.6363 137.482L99.1697 136.978Z" fill="white"/>
<path d="M106.769 135.054L104.454 136.141L106.696 140.917L105.235 141.604L102.994 136.828L100.68 137.914L100.063 136.602L106.152 133.744L106.769 135.057V135.054Z" fill="white"/>
<path d="M109.325 133.526L109.946 134.553L112.274 133.145L113.017 134.375L110.689 135.783L111.31 136.811L114.259 135.028L115.002 136.258L110.673 138.876L107.192 133.121L111.522 130.503L112.272 131.743L109.323 133.526H109.325Z" fill="white"/>
<path d="M120.976 130.282L120.967 130.289C120.981 131.369 120.494 132.441 119.562 133.149C118.006 134.332 115.778 134.034 114.595 132.477C113.412 130.92 113.718 128.685 115.275 127.502C116.206 126.795 117.26 126.606 118.311 126.914L117.806 128.286C117.244 128.232 116.75 128.333 116.213 128.74C115.341 129.403 115.167 130.666 115.83 131.538C116.493 132.413 117.749 132.575 118.622 131.912C119.076 131.569 119.334 131.073 119.398 130.555L118.972 129.995L117.349 131.228L116.566 130.198L119.32 128.107L120.974 130.282H120.976Z" fill="white"/>
<path d="M126.23 127.114L124.271 126.668L123.419 127.484L124.579 128.695L123.389 129.831L118.739 124.97C118.739 124.97 120.527 123.26 121.103 122.709C122.098 121.759 123.662 121.896 124.675 122.959C125.348 123.662 125.475 124.499 125.223 125.268L127.695 125.71L126.23 127.112V127.114ZM122.396 126.414L123.384 125.471C123.782 125.092 123.859 124.516 123.474 124.111C123.095 123.714 122.465 123.7 122.069 124.081L121.075 125.031L122.399 126.414H122.396Z" fill="white"/>
<path d="M131.78 119.508L129.718 122.032L130.143 122.968L128.991 124.377L125.901 117.533L126.674 116.587L133.918 118.354L132.784 119.739L131.783 119.508H131.78ZM130.364 119.165L128.055 118.572L129.127 120.677L130.364 119.163V119.165Z" fill="white"/>
<path d="M135.705 109.346C137.279 110.344 137.752 112.42 136.754 113.994L135.047 116.684L129.367 113.083L131.075 110.393C132.178 108.655 134.141 108.356 135.705 109.349V109.346ZM134.842 110.71C133.996 110.172 132.975 110.409 132.521 111.124C132.288 111.491 131.597 112.585 131.597 112.585L134.551 114.457L135.475 112.996C135.898 112.272 135.691 111.247 134.842 110.708V110.71Z" fill="white"/>
<path d="M140.618 104.897L139.207 107.834L139.84 108.643L139.052 110.285L134.438 104.358L134.967 103.257L142.425 103.269L141.649 104.882L140.621 104.894L140.618 104.897ZM139.16 104.897L136.775 104.864L138.314 106.658L139.16 104.894V104.897Z" fill="white"/>
<path d="M14.0144 46.7405C14.5858 47.6672 14.7058 48.8478 14.2613 49.9296C13.5181 51.7382 11.4532 52.6037 9.64468 51.8605C7.83612 51.1173 6.96124 49.05 7.70442 47.2391C8.14892 46.1573 9.07079 45.407 10.1291 45.146L10.3926 46.5736C9.83752 46.837 9.39536 47.2039 9.14136 47.8271C8.72508 48.8431 9.22136 50.0073 10.235 50.4235C11.2486 50.8398 12.4104 50.353 12.8267 49.3393C13.0807 48.7161 13.0407 48.241 12.8267 47.5708L14.0167 46.7382L14.0144 46.7405Z" fill="white"/>
<path d="M16.3451 38.1117C18.0502 39.0689 18.6546 41.2255 17.6974 42.9306C16.7355 44.6451 14.5789 45.2495 12.8738 44.2923C11.1687 43.3351 10.5549 41.1738 11.5168 39.4593C12.474 37.7542 14.64 37.1545 16.3451 38.1117ZM15.5854 39.464C14.6283 38.9278 13.4076 39.2617 12.8714 40.2189C12.3281 41.1832 12.6786 42.4014 13.6358 42.9377C14.593 43.4739 15.8042 43.1352 16.3451 42.1686C16.8813 41.2114 16.5426 40.0002 15.5854 39.464Z" fill="white"/>
<path d="M19.6824 27.947L25.0069 32.058L24.0215 33.3351L21.3005 31.2349L23.0526 34.5886L22.6222 35.146L18.9792 34.2946L21.6744 36.376L20.682 37.6624L15.3574 33.5514L16.3499 32.265L16.3757 32.2838L20.5291 33.0834L18.697 29.2241L19.6824 27.947Z" fill="white"/>
<path d="M26.6038 20.9006L28.9156 23.2572C30.4302 24.8023 30.3573 26.8861 28.998 28.2195C27.6316 29.5601 25.5454 29.5907 24.0309 28.0455L21.719 25.689L22.8949 24.5366L25.2068 26.8931C25.9453 27.6457 27.0929 27.7539 27.8314 27.0295C28.5628 26.3122 28.4782 25.1622 27.7397 24.4096L25.4278 22.053L26.6038 20.9006Z" fill="white"/>
<path d="M34.6776 14.6543L38.6852 20.0565L37.3893 21.0183L32.2975 19.7836L34.6965 23.0174L33.4006 23.9793L29.3931 18.5771L30.6889 17.6152L35.8794 18.984L33.3818 15.6185L34.6776 14.6567V14.6543Z" fill="white"/>
<path d="M38.6876 12.2676L42.1165 18.0554L40.7266 18.8786L37.2976 13.0907L38.6876 12.2676Z" fill="white"/>
<path d="M49.2121 13.0695C49.0075 14.1396 48.3042 15.092 47.2459 15.5906C45.4773 16.4279 43.3701 15.6753 42.5328 13.9067C41.6956 12.1381 42.4435 10.0215 44.2121 9.18423C45.268 8.68329 46.4557 8.75149 47.4129 9.27125L46.6462 10.5036C46.0582 10.3249 45.4844 10.299 44.8752 10.5859C43.8851 11.0563 43.4641 12.2487 43.9345 13.2411C44.4049 14.2313 45.5878 14.657 46.5803 14.1866C47.1871 13.8997 47.4787 13.521 47.7704 12.879L49.2097 13.0671L49.2121 13.0695Z" fill="white"/>
<path d="M55.228 11.3218L52.1377 12.3614L51.9989 13.3797L50.2727 13.9606L51.2957 6.51938L52.4529 6.13135L57.6457 11.4818L55.95 12.0533L55.2256 11.3265L55.228 11.3218ZM54.2097 10.2776L52.5681 8.54666L52.354 10.9008L54.2073 10.2776H54.2097Z" fill="white"/>
<path d="M65.0959 8.67845C64.635 9.65446 63.7271 10.4024 62.5889 10.6281C60.6792 11.0044 58.8236 9.76735 58.4473 7.85766C58.071 5.94797 59.3198 4.09002 61.2271 3.71373C62.3631 3.4903 63.4896 3.84776 64.2869 4.57683L63.2403 5.58343C62.7229 5.26358 62.1843 5.09424 61.5258 5.22594C60.4487 5.43761 59.7479 6.48183 59.9595 7.55897C60.1688 8.62435 61.2154 9.3252 62.2902 9.11353C62.951 8.98418 63.3133 8.6902 63.7436 8.14222L65.0936 8.67845H65.0959ZM64.3433 11.2843L61.0837 11.9263L61.3142 13.0928L64.5738 12.4508L64.3433 11.2843Z" fill="white"/>
<path d="M72.3187 8.40074L69.0779 8.61477L68.6852 9.56256L66.8789 9.68015L69.7646 2.78223L70.8911 2.70931L74.6541 9.16979L72.8361 9.28974L72.3211 8.40074H72.3187ZM71.1357 1.59454C70.5266 1.63452 69.7058 1.12889 69.219 1.15946C68.8991 1.18063 68.504 1.48635 68.4264 1.55455L67.6433 0.682031C67.7115 0.616179 68.3794 0.0540874 69.1438 0.00234701C69.7529 -0.0376342 70.5831 0.446846 71.0581 0.416272C71.378 0.395106 71.7731 0.0987619 71.8624 0.0211514L72.6362 0.903089C72.5774 0.968941 71.9119 1.5428 71.1357 1.59219V1.59454ZM71.6038 7.14251L70.4725 5.06115L69.6753 7.26952L71.6061 7.14251H71.6038Z" fill="white"/>
<path d="M83.6756 6.37811C83.5369 8.32778 81.8459 9.79534 79.8962 9.65658C77.9348 9.51782 76.4672 7.82683 76.606 5.87481C76.7448 3.92514 78.4357 2.44584 80.3971 2.58695C82.3468 2.72571 83.8144 4.42608 83.6756 6.37811ZM82.1281 6.26758C82.2057 5.17397 81.3826 4.21209 80.289 4.13448C79.1836 4.05687 78.2334 4.89177 78.1558 5.98537C78.0782 7.07897 78.9037 8.02909 80.0067 8.10905C81.1004 8.18666 82.0505 7.36118 82.1281 6.26758Z" fill="white"/>
<path d="M91.4438 4.43116L90.0021 11.0022L88.4241 10.6565L89.8657 4.08545L91.4438 4.43116Z" fill="white"/>
<path d="M100.409 7.03452L98.3842 13.448L96.8438 12.9611L94.8588 8.11401L93.6476 11.9522L92.1072 11.4654L94.1321 5.04956L95.6726 5.53641L97.6082 10.5435L98.8687 6.54768L100.409 7.03452Z" fill="white"/>
<path d="M108.695 12.3804L106.387 11.2821L104.118 16.0469L102.66 15.3531L104.929 10.5883L102.622 9.48998L103.245 8.18237L109.318 11.0751L108.695 12.3827V12.3804Z" fill="white"/>
<path d="M111.604 14.123L110.976 15.146L113.295 16.5689L112.542 17.7942L110.223 16.3713L109.595 17.3944L112.533 19.1959L111.78 20.4212L107.467 17.7777L110.983 12.0439L115.296 14.6874L114.539 15.9221L111.601 14.1206L111.604 14.123Z" fill="white"/>
<path d="M118.697 24.0474L118.688 24.0404C117.648 24.3367 116.489 24.1486 115.562 23.4359C114.012 22.2436 113.716 20.0164 114.908 18.4665C116.101 16.9167 118.337 16.625 119.887 17.8198C120.814 18.5324 121.272 19.499 121.251 20.5949L119.795 20.4679C119.701 19.9129 119.473 19.4613 118.939 19.0521C118.069 18.3819 116.808 18.5465 116.138 19.4167C115.468 20.2868 115.64 21.5404 116.51 22.2083C116.961 22.5564 117.507 22.6763 118.022 22.601L118.452 22.0437L116.837 20.7996L117.627 19.7742L120.364 21.8814L118.699 24.0474H118.697Z" fill="white"/>
<path d="M122.453 29.4147L122.853 27.4462L122.018 26.6136L120.832 27.8013L119.668 26.6395L124.419 21.8794C124.419 21.8794 126.169 23.6268 126.733 24.1889C127.707 25.1602 127.606 26.7265 126.569 27.766C125.882 28.4551 125.047 28.6009 124.271 28.3681L123.885 30.8493L122.45 29.417L122.453 29.4147ZM123.064 25.5647L124.031 26.529C124.419 26.917 124.997 26.9829 125.393 26.5854C125.781 26.1974 125.778 25.5671 125.393 25.1814L124.419 24.2101L123.067 25.5647H123.064Z" fill="white"/>
<path d="M129.092 35.8656L127.107 33.2809L126.101 33.4808L124.99 32.0368L132.361 30.5928L133.104 31.5617L129.729 38.2103L128.638 36.7899L129.092 35.8679V35.8656ZM129.751 34.565L130.854 32.4507L128.558 33.0128L129.748 34.565H129.751Z" fill="white"/>
<path d="M136.836 43.6433C135.225 44.577 133.165 44.0384 132.232 42.4274L130.632 39.671L136.451 36.2961L138.05 39.0525C139.082 40.8328 138.44 42.7143 136.839 43.6433H136.836ZM136.027 42.2463C136.895 41.743 137.156 40.7293 136.731 39.9956C136.512 39.6193 135.863 38.4998 135.863 38.4998L132.838 40.2543L133.706 41.75C134.153 42.4603 135.16 42.7496 136.027 42.2463Z" fill="white"/>
<path d="M137.225 50.614L135.948 47.6131L134.922 47.5543L134.21 45.8774L141.71 46.3196L142.187 47.4437L137.255 53.0388L136.554 51.3901L137.225 50.6093V50.614ZM138.187 49.5181L139.784 47.7471L137.42 47.7189L138.187 49.5181Z" fill="white"/>
<path d="M6.66741 78.1069C7.58832 78.1069 8.33489 77.3603 8.33489 76.4394C8.33489 75.5185 7.58832 74.772 6.66741 74.772C5.74651 74.772 5 75.5185 5 76.4394C5 77.3603 5.74651 78.1069 6.66741 78.1069Z" fill="#00AEEF"/>
<path d="M143.333 78.1069C144.253 78.1069 145 77.3603 145 76.4394C145 75.5185 144.253 74.772 143.333 74.772C142.412 74.772 141.665 75.5185 141.665 76.4394C141.665 77.3603 142.412 78.1069 143.333 78.1069Z" fill="#00AEEF"/>
</svg>
