<svg width="639" height="639" viewBox="0 0 639 639" fill="none" xmlns="http://www.w3.org/2000/svg">
  <g clip-path="url(#clip0_29_277)">
    <g opacity="0.5">
      <path d="M40.2434 598.75H0.352051V638.641H40.2434V598.75Z" stroke="#999999"
        stroke-opacity="0.25" stroke-miterlimit="10" />
      <path d="M40.2434 558.858H0.352051V598.75H40.2434V558.858Z" stroke="#999999"
        stroke-opacity="0.25" stroke-miterlimit="10" />
      <path d="M80.1345 558.858H40.2432V598.75H80.1345V558.858Z" stroke="#999999"
        stroke-opacity="0.25" stroke-miterlimit="10" />
      <path d="M80.1345 598.75H40.2432V638.641H80.1345V598.75Z" stroke="#999999"
        stroke-opacity="0.25" stroke-miterlimit="10" />
      <path d="M120.033 598.75H80.1416V638.641H120.033V598.75Z" stroke="#999999"
        stroke-opacity="0.25" stroke-miterlimit="10" />
      <path d="M120.033 558.858H80.1416V598.75H120.033V558.858Z" stroke="#999999"
        stroke-opacity="0.25" stroke-miterlimit="10" />
      <path d="M159.925 558.858H120.033V598.75H159.925V558.858Z" stroke="#999999"
        stroke-opacity="0.25" stroke-miterlimit="10" />
      <path d="M159.925 598.75H120.033V638.641H159.925V598.75Z" stroke="#999999"
        stroke-opacity="0.25" stroke-miterlimit="10" />
      <path d="M199.816 598.75H159.924V638.641H199.816V598.75Z" stroke="#999999"
        stroke-opacity="0.25" stroke-miterlimit="10" />
      <path d="M199.816 558.858H159.924V598.75H199.816V558.858Z" stroke="#999999"
        stroke-opacity="0.25" stroke-miterlimit="10" />
      <path d="M239.707 558.858H199.816V598.75H239.707V558.858Z" stroke="#999999"
        stroke-opacity="0.25" stroke-miterlimit="10" />
      <path d="M239.707 598.75H199.816V638.641H239.707V598.75Z" stroke="#999999"
        stroke-opacity="0.25" stroke-miterlimit="10" />
      <path d="M279.605 598.75H239.714V638.641H279.605V598.75Z" stroke="#999999"
        stroke-opacity="0.25" stroke-miterlimit="10" />
      <path d="M279.605 558.858H239.714V598.75H279.605V558.858Z" stroke="#999999"
        stroke-opacity="0.25" stroke-miterlimit="10" />
      <path d="M319.497 558.858H279.605V598.75H319.497V558.858Z" stroke="#999999"
        stroke-opacity="0.25" stroke-miterlimit="10" />
      <path d="M319.497 598.75H279.605V638.641H319.497V598.75Z" stroke="#999999"
        stroke-opacity="0.25" stroke-miterlimit="10" />
      <path d="M359.388 598.75H319.497V638.641H359.388V598.75Z" stroke="#999999"
        stroke-opacity="0.25" stroke-miterlimit="10" />
      <path d="M359.388 558.858H319.497V598.75H359.388V558.858Z" stroke="#999999"
        stroke-opacity="0.25" stroke-miterlimit="10" />
      <path d="M399.286 558.858H359.395V598.75H399.286V558.858Z" stroke="#999999"
        stroke-opacity="0.25" stroke-miterlimit="10" />
      <path d="M399.286 598.75H359.395V638.641H399.286V598.75Z" stroke="#999999"
        stroke-opacity="0.25" stroke-miterlimit="10" />
      <path d="M439.177 598.75H399.286V638.641H439.177V598.75Z" stroke="#999999"
        stroke-opacity="0.25" stroke-miterlimit="10" />
      <path d="M439.177 558.858H399.286V598.75H439.177V558.858Z" stroke="#999999"
        stroke-opacity="0.25" stroke-miterlimit="10" />
      <path d="M479.069 558.858H439.178V598.75H479.069V558.858Z" stroke="#999999"
        stroke-opacity="0.25" stroke-miterlimit="10" />
      <path d="M479.069 598.75H439.178V638.641H479.069V598.75Z" stroke="#999999"
        stroke-opacity="0.25" stroke-miterlimit="10" />
      <path d="M518.96 598.75H479.069V638.641H518.96V598.75Z" stroke="#999999" stroke-opacity="0.25"
        stroke-miterlimit="10" />
      <path d="M518.96 558.858H479.069V598.75H518.96V558.858Z" stroke="#999999"
        stroke-opacity="0.25" stroke-miterlimit="10" />
      <path d="M558.859 558.858H518.967V598.75H558.859V558.858Z" stroke="#999999"
        stroke-opacity="0.25" stroke-miterlimit="10" />
      <path d="M558.859 598.75H518.967V638.641H558.859V598.75Z" stroke="#999999"
        stroke-opacity="0.25" stroke-miterlimit="10" />
      <path d="M598.75 598.75H558.859V638.641H598.75V598.75Z" stroke="#999999" stroke-opacity="0.25"
        stroke-miterlimit="10" />
      <path d="M598.75 558.858H558.859V598.75H598.75V558.858Z" stroke="#999999"
        stroke-opacity="0.25" stroke-miterlimit="10" />
      <path d="M638.641 558.858H598.75V598.75H638.641V558.858Z" stroke="#999999"
        stroke-opacity="0.25" stroke-miterlimit="10" />
      <path d="M638.641 598.75H598.75V638.641H638.641V598.75Z" stroke="#999999"
        stroke-opacity="0.25" stroke-miterlimit="10" />
      <path d="M40.2434 518.967H0.352051V558.859H40.2434V518.967Z" stroke="#999999"
        stroke-opacity="0.25" stroke-miterlimit="10" />
      <path d="M40.2434 479.069H0.352051V518.96H40.2434V479.069Z" stroke="#999999"
        stroke-opacity="0.25" stroke-miterlimit="10" />
      <path d="M80.1345 479.069H40.2432V518.96H80.1345V479.069Z" stroke="#999999"
        stroke-opacity="0.25" stroke-miterlimit="10" />
      <path d="M80.1345 518.967H40.2432V558.859H80.1345V518.967Z" stroke="#999999"
        stroke-opacity="0.25" stroke-miterlimit="10" />
      <path d="M120.033 518.967H80.1416V558.859H120.033V518.967Z" stroke="#999999"
        stroke-opacity="0.25" stroke-miterlimit="10" />
      <path d="M120.033 479.069H80.1416V518.96H120.033V479.069Z" stroke="#999999"
        stroke-opacity="0.25" stroke-miterlimit="10" />
      <path d="M159.925 479.069H120.033V518.96H159.925V479.069Z" stroke="#999999"
        stroke-opacity="0.25" stroke-miterlimit="10" />
      <path d="M159.925 518.967H120.033V558.859H159.925V518.967Z" stroke="#999999"
        stroke-opacity="0.25" stroke-miterlimit="10" />
      <path d="M199.816 518.967H159.924V558.859H199.816V518.967Z" stroke="#999999"
        stroke-opacity="0.25" stroke-miterlimit="10" />
      <path d="M199.816 479.069H159.924V518.96H199.816V479.069Z" stroke="#999999"
        stroke-opacity="0.25" stroke-miterlimit="10" />
      <path d="M239.707 479.069H199.816V518.96H239.707V479.069Z" stroke="#999999"
        stroke-opacity="0.25" stroke-miterlimit="10" />
      <path d="M239.707 518.967H199.816V558.859H239.707V518.967Z" stroke="#999999"
        stroke-opacity="0.25" stroke-miterlimit="10" />
      <path d="M279.605 518.967H239.714V558.859H279.605V518.967Z" stroke="#999999"
        stroke-opacity="0.25" stroke-miterlimit="10" />
      <path d="M279.605 479.069H239.714V518.96H279.605V479.069Z" stroke="#999999"
        stroke-opacity="0.25" stroke-miterlimit="10" />
      <path d="M319.497 479.069H279.605V518.96H319.497V479.069Z" stroke="#999999"
        stroke-opacity="0.25" stroke-miterlimit="10" />
      <path d="M319.497 518.967H279.605V558.859H319.497V518.967Z" stroke="#999999"
        stroke-opacity="0.25" stroke-miterlimit="10" />
      <path d="M359.388 518.967H319.497V558.859H359.388V518.967Z" stroke="#999999"
        stroke-opacity="0.25" stroke-miterlimit="10" />
      <path d="M359.388 479.069H319.497V518.96H359.388V479.069Z" stroke="#999999"
        stroke-opacity="0.25" stroke-miterlimit="10" />
      <path d="M399.286 479.069H359.395V518.96H399.286V479.069Z" stroke="#999999"
        stroke-opacity="0.25" stroke-miterlimit="10" />
      <path d="M399.286 518.967H359.395V558.859H399.286V518.967Z" stroke="#999999"
        stroke-opacity="0.25" stroke-miterlimit="10" />
      <path d="M439.177 518.967H399.286V558.859H439.177V518.967Z" stroke="#999999"
        stroke-opacity="0.25" stroke-miterlimit="10" />
      <path d="M439.177 479.069H399.286V518.96H439.177V479.069Z" stroke="#999999"
        stroke-opacity="0.25" stroke-miterlimit="10" />
      <path d="M479.069 479.069H439.178V518.96H479.069V479.069Z" stroke="#999999"
        stroke-opacity="0.25" stroke-miterlimit="10" />
      <path d="M479.069 518.967H439.178V558.859H479.069V518.967Z" stroke="#999999"
        stroke-opacity="0.25" stroke-miterlimit="10" />
      <path d="M518.96 518.967H479.069V558.859H518.96V518.967Z" stroke="#999999"
        stroke-opacity="0.25" stroke-miterlimit="10" />
      <path d="M518.96 479.069H479.069V518.96H518.96V479.069Z" stroke="#999999"
        stroke-opacity="0.25" stroke-miterlimit="10" />
      <path d="M558.859 479.069H518.967V518.96H558.859V479.069Z" stroke="#999999"
        stroke-opacity="0.25" stroke-miterlimit="10" />
      <path d="M558.859 518.967H518.967V558.859H558.859V518.967Z" stroke="#999999"
        stroke-opacity="0.25" stroke-miterlimit="10" />
      <path d="M598.75 518.967H558.859V558.859H598.75V518.967Z" stroke="#999999"
        stroke-opacity="0.25" stroke-miterlimit="10" />
      <path d="M598.75 479.069H558.859V518.96H598.75V479.069Z" stroke="#999999"
        stroke-opacity="0.25" stroke-miterlimit="10" />
      <path d="M638.641 479.069H598.75V518.96H638.641V479.069Z" stroke="#999999"
        stroke-opacity="0.25" stroke-miterlimit="10" />
      <path d="M638.641 518.967H598.75V558.859H638.641V518.967Z" stroke="#999999"
        stroke-opacity="0.25" stroke-miterlimit="10" />
      <path d="M40.2434 439.177H0.352051V479.069H40.2434V439.177Z" stroke="#999999"
        stroke-opacity="0.25" stroke-miterlimit="10" />
      <path d="M40.2434 399.286H0.352051V439.177H40.2434V399.286Z" stroke="#999999"
        stroke-opacity="0.25" stroke-miterlimit="10" />
      <path d="M80.1345 399.286H40.2432V439.177H80.1345V399.286Z" stroke="#999999"
        stroke-opacity="0.25" stroke-miterlimit="10" />
      <path d="M80.1345 439.177H40.2432V479.069H80.1345V439.177Z" stroke="#999999"
        stroke-opacity="0.25" stroke-miterlimit="10" />
      <path d="M120.033 439.177H80.1416V479.069H120.033V439.177Z" stroke="#999999"
        stroke-opacity="0.25" stroke-miterlimit="10" />
      <path d="M120.033 399.286H80.1416V439.177H120.033V399.286Z" stroke="#999999"
        stroke-opacity="0.25" stroke-miterlimit="10" />
      <path d="M159.925 399.286H120.033V439.177H159.925V399.286Z" stroke="#999999"
        stroke-opacity="0.25" stroke-miterlimit="10" />
      <path d="M159.925 439.177H120.033V479.069H159.925V439.177Z" stroke="#999999"
        stroke-opacity="0.25" stroke-miterlimit="10" />
      <path d="M199.816 439.177H159.924V479.069H199.816V439.177Z" stroke="#999999"
        stroke-opacity="0.25" stroke-miterlimit="10" />
      <path d="M199.816 399.286H159.924V439.177H199.816V399.286Z" stroke="#999999"
        stroke-opacity="0.25" stroke-miterlimit="10" />
      <path d="M239.707 399.286H199.816V439.177H239.707V399.286Z" stroke="#999999"
        stroke-opacity="0.25" stroke-miterlimit="10" />
      <path d="M239.707 439.177H199.816V479.069H239.707V439.177Z" stroke="#999999"
        stroke-opacity="0.25" stroke-miterlimit="10" />
      <path d="M279.605 439.177H239.714V479.069H279.605V439.177Z" stroke="#999999"
        stroke-opacity="0.25" stroke-miterlimit="10" />
      <path d="M279.605 399.286H239.714V439.177H279.605V399.286Z" stroke="#999999"
        stroke-opacity="0.25" stroke-miterlimit="10" />
      <path d="M319.497 399.286H279.605V439.177H319.497V399.286Z" stroke="#999999"
        stroke-opacity="0.25" stroke-miterlimit="10" />
      <path d="M319.497 439.177H279.605V479.069H319.497V439.177Z" stroke="#999999"
        stroke-opacity="0.25" stroke-miterlimit="10" />
      <path d="M359.388 439.177H319.497V479.069H359.388V439.177Z" stroke="#999999"
        stroke-opacity="0.25" stroke-miterlimit="10" />
      <path d="M359.388 399.286H319.497V439.177H359.388V399.286Z" stroke="#999999"
        stroke-opacity="0.25" stroke-miterlimit="10" />
      <path d="M399.286 399.286H359.395V439.177H399.286V399.286Z" stroke="#999999"
        stroke-opacity="0.25" stroke-miterlimit="10" />
      <path d="M399.286 439.177H359.395V479.069H399.286V439.177Z" stroke="#999999"
        stroke-opacity="0.25" stroke-miterlimit="10" />
      <path d="M439.177 439.177H399.286V479.069H439.177V439.177Z" stroke="#999999"
        stroke-opacity="0.25" stroke-miterlimit="10" />
      <path d="M439.177 399.286H399.286V439.177H439.177V399.286Z" stroke="#999999"
        stroke-opacity="0.25" stroke-miterlimit="10" />
      <path d="M479.069 399.286H439.178V439.177H479.069V399.286Z" stroke="#999999"
        stroke-opacity="0.25" stroke-miterlimit="10" />
      <path d="M479.069 439.177H439.178V479.069H479.069V439.177Z" stroke="#999999"
        stroke-opacity="0.25" stroke-miterlimit="10" />
      <path d="M518.96 439.177H479.069V479.069H518.96V439.177Z" stroke="#999999"
        stroke-opacity="0.25" stroke-miterlimit="10" />
      <path d="M518.96 399.286H479.069V439.177H518.96V399.286Z" stroke="#999999"
        stroke-opacity="0.25" stroke-miterlimit="10" />
      <path d="M558.859 399.286H518.967V439.177H558.859V399.286Z" stroke="#999999"
        stroke-opacity="0.25" stroke-miterlimit="10" />
      <path d="M558.859 439.177H518.967V479.069H558.859V439.177Z" stroke="#999999"
        stroke-opacity="0.25" stroke-miterlimit="10" />
      <path d="M598.75 439.177H558.859V479.069H598.75V439.177Z" stroke="#999999"
        stroke-opacity="0.25" stroke-miterlimit="10" />
      <path d="M598.75 399.286H558.859V439.177H598.75V399.286Z" stroke="#999999"
        stroke-opacity="0.25" stroke-miterlimit="10" />
      <path d="M638.641 399.286H598.75V439.177H638.641V399.286Z" stroke="#999999"
        stroke-opacity="0.25" stroke-miterlimit="10" />
      <path d="M638.641 439.177H598.75V479.069H638.641V439.177Z" stroke="#999999"
        stroke-opacity="0.25" stroke-miterlimit="10" />
      <path d="M40.2434 359.395H0.352051V399.286H40.2434V359.395Z" stroke="#999999"
        stroke-opacity="0.25" stroke-miterlimit="10" />
      <path d="M40.2434 319.497H0.352051V359.388H40.2434V319.497Z" stroke="#999999"
        stroke-opacity="0.25" stroke-miterlimit="10" />
      <path d="M80.1345 319.497H40.2432V359.388H80.1345V319.497Z" stroke="#999999"
        stroke-opacity="0.25" stroke-miterlimit="10" />
      <path d="M80.1345 359.395H40.2432V399.286H80.1345V359.395Z" stroke="#999999"
        stroke-opacity="0.25" stroke-miterlimit="10" />
      <path d="M120.033 359.395H80.1416V399.286H120.033V359.395Z" stroke="#999999"
        stroke-opacity="0.25" stroke-miterlimit="10" />
      <path d="M120.033 319.497H80.1416V359.388H120.033V319.497Z" stroke="#999999"
        stroke-opacity="0.25" stroke-miterlimit="10" />
      <path d="M159.925 319.497H120.033V359.388H159.925V319.497Z" stroke="#999999"
        stroke-opacity="0.25" stroke-miterlimit="10" />
      <path d="M159.925 359.395H120.033V399.286H159.925V359.395Z" stroke="#999999"
        stroke-opacity="0.25" stroke-miterlimit="10" />
      <path d="M199.816 359.395H159.924V399.286H199.816V359.395Z" stroke="#999999"
        stroke-opacity="0.25" stroke-miterlimit="10" />
      <path d="M199.816 319.497H159.924V359.388H199.816V319.497Z" stroke="#999999"
        stroke-opacity="0.25" stroke-miterlimit="10" />
      <path d="M239.707 319.497H199.816V359.388H239.707V319.497Z" stroke="#999999"
        stroke-opacity="0.25" stroke-miterlimit="10" />
      <path d="M239.707 359.395H199.816V399.286H239.707V359.395Z" stroke="#999999"
        stroke-opacity="0.25" stroke-miterlimit="10" />
      <path d="M279.605 359.395H239.714V399.286H279.605V359.395Z" stroke="#999999"
        stroke-opacity="0.25" stroke-miterlimit="10" />
      <path d="M279.605 319.497H239.714V359.388H279.605V319.497Z" stroke="#999999"
        stroke-opacity="0.25" stroke-miterlimit="10" />
      <path d="M319.497 319.497H279.605V359.388H319.497V319.497Z" stroke="#999999"
        stroke-opacity="0.25" stroke-miterlimit="10" />
      <path d="M319.497 359.395H279.605V399.286H319.497V359.395Z" stroke="#999999"
        stroke-opacity="0.25" stroke-miterlimit="10" />
      <path d="M359.388 359.395H319.497V399.286H359.388V359.395Z" stroke="#999999"
        stroke-opacity="0.25" stroke-miterlimit="10" />
      <path d="M359.388 319.497H319.497V359.388H359.388V319.497Z" stroke="#999999"
        stroke-opacity="0.25" stroke-miterlimit="10" />
      <path d="M399.286 319.497H359.395V359.388H399.286V319.497Z" stroke="#999999"
        stroke-opacity="0.25" stroke-miterlimit="10" />
      <path d="M399.286 359.395H359.395V399.286H399.286V359.395Z" stroke="#999999"
        stroke-opacity="0.25" stroke-miterlimit="10" />
      <path d="M439.177 359.395H399.286V399.286H439.177V359.395Z" stroke="#999999"
        stroke-opacity="0.25" stroke-miterlimit="10" />
      <path d="M439.177 319.497H399.286V359.388H439.177V319.497Z" stroke="#999999"
        stroke-opacity="0.25" stroke-miterlimit="10" />
      <path d="M479.069 319.497H439.178V359.388H479.069V319.497Z" stroke="#999999"
        stroke-opacity="0.25" stroke-miterlimit="10" />
      <path d="M479.069 359.395H439.178V399.286H479.069V359.395Z" stroke="#999999"
        stroke-opacity="0.25" stroke-miterlimit="10" />
      <path d="M518.96 359.395H479.069V399.286H518.96V359.395Z" stroke="#999999"
        stroke-opacity="0.25" stroke-miterlimit="10" />
      <path d="M518.96 319.497H479.069V359.388H518.96V319.497Z" stroke="#999999"
        stroke-opacity="0.25" stroke-miterlimit="10" />
      <path d="M558.859 319.497H518.967V359.388H558.859V319.497Z" stroke="#999999"
        stroke-opacity="0.25" stroke-miterlimit="10" />
      <path d="M558.859 359.395H518.967V399.286H558.859V359.395Z" stroke="#999999"
        stroke-opacity="0.25" stroke-miterlimit="10" />
      <path d="M598.75 359.395H558.859V399.286H598.75V359.395Z" stroke="#999999"
        stroke-opacity="0.25" stroke-miterlimit="10" />
      <path d="M598.75 319.497H558.859V359.388H598.75V319.497Z" stroke="#999999"
        stroke-opacity="0.25" stroke-miterlimit="10" />
      <path d="M638.641 319.497H598.75V359.388H638.641V319.497Z" stroke="#999999"
        stroke-opacity="0.25" stroke-miterlimit="10" />
      <path d="M638.641 359.395H598.75V399.286H638.641V359.395Z" stroke="#999999"
        stroke-opacity="0.25" stroke-miterlimit="10" />
      <path d="M40.2434 279.605H0.352051V319.496H40.2434V279.605Z" stroke="#999999"
        stroke-opacity="0.25" stroke-miterlimit="10" />
      <path d="M40.2434 239.714H0.352051V279.605H40.2434V239.714Z" stroke="#999999"
        stroke-opacity="0.25" stroke-miterlimit="10" />
      <path d="M80.1345 239.714H40.2432V279.605H80.1345V239.714Z" stroke="#999999"
        stroke-opacity="0.25" stroke-miterlimit="10" />
      <path d="M80.1345 279.605H40.2432V319.496H80.1345V279.605Z" stroke="#999999"
        stroke-opacity="0.25" stroke-miterlimit="10" />
      <path d="M120.033 279.605H80.1416V319.496H120.033V279.605Z" stroke="#999999"
        stroke-opacity="0.25" stroke-miterlimit="10" />
      <path d="M120.033 239.714H80.1416V279.605H120.033V239.714Z" stroke="#999999"
        stroke-opacity="0.25" stroke-miterlimit="10" />
      <path d="M159.925 239.714H120.033V279.605H159.925V239.714Z" stroke="#999999"
        stroke-opacity="0.25" stroke-miterlimit="10" />
      <path d="M159.925 279.605H120.033V319.496H159.925V279.605Z" stroke="#999999"
        stroke-opacity="0.25" stroke-miterlimit="10" />
      <path d="M199.816 279.605H159.924V319.496H199.816V279.605Z" stroke="#999999"
        stroke-opacity="0.25" stroke-miterlimit="10" />
      <path d="M199.816 239.714H159.924V279.605H199.816V239.714Z" stroke="#999999"
        stroke-opacity="0.25" stroke-miterlimit="10" />
      <path d="M239.707 239.714H199.816V279.605H239.707V239.714Z" stroke="#999999"
        stroke-opacity="0.25" stroke-miterlimit="10" />
      <path d="M239.707 279.605H199.816V319.496H239.707V279.605Z" stroke="#999999"
        stroke-opacity="0.25" stroke-miterlimit="10" />
      <path d="M279.605 279.605H239.714V319.496H279.605V279.605Z" stroke="#999999"
        stroke-opacity="0.25" stroke-miterlimit="10" />
      <path d="M279.605 239.714H239.714V279.605H279.605V239.714Z" stroke="#999999"
        stroke-opacity="0.25" stroke-miterlimit="10" />
      <path d="M319.497 239.714H279.605V279.605H319.497V239.714Z" stroke="#999999"
        stroke-opacity="0.25" stroke-miterlimit="10" />
      <path d="M319.497 279.605H279.605V319.496H319.497V279.605Z" stroke="#999999"
        stroke-opacity="0.25" stroke-miterlimit="10" />
      <path d="M359.388 279.605H319.497V319.496H359.388V279.605Z" stroke="#999999"
        stroke-opacity="0.25" stroke-miterlimit="10" />
      <path d="M359.388 239.714H319.497V279.605H359.388V239.714Z" stroke="#999999"
        stroke-opacity="0.25" stroke-miterlimit="10" />
      <path d="M399.286 239.714H359.395V279.605H399.286V239.714Z" stroke="#999999"
        stroke-opacity="0.25" stroke-miterlimit="10" />
      <path d="M399.286 279.605H359.395V319.496H399.286V279.605Z" stroke="#999999"
        stroke-opacity="0.25" stroke-miterlimit="10" />
      <path d="M439.177 279.605H399.286V319.496H439.177V279.605Z" stroke="#999999"
        stroke-opacity="0.25" stroke-miterlimit="10" />
      <path d="M439.177 239.714H399.286V279.605H439.177V239.714Z" stroke="#999999"
        stroke-opacity="0.25" stroke-miterlimit="10" />
      <path d="M479.069 239.714H439.178V279.605H479.069V239.714Z" stroke="#999999"
        stroke-opacity="0.25" stroke-miterlimit="10" />
      <path d="M479.069 279.605H439.178V319.496H479.069V279.605Z" stroke="#999999"
        stroke-opacity="0.25" stroke-miterlimit="10" />
      <path d="M518.96 279.605H479.069V319.496H518.96V279.605Z" stroke="#999999"
        stroke-opacity="0.25" stroke-miterlimit="10" />
      <path d="M518.96 239.714H479.069V279.605H518.96V239.714Z" stroke="#999999"
        stroke-opacity="0.25" stroke-miterlimit="10" />
      <path d="M558.859 239.714H518.967V279.605H558.859V239.714Z" stroke="#999999"
        stroke-opacity="0.25" stroke-miterlimit="10" />
      <path d="M558.859 279.605H518.967V319.496H558.859V279.605Z" stroke="#999999"
        stroke-opacity="0.25" stroke-miterlimit="10" />
      <path d="M598.75 279.605H558.859V319.496H598.75V279.605Z" stroke="#999999"
        stroke-opacity="0.25" stroke-miterlimit="10" />
      <path d="M598.75 239.714H558.859V279.605H598.75V239.714Z" stroke="#999999"
        stroke-opacity="0.25" stroke-miterlimit="10" />
      <path d="M638.641 239.714H598.75V279.605H638.641V239.714Z" stroke="#999999"
        stroke-opacity="0.25" stroke-miterlimit="10" />
      <path d="M638.641 279.605H598.75V319.496H638.641V279.605Z" stroke="#999999"
        stroke-opacity="0.25" stroke-miterlimit="10" />
      <path d="M40.2434 199.815H0.352051V239.707H40.2434V199.815Z" stroke="#999999"
        stroke-opacity="0.25" stroke-miterlimit="10" />
      <path d="M40.2434 159.924H0.352051V199.816H40.2434V159.924Z" stroke="#999999"
        stroke-opacity="0.25" stroke-miterlimit="10" />
      <path d="M80.1345 159.924H40.2432V199.816H80.1345V159.924Z" stroke="#999999"
        stroke-opacity="0.25" stroke-miterlimit="10" />
      <path d="M80.1345 199.815H40.2432V239.707H80.1345V199.815Z" stroke="#999999"
        stroke-opacity="0.25" stroke-miterlimit="10" />
      <path d="M120.033 199.815H80.1416V239.707H120.033V199.815Z" stroke="#999999"
        stroke-opacity="0.25" stroke-miterlimit="10" />
      <path d="M120.033 159.924H80.1416V199.816H120.033V159.924Z" stroke="#999999"
        stroke-opacity="0.25" stroke-miterlimit="10" />
      <path d="M159.925 159.924H120.033V199.816H159.925V159.924Z" stroke="#999999"
        stroke-opacity="0.25" stroke-miterlimit="10" />
      <path d="M159.925 199.815H120.033V239.707H159.925V199.815Z" stroke="#999999"
        stroke-opacity="0.25" stroke-miterlimit="10" />
      <path d="M199.816 199.815H159.924V239.707H199.816V199.815Z" stroke="#999999"
        stroke-opacity="0.25" stroke-miterlimit="10" />
      <path d="M199.816 159.924H159.924V199.816H199.816V159.924Z" stroke="#999999"
        stroke-opacity="0.25" stroke-miterlimit="10" />
      <path d="M239.707 159.924H199.816V199.816H239.707V159.924Z" stroke="#999999"
        stroke-opacity="0.25" stroke-miterlimit="10" />
      <path d="M239.707 199.815H199.816V239.707H239.707V199.815Z" stroke="#999999"
        stroke-opacity="0.25" stroke-miterlimit="10" />
      <path d="M279.605 199.815H239.714V239.707H279.605V199.815Z" stroke="#999999"
        stroke-opacity="0.25" stroke-miterlimit="10" />
      <path d="M279.605 159.924H239.714V199.816H279.605V159.924Z" stroke="#999999"
        stroke-opacity="0.25" stroke-miterlimit="10" />
      <path d="M319.497 159.924H279.605V199.816H319.497V159.924Z" stroke="#999999"
        stroke-opacity="0.25" stroke-miterlimit="10" />
      <path d="M319.497 199.815H279.605V239.707H319.497V199.815Z" stroke="#999999"
        stroke-opacity="0.25" stroke-miterlimit="10" />
      <path d="M359.388 199.815H319.497V239.707H359.388V199.815Z" stroke="#999999"
        stroke-opacity="0.25" stroke-miterlimit="10" />
      <path d="M359.388 159.924H319.497V199.816H359.388V159.924Z" stroke="#999999"
        stroke-opacity="0.25" stroke-miterlimit="10" />
      <path d="M399.286 159.924H359.395V199.816H399.286V159.924Z" stroke="#999999"
        stroke-opacity="0.25" stroke-miterlimit="10" />
      <path d="M399.286 199.815H359.395V239.707H399.286V199.815Z" stroke="#999999"
        stroke-opacity="0.25" stroke-miterlimit="10" />
      <path d="M439.177 199.815H399.286V239.707H439.177V199.815Z" stroke="#999999"
        stroke-opacity="0.25" stroke-miterlimit="10" />
      <path d="M439.177 159.924H399.286V199.816H439.177V159.924Z" stroke="#999999"
        stroke-opacity="0.25" stroke-miterlimit="10" />
      <path d="M479.069 159.924H439.178V199.816H479.069V159.924Z" stroke="#999999"
        stroke-opacity="0.25" stroke-miterlimit="10" />
      <path d="M479.069 199.815H439.178V239.707H479.069V199.815Z" stroke="#999999"
        stroke-opacity="0.25" stroke-miterlimit="10" />
      <path d="M518.96 199.815H479.069V239.707H518.96V199.815Z" stroke="#999999"
        stroke-opacity="0.25" stroke-miterlimit="10" />
      <path d="M518.96 159.924H479.069V199.816H518.96V159.924Z" stroke="#999999"
        stroke-opacity="0.25" stroke-miterlimit="10" />
      <path d="M558.859 159.924H518.967V199.816H558.859V159.924Z" stroke="#999999"
        stroke-opacity="0.25" stroke-miterlimit="10" />
      <path d="M558.859 199.815H518.967V239.707H558.859V199.815Z" stroke="#999999"
        stroke-opacity="0.25" stroke-miterlimit="10" />
      <path d="M598.75 199.815H558.859V239.707H598.75V199.815Z" stroke="#999999"
        stroke-opacity="0.25" stroke-miterlimit="10" />
      <path d="M598.75 159.924H558.859V199.816H598.75V159.924Z" stroke="#999999"
        stroke-opacity="0.25" stroke-miterlimit="10" />
      <path d="M638.641 159.924H598.75V199.816H638.641V159.924Z" stroke="#999999"
        stroke-opacity="0.25" stroke-miterlimit="10" />
      <path d="M638.641 199.815H598.75V239.707H638.641V199.815Z" stroke="#999999"
        stroke-opacity="0.25" stroke-miterlimit="10" />
      <path d="M40.2434 120.033H0.352051V159.924H40.2434V120.033Z" stroke="#999999"
        stroke-opacity="0.25" stroke-miterlimit="10" />
      <path d="M40.2434 80.1416H0.352051V120.033H40.2434V80.1416Z" stroke="#999999"
        stroke-opacity="0.25" stroke-miterlimit="10" />
      <path d="M80.1345 80.1416H40.2432V120.033H80.1345V80.1416Z" stroke="#999999"
        stroke-opacity="0.25" stroke-miterlimit="10" />
      <path d="M80.1345 120.033H40.2432V159.924H80.1345V120.033Z" stroke="#999999"
        stroke-opacity="0.25" stroke-miterlimit="10" />
      <path d="M120.033 120.033H80.1416V159.924H120.033V120.033Z" stroke="#999999"
        stroke-opacity="0.25" stroke-miterlimit="10" />
      <path d="M120.033 80.1416H80.1416V120.033H120.033V80.1416Z" stroke="#999999"
        stroke-opacity="0.25" stroke-miterlimit="10" />
      <path d="M159.925 80.1416H120.033V120.033H159.925V80.1416Z" stroke="#999999"
        stroke-opacity="0.25" stroke-miterlimit="10" />
      <path d="M159.925 120.033H120.033V159.924H159.925V120.033Z" stroke="#999999"
        stroke-opacity="0.25" stroke-miterlimit="10" />
      <path d="M199.816 120.033H159.924V159.924H199.816V120.033Z" stroke="#999999"
        stroke-opacity="0.25" stroke-miterlimit="10" />
      <path d="M199.816 80.1416H159.924V120.033H199.816V80.1416Z" stroke="#999999"
        stroke-opacity="0.25" stroke-miterlimit="10" />
      <path d="M239.707 80.1416H199.816V120.033H239.707V80.1416Z" stroke="#999999"
        stroke-opacity="0.25" stroke-miterlimit="10" />
      <path d="M239.707 120.033H199.816V159.924H239.707V120.033Z" stroke="#999999"
        stroke-opacity="0.25" stroke-miterlimit="10" />
      <path d="M279.605 120.033H239.714V159.924H279.605V120.033Z" stroke="#999999"
        stroke-opacity="0.25" stroke-miterlimit="10" />
      <path d="M279.605 80.1416H239.714V120.033H279.605V80.1416Z" stroke="#999999"
        stroke-opacity="0.25" stroke-miterlimit="10" />
      <path d="M319.497 80.1416H279.605V120.033H319.497V80.1416Z" stroke="#999999"
        stroke-opacity="0.25" stroke-miterlimit="10" />
      <path d="M319.497 120.033H279.605V159.924H319.497V120.033Z" stroke="#999999"
        stroke-opacity="0.25" stroke-miterlimit="10" />
      <path d="M359.388 120.033H319.497V159.924H359.388V120.033Z" stroke="#999999"
        stroke-opacity="0.25" stroke-miterlimit="10" />
      <path d="M359.388 80.1416H319.497V120.033H359.388V80.1416Z" stroke="#999999"
        stroke-opacity="0.25" stroke-miterlimit="10" />
      <path d="M399.286 80.1416H359.395V120.033H399.286V80.1416Z" stroke="#999999"
        stroke-opacity="0.25" stroke-miterlimit="10" />
      <path d="M399.286 120.033H359.395V159.924H399.286V120.033Z" stroke="#999999"
        stroke-opacity="0.25" stroke-miterlimit="10" />
      <path d="M439.177 120.033H399.286V159.924H439.177V120.033Z" stroke="#999999"
        stroke-opacity="0.25" stroke-miterlimit="10" />
      <path d="M439.177 80.1416H399.286V120.033H439.177V80.1416Z" stroke="#999999"
        stroke-opacity="0.25" stroke-miterlimit="10" />
      <path d="M479.069 80.1416H439.178V120.033H479.069V80.1416Z" stroke="#999999"
        stroke-opacity="0.25" stroke-miterlimit="10" />
      <path d="M479.069 120.033H439.178V159.924H479.069V120.033Z" stroke="#999999"
        stroke-opacity="0.25" stroke-miterlimit="10" />
      <path d="M518.96 120.033H479.069V159.924H518.96V120.033Z" stroke="#999999"
        stroke-opacity="0.25" stroke-miterlimit="10" />
      <path d="M518.96 80.1416H479.069V120.033H518.96V80.1416Z" stroke="#999999"
        stroke-opacity="0.25" stroke-miterlimit="10" />
      <path d="M558.859 80.1416H518.967V120.033H558.859V80.1416Z" stroke="#999999"
        stroke-opacity="0.25" stroke-miterlimit="10" />
      <path d="M558.859 120.033H518.967V159.924H558.859V120.033Z" stroke="#999999"
        stroke-opacity="0.25" stroke-miterlimit="10" />
      <path d="M598.75 120.033H558.859V159.924H598.75V120.033Z" stroke="#999999"
        stroke-opacity="0.25" stroke-miterlimit="10" />
      <path d="M598.75 80.1416H558.859V120.033H598.75V80.1416Z" stroke="#999999"
        stroke-opacity="0.25" stroke-miterlimit="10" />
      <path d="M638.641 80.1416H598.75V120.033H638.641V80.1416Z" stroke="#999999"
        stroke-opacity="0.25" stroke-miterlimit="10" />
      <path d="M638.641 120.033H598.75V159.924H638.641V120.033Z" stroke="#999999"
        stroke-opacity="0.25" stroke-miterlimit="10" />
      <path d="M40.2434 40.2432H0.352051V80.1345H40.2434V40.2432Z" stroke="#999999"
        stroke-opacity="0.25" stroke-miterlimit="10" />
      <path d="M40.2434 0.351807H0.352051V40.2431H40.2434V0.351807Z" stroke="#999999"
        stroke-opacity="0.25" stroke-miterlimit="10" />
      <path d="M80.1345 0.351807H40.2432V40.2431H80.1345V0.351807Z" stroke="#999999"
        stroke-opacity="0.25" stroke-miterlimit="10" />
      <path d="M80.1345 40.2432H40.2432V80.1345H80.1345V40.2432Z" stroke="#999999"
        stroke-opacity="0.25" stroke-miterlimit="10" />
      <path d="M120.033 40.2432H80.1416V80.1345H120.033V40.2432Z" stroke="#999999"
        stroke-opacity="0.25" stroke-miterlimit="10" />
      <path d="M120.033 0.351807H80.1416V40.2431H120.033V0.351807Z" stroke="#999999"
        stroke-opacity="0.25" stroke-miterlimit="10" />
      <path d="M159.925 0.351807H120.033V40.2431H159.925V0.351807Z" stroke="#999999"
        stroke-opacity="0.25" stroke-miterlimit="10" />
      <path d="M159.925 40.2432H120.033V80.1345H159.925V40.2432Z" stroke="#999999"
        stroke-opacity="0.25" stroke-miterlimit="10" />
      <path d="M199.816 40.2432H159.924V80.1345H199.816V40.2432Z" stroke="#999999"
        stroke-opacity="0.25" stroke-miterlimit="10" />
      <path d="M199.816 0.351807H159.924V40.2431H199.816V0.351807Z" stroke="#999999"
        stroke-opacity="0.25" stroke-miterlimit="10" />
      <path d="M239.707 0.351807H199.816V40.2431H239.707V0.351807Z" stroke="#999999"
        stroke-opacity="0.25" stroke-miterlimit="10" />
      <path d="M239.707 40.2432H199.816V80.1345H239.707V40.2432Z" stroke="#999999"
        stroke-opacity="0.25" stroke-miterlimit="10" />
      <path d="M279.605 40.2432H239.714V80.1345H279.605V40.2432Z" stroke="#999999"
        stroke-opacity="0.25" stroke-miterlimit="10" />
      <path d="M279.605 0.351807H239.714V40.2431H279.605V0.351807Z" stroke="#999999"
        stroke-opacity="0.25" stroke-miterlimit="10" />
      <path d="M319.497 0.351807H279.605V40.2431H319.497V0.351807Z" stroke="#999999"
        stroke-opacity="0.25" stroke-miterlimit="10" />
      <path d="M319.497 40.2432H279.605V80.1345H319.497V40.2432Z" stroke="#999999"
        stroke-opacity="0.25" stroke-miterlimit="10" />
      <path d="M359.388 40.2432H319.497V80.1345H359.388V40.2432Z" stroke="#999999"
        stroke-opacity="0.25" stroke-miterlimit="10" />
      <path d="M359.388 0.351807H319.497V40.2431H359.388V0.351807Z" stroke="#999999"
        stroke-opacity="0.25" stroke-miterlimit="10" />
      <path d="M399.286 0.351807H359.395V40.2431H399.286V0.351807Z" stroke="#999999"
        stroke-opacity="0.25" stroke-miterlimit="10" />
      <path d="M399.286 40.2432H359.395V80.1345H399.286V40.2432Z" stroke="#999999"
        stroke-opacity="0.25" stroke-miterlimit="10" />
      <path d="M439.177 40.2432H399.286V80.1345H439.177V40.2432Z" stroke="#999999"
        stroke-opacity="0.25" stroke-miterlimit="10" />
      <path d="M439.177 0.351807H399.286V40.2431H439.177V0.351807Z" stroke="#999999"
        stroke-opacity="0.25" stroke-miterlimit="10" />
      <path d="M479.069 0.351807H439.178V40.2431H479.069V0.351807Z" stroke="#999999"
        stroke-opacity="0.25" stroke-miterlimit="10" />
      <path d="M479.069 40.2432H439.178V80.1345H479.069V40.2432Z" stroke="#999999"
        stroke-opacity="0.25" stroke-miterlimit="10" />
      <path d="M518.96 40.2432H479.069V80.1345H518.96V40.2432Z" stroke="#999999"
        stroke-opacity="0.25" stroke-miterlimit="10" />
      <path d="M518.96 0.351807H479.069V40.2431H518.96V0.351807Z" stroke="#999999"
        stroke-opacity="0.25" stroke-miterlimit="10" />
      <path d="M558.859 0.351807H518.967V40.2431H558.859V0.351807Z" stroke="#999999"
        stroke-opacity="0.25" stroke-miterlimit="10" />
      <path d="M558.859 40.2432H518.967V80.1345H558.859V40.2432Z" stroke="#999999"
        stroke-opacity="0.25" stroke-miterlimit="10" />
      <path d="M598.75 40.2432H558.859V80.1345H598.75V40.2432Z" stroke="#999999"
        stroke-opacity="0.25" stroke-miterlimit="10" />
      <path d="M598.75 0.351807H558.859V40.2431H598.75V0.351807Z" stroke="#999999"
        stroke-opacity="0.25" stroke-miterlimit="10" />
      <path d="M638.641 0.351807H598.75V40.2431H638.641V0.351807Z" stroke="#999999"
        stroke-opacity="0.25" stroke-miterlimit="10" />
      <path d="M638.641 40.2432H598.75V80.1345H638.641V40.2432Z" stroke="#999999"
        stroke-opacity="0.25" stroke-miterlimit="10" />
    </g>
    <g opacity="0.3">
      <path d="M80.1417 0.351807H0.352051V80.1415H80.1417V0.351807Z" stroke="#666666"
        stroke-miterlimit="10" />
      <path d="M159.931 0.351807H80.1416V80.1415H159.931V0.351807Z" stroke="#666666"
        stroke-miterlimit="10" />
      <path d="M239.714 0.351807H159.924V80.1415H239.714V0.351807Z" stroke="#666666"
        stroke-miterlimit="10" />
      <path d="M319.504 0.351807H239.714V80.1415H319.504V0.351807Z" stroke="#666666"
        stroke-miterlimit="10" />
      <path d="M399.286 0.351807H319.497V80.1415H399.286V0.351807Z" stroke="#666666"
        stroke-miterlimit="10" />
      <path d="M479.076 0.351807H399.286V80.1415H479.076V0.351807Z" stroke="#666666"
        stroke-miterlimit="10" />
      <path d="M558.859 0.351807H479.069V80.1415H558.859V0.351807Z" stroke="#666666"
        stroke-miterlimit="10" />
      <path d="M638.649 0.351807H558.859V80.1415H638.649V0.351807Z" stroke="#666666"
        stroke-miterlimit="10" />
      <path d="M80.1417 80.1416H0.352051V159.931H80.1417V80.1416Z" stroke="#666666"
        stroke-miterlimit="10" />
      <path d="M159.931 80.1416H80.1416V159.931H159.931V80.1416Z" stroke="#666666"
        stroke-miterlimit="10" />
      <path d="M239.714 80.1416H159.924V159.931H239.714V80.1416Z" stroke="#666666"
        stroke-miterlimit="10" />
      <path d="M319.504 80.1416H239.714V159.931H319.504V80.1416Z" stroke="#666666"
        stroke-miterlimit="10" />
      <path d="M399.286 80.1416H319.497V159.931H399.286V80.1416Z" stroke="#666666"
        stroke-miterlimit="10" />
      <path d="M479.076 80.1416H399.286V159.931H479.076V80.1416Z" stroke="#666666"
        stroke-miterlimit="10" />
      <path d="M558.859 80.1416H479.069V159.931H558.859V80.1416Z" stroke="#666666"
        stroke-miterlimit="10" />
      <path d="M638.649 80.1416H558.859V159.931H638.649V80.1416Z" stroke="#666666"
        stroke-miterlimit="10" />
      <path d="M80.1417 159.924H0.352051V239.714H80.1417V159.924Z" stroke="#666666"
        stroke-miterlimit="10" />
      <path d="M159.931 159.924H80.1416V239.714H159.931V159.924Z" stroke="#666666"
        stroke-miterlimit="10" />
      <path d="M239.714 159.924H159.924V239.714H239.714V159.924Z" stroke="#666666"
        stroke-miterlimit="10" />
      <path d="M319.504 159.924H239.714V239.714H319.504V159.924Z" stroke="#666666"
        stroke-miterlimit="10" />
      <path d="M399.286 159.924H319.497V239.714H399.286V159.924Z" stroke="#666666"
        stroke-miterlimit="10" />
      <path d="M479.076 159.924H399.286V239.714H479.076V159.924Z" stroke="#666666"
        stroke-miterlimit="10" />
      <path d="M558.859 159.924H479.069V239.714H558.859V159.924Z" stroke="#666666"
        stroke-miterlimit="10" />
      <path d="M638.649 159.924H558.859V239.714H638.649V159.924Z" stroke="#666666"
        stroke-miterlimit="10" />
      <path d="M80.1417 239.714H0.352051V319.504H80.1417V239.714Z" stroke="#666666"
        stroke-miterlimit="10" />
      <path d="M159.931 239.714H80.1416V319.504H159.931V239.714Z" stroke="#666666"
        stroke-miterlimit="10" />
      <path d="M239.714 239.714H159.924V319.504H239.714V239.714Z" stroke="#666666"
        stroke-miterlimit="10" />
      <path d="M319.504 239.714H239.714V319.504H319.504V239.714Z" stroke="#666666"
        stroke-miterlimit="10" />
      <path d="M399.286 239.714H319.497V319.504H399.286V239.714Z" stroke="#666666"
        stroke-miterlimit="10" />
      <path d="M479.076 239.714H399.286V319.504H479.076V239.714Z" stroke="#666666"
        stroke-miterlimit="10" />
      <path d="M558.859 239.714H479.069V319.504H558.859V239.714Z" stroke="#666666"
        stroke-miterlimit="10" />
      <path d="M638.649 239.714H558.859V319.504H638.649V239.714Z" stroke="#666666"
        stroke-miterlimit="10" />
      <path d="M80.1417 319.497H0.352051V399.286H80.1417V319.497Z" stroke="#666666"
        stroke-miterlimit="10" />
      <path d="M159.931 319.497H80.1416V399.286H159.931V319.497Z" stroke="#666666"
        stroke-miterlimit="10" />
      <path d="M239.714 319.497H159.924V399.286H239.714V319.497Z" stroke="#666666"
        stroke-miterlimit="10" />
      <path d="M319.504 319.497H239.714V399.286H319.504V319.497Z" stroke="#666666"
        stroke-miterlimit="10" />
      <path d="M399.286 319.497H319.497V399.286H399.286V319.497Z" stroke="#666666"
        stroke-miterlimit="10" />
      <path d="M479.076 319.497H399.286V399.286H479.076V319.497Z" stroke="#666666"
        stroke-miterlimit="10" />
      <path d="M558.859 319.497H479.069V399.286H558.859V319.497Z" stroke="#666666"
        stroke-miterlimit="10" />
      <path d="M638.649 319.497H558.859V399.286H638.649V319.497Z" stroke="#666666"
        stroke-miterlimit="10" />
      <path d="M80.1417 399.286H0.352051V479.076H80.1417V399.286Z" stroke="#666666"
        stroke-miterlimit="10" />
      <path d="M159.931 399.286H80.1416V479.076H159.931V399.286Z" stroke="#666666"
        stroke-miterlimit="10" />
      <path d="M239.714 399.286H159.924V479.076H239.714V399.286Z" stroke="#666666"
        stroke-miterlimit="10" />
      <path d="M319.504 399.286H239.714V479.076H319.504V399.286Z" stroke="#666666"
        stroke-miterlimit="10" />
      <path d="M399.286 399.286H319.497V479.076H399.286V399.286Z" stroke="#666666"
        stroke-miterlimit="10" />
      <path d="M479.076 399.286H399.286V479.076H479.076V399.286Z" stroke="#666666"
        stroke-miterlimit="10" />
      <path d="M558.859 399.286H479.069V479.076H558.859V399.286Z" stroke="#666666"
        stroke-miterlimit="10" />
      <path d="M638.649 399.286H558.859V479.076H638.649V399.286Z" stroke="#666666"
        stroke-miterlimit="10" />
      <path d="M80.1417 479.069H0.352051V558.859H80.1417V479.069Z" stroke="#666666"
        stroke-miterlimit="10" />
      <path d="M159.931 479.069H80.1416V558.859H159.931V479.069Z" stroke="#666666"
        stroke-miterlimit="10" />
      <path d="M239.714 479.069H159.924V558.859H239.714V479.069Z" stroke="#666666"
        stroke-miterlimit="10" />
      <path d="M319.504 479.069H239.714V558.859H319.504V479.069Z" stroke="#666666"
        stroke-miterlimit="10" />
      <path d="M399.286 479.069H319.497V558.859H399.286V479.069Z" stroke="#666666"
        stroke-miterlimit="10" />
      <path d="M479.076 479.069H399.286V558.859H479.076V479.069Z" stroke="#666666"
        stroke-miterlimit="10" />
      <path d="M558.859 479.069H479.069V558.859H558.859V479.069Z" stroke="#666666"
        stroke-miterlimit="10" />
      <path d="M638.649 479.069H558.859V558.859H638.649V479.069Z" stroke="#666666"
        stroke-miterlimit="10" />
      <path d="M80.1417 558.858H0.352051V638.648H80.1417V558.858Z" stroke="#666666"
        stroke-miterlimit="10" />
      <path d="M159.931 558.858H80.1416V638.648H159.931V558.858Z" stroke="#666666"
        stroke-miterlimit="10" />
      <path d="M239.714 558.858H159.924V638.648H239.714V558.858Z" stroke="#666666"
        stroke-miterlimit="10" />
      <path d="M319.504 558.858H239.714V638.648H319.504V558.858Z" stroke="#666666"
        stroke-miterlimit="10" />
      <path d="M399.286 558.858H319.497V638.648H399.286V558.858Z" stroke="#666666"
        stroke-miterlimit="10" />
      <path d="M479.076 558.858H399.286V638.648H479.076V558.858Z" stroke="#666666"
        stroke-miterlimit="10" />
      <path d="M558.859 558.858H479.069V638.648H558.859V558.858Z" stroke="#666666"
        stroke-miterlimit="10" />
      <path d="M638.649 558.858H558.859V638.648H638.649V558.858Z" stroke="#666666"
        stroke-miterlimit="10" />
    </g>
  </g>
  <path class="shield"
    d="M324.41 550.828L324.4 550.833C321.318 552.381 317.684 552.381 314.602 550.833L314.592 550.828L170.493 478.833L170.493 478.833C118.102 452.662 85.002 399.155 85.002 340.62V69.7474C85.002 67.9015 86.6421 66.5033 88.4756 66.8034C88.4767 66.8036 88.4779 66.8038 88.479 66.804L120.86 72.1958C172.612 80.826 225.773 72.5802 272.476 48.6875C272.476 48.6873 272.477 48.687 272.477 48.6868L314.432 27.2393L314.445 27.2327L314.459 27.2259C317.606 25.5934 321.367 25.5876 324.553 27.231L324.561 27.2352L324.569 27.2394L366.525 48.6868C413.227 72.58 466.389 80.8261 518.142 72.1958L550.523 66.804C550.523 66.8039 550.523 66.8038 550.524 66.8037C552.348 66.504 554 67.9151 554 69.7474V340.62C554 399.155 520.899 452.662 468.508 478.833L468.508 478.833L324.41 550.828Z"
    stroke="#0086FF" stroke-width="10" />
  <defs>
    <clipPath id="clip0_29_277">
      <rect width="639" height="639" fill="white" />
    </clipPath>
  </defs>
</svg>