<svg width="97" height="96" viewBox="0 0 97 96" fill="none" xmlns="http://www.w3.org/2000/svg">
<path d="M34.6008 30L17.8008 54L27.4008 73.2H41.8008L51.4008 54L34.6008 30Z" stroke="black" stroke-width="2"/>
<path d="M34.5996 30V51.6" stroke="black" stroke-width="2"/>
<path d="M34.5992 56.4001C35.9247 56.4001 36.9992 55.3256 36.9992 54.0001C36.9992 52.6746 35.9247 51.6001 34.5992 51.6001C33.2737 51.6001 32.1992 52.6746 32.1992 54.0001C32.1992 55.3256 33.2737 56.4001 34.5992 56.4001Z" stroke="black" stroke-width="2"/>
<path d="M46.5992 80.4002H22.5872L20.1992 78.0002V73.2002H48.9992V78.0002L46.5992 80.4002Z" stroke="black" stroke-width="2"/>
<path d="M36.9992 16.2361V15.6001H32.1992V20.4001H36.9992V16.2361V16.2361Z" stroke="black" stroke-width="2"/>
<path d="M65.8004 20.4001C67.1259 20.4001 68.2004 19.3256 68.2004 18.0001C68.2004 16.6746 67.1259 15.6001 65.8004 15.6001C64.4749 15.6001 63.4004 16.6746 63.4004 18.0001C63.4004 19.3256 64.4749 20.4001 65.8004 20.4001Z" stroke="black" stroke-width="2"/>
<path d="M3.4 20.424C4.72548 20.424 5.8 19.3495 5.8 18.024C5.8 16.6985 4.72548 15.624 3.4 15.624C2.07452 15.624 1 16.6985 1 18.024C1 19.3495 2.07452 20.424 3.4 20.424Z" stroke="black" stroke-width="2"/>
<path d="M3.4 54.0002C4.72548 54.0002 5.8 52.9257 5.8 51.6002C5.8 50.2747 4.72548 49.2002 3.4 49.2002C2.07452 49.2002 1 50.2747 1 51.6002C1 52.9257 2.07452 54.0002 3.4 54.0002Z" stroke="black" stroke-width="2"/>
<path d="M65.8004 54.0002C67.1259 54.0002 68.2004 52.9257 68.2004 51.6002C68.2004 50.2747 67.1259 49.2002 65.8004 49.2002C64.4749 49.2002 63.4004 50.2747 63.4004 51.6002C63.4004 52.9257 64.4749 54.0002 65.8004 54.0002Z" stroke="black" stroke-width="2"/>
<path d="M3.42383 49.2001C3.42383 32.7841 16.1078 19.3441 32.1998 18.1201" stroke="black" stroke-width="2"/>
<path d="M37 18.1201C53.092 19.3441 65.776 32.7841 65.776 49.2001" stroke="black" stroke-width="2"/>
<path d="M37 18H63.4" stroke="black" stroke-width="2"/>
<path d="M5.80078 18H32.2008" stroke="black" stroke-width="2"/>
</svg>
