<svg width="96" height="96" viewBox="0 0 96 96" fill="none" xmlns="http://www.w3.org/2000/svg">
<path d="M36.6196 81.5999C44.5924 81.5999 51.0556 66.5567 51.0556 47.9999C51.0556 29.4431 44.5924 14.3999 36.6196 14.3999C28.6468 14.3999 22.1836 29.4431 22.1836 47.9999C22.1836 66.5567 28.6468 81.5999 36.6196 81.5999Z" stroke="currentColor" stroke-width="2"/>
<path d="M42.6262 61.0848C59.5341 53.3259 70.5517 41.1765 67.2348 33.9483C63.9178 26.7202 47.5224 27.1504 30.6145 34.9093C13.7066 42.6682 2.68892 54.8176 6.00587 62.0458C9.32282 69.2739 25.7183 68.8437 42.6262 61.0848Z" stroke="currentColor" stroke-width="2"/>
<path d="M12.0077 48.6717C16.4597 53.1237 22.9157 57.5517 30.5717 61.0797C47.4677 68.8437 63.8837 69.2877 67.2197 62.0637C69.9317 56.2077 63.1997 47.0997 51.5237 39.7197C50.8757 39.3117 50.2157 38.9037 49.5437 38.5077C47.3837 37.2357 45.0797 36.0357 42.6557 34.9197C25.7597 27.1557 9.34367 26.7117 6.00767 33.9357C4.33967 37.5477 6.25967 42.3957 10.7117 47.3157" stroke="currentColor" stroke-width="2"/>
<path d="M36.6186 52.7997C39.2762 52.7997 41.4306 50.6507 41.4306 47.9997C41.4306 45.3487 39.2762 43.1997 36.6186 43.1997C33.961 43.1997 31.8066 45.3487 31.8066 47.9997C31.8066 50.6507 33.961 52.7997 36.6186 52.7997Z" stroke="currentColor" stroke-width="2"/>
</svg>
