<svg width="97" height="96" viewBox="0 0 97 96" fill="none" xmlns="http://www.w3.org/2000/svg">
<path d="M21.3875 61.1997L8.1875 74.3997" stroke="black" stroke-width="2"/>
<path d="M29.788 62.3998L10.588 81.5998H8.188L1 74.3998V71.9998L20.188 52.7998L29.788 62.3998Z" stroke="black" stroke-width="2"/>
<path d="M31.8407 55.5479L27.3887 59.9999" stroke="black" stroke-width="2"/>
<path d="M22.5879 55.2L27.0399 50.748" stroke="black" stroke-width="2"/>
<path d="M41.7891 31.188V28.992C41.7891 26.892 43.3971 25.188 45.3891 25.188C47.3811 25.188 48.9891 26.892 48.9891 28.992V31.188" stroke="black" stroke-width="2"/>
<path d="M38.1875 33.588L40.5875 31.188H50.1875L52.5875 33.588V41.988C52.5875 46.02 49.4195 49.2 45.3875 49.2C41.3555 49.2 38.1875 46.02 38.1875 41.988V33.588V33.588Z" stroke="black" stroke-width="2"/>
<path d="M52.5879 35.988H54.9879L57.3879 33.588V31.188" stroke="black" stroke-width="2"/>
<path d="M52.5879 43.188H54.9879L57.3879 45.588V47.988" stroke="black" stroke-width="2"/>
<path d="M38.1887 35.988H35.7887L33.3887 33.588V31.188" stroke="black" stroke-width="2"/>
<path d="M38.1887 43.188H35.7887L33.3887 45.588V47.988" stroke="black" stroke-width="2"/>
<path d="M45.3879 59.9999C57.98 59.9999 68.1879 49.792 68.1879 37.1999C68.1879 24.6078 57.98 14.3999 45.3879 14.3999C32.7958 14.3999 22.5879 24.6078 22.5879 37.1999C22.5879 49.792 32.7958 59.9999 45.3879 59.9999Z" stroke="black" stroke-width="2"/>
</svg>
