<svg width="96" height="96" viewBox="0 0 96 96" fill="none" xmlns="http://www.w3.org/2000/svg">
<g clip-path="url(#clip0_2210_2635)">
<path d="M21.5879 66.0056V62.3936C21.5879 55.7696 26.9639 50.3936 33.5879 50.3936C40.2119 50.3936 45.5879 55.7576 45.5879 62.3936V65.9696" stroke="black" stroke-width="2"/>
<path d="M33.589 50.4059C37.572 50.4059 40.801 47.177 40.801 43.1939C40.801 39.2109 37.572 35.9819 33.589 35.9819C29.6059 35.9819 26.377 39.2109 26.377 43.1939C26.377 47.177 29.6059 50.4059 33.589 50.4059Z" stroke="black" stroke-width="2"/>
<path d="M61.1989 26.3818C64.506 26.3818 67.1869 23.7008 67.1869 20.3938C67.1869 17.0867 64.506 14.4058 61.1989 14.4058C57.8919 14.4058 55.2109 17.0867 55.2109 20.3938C55.2109 23.7008 57.8919 26.3818 61.1989 26.3818Z" stroke="black" stroke-width="2"/>
<path d="M5.988 26.3818C9.29508 26.3818 11.976 23.7008 11.976 20.3938C11.976 17.0867 9.29508 14.4058 5.988 14.4058C2.68092 14.4058 0 17.0867 0 20.3938C0 23.7008 2.68092 26.3818 5.988 26.3818Z" stroke="black" stroke-width="2"/>
<path d="M61.1989 81.5937C64.506 81.5937 67.1869 78.9128 67.1869 75.6057C67.1869 72.2986 64.506 69.6177 61.1989 69.6177C57.8919 69.6177 55.2109 72.2986 55.2109 75.6057C55.2109 78.9128 57.8919 81.5937 61.1989 81.5937Z" stroke="black" stroke-width="2"/>
<path d="M5.988 81.5937C9.29508 81.5937 11.976 78.9128 11.976 75.6057C11.976 72.2986 9.29508 69.6177 5.988 69.6177C2.68092 69.6177 0 72.2986 0 75.6057C0 78.9128 2.68092 81.5937 5.988 81.5937Z" stroke="black" stroke-width="2"/>
<path d="M10.2227 24.6299L18.3107 32.7059" stroke="black" stroke-width="2"/>
<path d="M56.9532 24.6177L48.8652 32.7057" stroke="black" stroke-width="2"/>
<path d="M19.5582 64.4341L11.2422 72.7381" stroke="black" stroke-width="2"/>
<path d="M47.6387 64.4458L55.9307 72.7498" stroke="black" stroke-width="2"/>
<path d="M33.5886 69.6058C45.5245 69.6058 55.2006 59.9298 55.2006 47.9938C55.2006 36.0579 45.5245 26.3818 33.5886 26.3818C21.6526 26.3818 11.9766 36.0579 11.9766 47.9938C11.9766 59.9298 21.6526 69.6058 33.5886 69.6058Z" stroke="black" stroke-width="2"/>
</g>
<defs>
<clipPath id="clip0_2210_2635">
<rect width="96" height="96" fill="white"/>
</clipPath>
</defs>
</svg>
