<svg width="97" height="96" viewBox="0 0 97 96" fill="none" xmlns="http://www.w3.org/2000/svg">
<path d="M63.4 49.2119C63.4 66.4439 49.432 80.3999 32.2 80.3999C14.968 80.3999 1 66.4439 1 49.2119" stroke="currentColor" stroke-width="2"/>
<path d="M32.1985 29.1602C21.1225 29.1602 12.1465 38.1362 12.1465 49.2122C12.1465 60.2882 21.1225 69.2642 32.1985 69.2642C43.2745 69.2642 52.2505 60.2882 52.2505 49.2122" stroke="currentColor" stroke-width="2"/>
<path d="M27.4716 44.4839C26.2596 45.6959 25.5156 47.3639 25.5156 49.2119C25.5156 52.9079 28.5036 55.8959 32.1996 55.8959C34.0476 55.8959 35.7156 55.1519 36.9276 53.9399" stroke="currentColor" stroke-width="2"/>
<path d="M63.4 49.212C63.4 66.444 49.432 80.4 32.2 80.4C14.968 80.4 1 66.444 1 49.212C1 40.608 4.492 32.808 10.132 27.168" stroke="currentColor" stroke-width="2"/>
<path d="M46.5996 34.8119H56.1996L65.7996 25.2119H56.1996L46.5996 34.8119Z" stroke="currentColor" stroke-width="2"/>
<path d="M56.1992 25.2002L32.1992 49.2122" stroke="currentColor" stroke-width="2"/>
<path d="M56.1996 15.6001V25.2001L46.5996 34.8001V25.2001L56.1996 15.6001V15.6001Z" stroke="currentColor" stroke-width="2"/>
</svg>
